<svg width="60" height="60" viewBox="0 0 60 60" fill="none" xmlns="http://www.w3.org/2000/svg">
<g clip-path="url(#clip0_1632_5185)">
<path d="M12.7642 51H7.23584C4.89648 51 3 52.8965 3 55.2358V59H5V56H7V59H13V56H15V59H17V55.2358C17 52.8965 15.1035 51 12.7642 51Z" fill="#3843C1"/>
<path d="M32.7642 51H27.2358C24.8965 51 23 52.8965 23 55.2358V59H25V56H27V59H33V56H35V59H37V55.2358C37 52.8965 35.1035 51 32.7642 51Z" fill="#3843C1"/>
<path d="M30 9C31.1045 9 32 8.10449 32 7V5C32 3.89551 31.1045 3 30 3C28.8955 3 28 3.89551 28 5V7C28 8.10449 28.8955 9 30 9Z" fill="#3843C1"/>
<path d="M32 47V45C32 43.8955 31.1045 43 30 43C28.8955 43 28 43.8955 28 45V47C28 48.1045 28.8955 49 30 49C31.1045 49 32 48.1045 32 47Z" fill="#3843C1"/>
<path d="M25 16H27V19H33V16H35V19H37V15.2358C37 12.8965 35.1035 11 32.7642 11H27.2358C24.8965 11 23 12.8965 23 15.2358V19H25V16Z" fill="#3843C1"/>
<path d="M44 25H45V21H15V25H44Z" fill="#3843C1"/>
<path d="M54.71 50.7002C54.523 50.8906 54.2671 50.999 54 51H47.2358C44.8965 51 43 52.8965 43 55.2358V59H45V56H47V59H57V39H55.0059C55.0772 50.335 55.0669 50.3462 54.71 50.7002Z" fill="#3843C1"/>
<path d="M8 45V47C8 48.1045 8.89551 49 10 49C11.1045 49 12 48.1045 12 47V45C12 43.8955 11.1045 43 10 43C8.89551 43 8 43.8955 8 45Z" fill="#3843C1"/>
<path d="M48 47C48 48.1045 48.8955 49 50 49C51.1045 49 52 48.1045 52 47V45C52 43.8955 51.1045 43 50 43C48.8955 43 48 43.8955 48 45V47Z" fill="#3843C1"/>
<path d="M18.6172 29H41.3809L42.3809 27H17.6172L18.6172 29Z" fill="#3843C1"/>
<path d="M55 35H57V37H55V35Z" fill="#3843C1"/>
<path d="M35 38C35 38.5522 34.5522 39 34 39H26C25.4478 39 25 38.5522 25 38V31H23V43H21V31H19V59H21V55.2358C21.0015 54.2681 21.2266 53.3135 21.6582 52.4468C22.606 50.5435 24.4648 49.2598 26.5811 49.0469C26.2036 48.4307 26.0029 47.7227 26 47V45C26 42.791 27.791 41 30 41C32.209 41 34 42.791 34 45V47C33.9966 47.7222 33.7959 48.4292 33.4189 49.0449C35.5352 49.2573 37.394 50.5415 38.3418 52.4448C38.7734 53.312 38.999 54.2676 39 55.2358V59H41V31H35V38ZM23 47H21V45H23V47Z" fill="#3843C1"/>
<path d="M27 31H33V37H27V31Z" fill="#3843C1"/>
<path d="M46 3H48V5H46V3Z" fill="#3843C1"/>
<path d="M50 3H52V5H50V3Z" fill="#3843C1"/>
<path d="M54 3H56V5H54V3Z" fill="#3843C1"/>
<path d="M57.9995 1V6C57.9995 6.55225 57.5518 7 56.9995 7H50.9995C50.6187 6.99805 50.2695 7.2124 50.0996 7.55322L48.0996 11.5532L49.8896 12.4468L51.6177 9H56.9995C58.6563 9 59.9995 7.65674 59.9995 6V1H57.9995Z" fill="#3843C1"/>
<path d="M12 30H14V32H12V30Z" fill="#3843C1"/>
<path d="M8 30H10V32H8V30Z" fill="#3843C1"/>
<path d="M4 30H6V32H4V30Z" fill="#3843C1"/>
<path d="M7.38184 36L9.10498 39.4468L10.895 38.5532L8.89502 34.5532C8.72559 34.2139 8.37891 34 8 34H3C2.44775 34 2 33.5522 2 33V29C2 28.4478 2.44775 28 3 28H5V26H3C1.34326 26 0 27.3433 0 29V33C0 34.6567 1.34326 36 3 36H7.38184Z" fill="#3843C1"/>
</g>
<defs>
<clipPath id="clip0_1632_5185">
<rect width="60" height="60" fill="white"/>
</clipPath>
</defs>
</svg>
