<svg width="60" height="60" viewBox="0 0 60 60" fill="none" xmlns="http://www.w3.org/2000/svg">
<path d="M6.89402 17.2635C6.89402 14.6508 9.01195 12.5329 11.6246 12.5329C14.2372 12.5329 16.3553 14.6508 16.3553 17.2635C16.3553 19.8761 14.2373 21.9941 11.6246 21.9941C9.01207 21.9941 6.89402 19.8761 6.89402 17.2635ZM11.6246 23.166C7.93523 23.166 4.76004 25.4795 3.47777 28.7274H19.7716C18.4894 25.4795 15.3141 23.166 11.6246 23.166ZM1.52344 33.534H21.7259C21.9837 33.534 22.1946 33.3231 22.1946 33.0653V31.071C22.1946 30.8132 21.9837 30.6022 21.7259 30.6022H1.52344C1.26562 30.6022 1.05469 30.8132 1.05469 31.071V33.0653C1.05469 33.3231 1.26562 33.534 1.52344 33.534ZM7.20937 50.1068C4.05293 50.1068 1.43156 52.5149 1.09195 55.5847C1.05176 55.948 1.33266 56.2615 1.69805 56.2615H12.7207C13.0861 56.2615 13.367 55.948 13.3268 55.5847C12.9871 52.515 10.3658 50.1068 7.20937 50.1068ZM3.88301 45.6086C3.88301 47.4457 5.37223 48.9349 7.20937 48.9349C9.04652 48.9349 10.5357 47.4457 10.5357 45.6086C10.5357 43.7714 9.04652 42.2822 7.20937 42.2822C5.37223 42.2822 3.88301 43.7714 3.88301 45.6086ZM21.041 38.5833V35.409H2.20828V38.5833C2.20828 38.8412 2.41922 39.052 2.67703 39.052H20.5723C20.8301 39.052 21.041 38.8411 21.041 38.5833ZM34.2704 45.6086C34.2704 47.4457 35.7596 48.9349 37.5968 48.9349C39.4339 48.9349 40.9232 47.4457 40.9232 45.6086C40.9232 43.7714 39.4339 42.2822 37.5968 42.2822C35.7596 42.2822 34.2704 43.7714 34.2704 45.6086ZM22.4031 42.2821C20.5659 42.2821 19.0766 43.7713 19.0766 45.6084C19.0766 47.4456 20.5659 48.9348 22.4031 48.9348C24.2402 48.9348 25.7295 47.4456 25.7295 45.6084C25.7295 43.7713 24.2402 42.2821 22.4031 42.2821ZM37.5969 50.1068C34.4405 50.1068 31.8191 52.5149 31.4795 55.5847C31.4393 55.948 31.7202 56.2615 32.0856 56.2615H43.1082C43.4736 56.2615 43.7545 55.948 43.7143 55.5847C43.3746 52.515 40.7534 50.1068 37.5969 50.1068ZM56.9266 32.9436H25.8145C25.4278 32.9436 25.1114 32.6272 25.1114 32.2405V8.68817H57.6298V32.2405C57.6298 32.6272 57.3134 32.9436 56.9266 32.9436ZM34.4729 18.9136C34.7298 19.3606 35.3004 19.5147 35.7473 19.2579L45.1379 13.8362L44.8893 14.5668C44.7234 15.0563 44.9857 15.5875 45.4752 15.7533C45.9647 15.9191 46.4959 15.6568 46.6617 15.1674L47.6971 12.1259C47.9084 11.5839 47.5805 10.9777 47.0043 10.8653L43.8098 10.2328C43.3022 10.1337 42.8102 10.465 42.7112 10.9725C42.6121 11.4802 42.9434 11.972 43.4509 12.0711L44.2032 12.2201L34.817 17.6392C34.3702 17.8961 34.2161 18.4666 34.4729 18.9136ZM52.1829 29.8972C52.1829 29.3795 51.7631 28.9597 51.2454 28.9597H49.5548V17.7124C49.5548 17.5059 49.3863 17.3374 49.1798 17.3374C48.3048 17.3374 47.4299 17.3374 46.555 17.3374C46.3485 17.3374 46.18 17.5059 46.18 17.7124V28.9597H43.6614V21.3047C43.6614 21.0982 43.4929 20.9297 43.2864 20.9297C42.4113 20.9297 41.5364 20.9297 40.6616 20.9297C40.4551 20.9297 40.2866 21.0981 40.2866 21.3047V28.9597H37.768V24.897C37.768 24.6905 37.5995 24.522 37.393 24.522H34.7684C34.5619 24.522 34.3934 24.6905 34.3934 24.897V28.9597H32.4333V13.86C32.4333 13.3423 32.0135 12.9225 31.4958 12.9225C30.978 12.9225 30.5583 13.3423 30.5583 13.86V29.8972C30.5583 30.415 30.978 30.8347 31.4958 30.8347H51.2454C51.7631 30.8347 52.1829 30.415 52.1829 29.8972ZM49.4643 45.6086C49.4643 47.4457 50.9535 48.9349 52.7906 48.9349C54.6278 48.9349 56.117 47.4457 56.117 45.6086C56.117 43.7714 54.6278 42.2822 52.7906 42.2822C50.9535 42.2822 49.4643 43.7714 49.4643 45.6086ZM22.4031 50.1068C19.2466 50.1068 16.6253 52.5149 16.2857 55.5847C16.2455 55.948 16.5264 56.2615 16.8918 56.2615H27.9145C28.2799 56.2615 28.5608 55.948 28.5206 55.5847C28.1809 52.515 25.5595 50.1068 22.4031 50.1068ZM58.5373 3.73853H24.2039C23.9794 3.73853 23.7959 3.92216 23.7959 4.14657V6.40513C23.7959 6.62954 23.9795 6.81317 24.2039 6.81317H58.5373C58.7617 6.81317 58.9453 6.62954 58.9453 6.40513V4.14657C58.9453 3.92216 58.7617 3.73853 58.5373 3.73853ZM52.7906 50.1068C49.6342 50.1068 47.0128 52.5149 46.6732 55.5847C46.633 55.948 46.9139 56.2615 47.2793 56.2615H58.302C58.6673 56.2615 58.9482 55.948 58.908 55.5847C58.5684 52.515 55.9471 50.1068 52.7906 50.1068Z" fill="#3843C1"/>
</svg>
