<svg width="40" height="40" viewBox="0 0 40 40" fill="none" xmlns="http://www.w3.org/2000/svg">
<g clip-path="url(#clip0_135_863)">
<path d="M37.413 20.003C38.2564 18.3251 38.9202 16.6384 39.381 14.9764C40.8257 9.76883 40.1262 5.4082 37.4106 2.69827C34.6953 -0.0118112 30.3261 -0.710406 25.1084 0.731628C23.4432 1.19147 21.7532 1.85429 20.072 2.69569C17.9805 1.64804 15.886 0.881472 13.8679 0.43983C9.18035 -0.585484 5.2295 0.21647 2.74324 2.69827C1.14747 4.29085 0.221912 6.52875 0.0672349 9.17016C-0.0719432 11.5462 0.410562 14.273 1.46215 17.0818C0.598585 17.7633 0.0429688 18.8167 0.0429688 19.9981C0.0429688 21.1794 0.598585 22.2328 1.46207 22.9143C0.410483 25.7232 -0.0720997 28.4503 0.0671566 30.8261C0.222147 33.4673 1.14739 35.7052 2.74324 37.298C4.52532 39.0768 7.02559 39.9938 10.0458 39.9938C10.652 39.9938 11.2794 39.9569 11.9266 39.8825C14.5162 39.5843 17.2831 38.7039 20.076 37.3022C21.7558 38.143 23.4447 38.8049 25.1084 39.2644C26.8841 39.7552 28.5615 39.9981 30.109 39.9981C33.1083 39.9981 35.6193 39.0856 37.4106 37.2979C39.8971 34.8165 40.7007 30.8733 39.6733 26.1947C39.2308 24.1808 38.4628 22.0903 37.413 20.003ZM25.4222 1.86288C30.214 0.538659 34.1762 1.13014 36.5789 3.52827C38.9817 5.92633 39.5743 9.88079 38.2475 14.6632C37.876 16.0029 37.3657 17.361 36.7309 18.7178C35.5935 16.682 34.1945 14.6647 32.5736 12.7406C33.0702 12.1089 33.3674 11.3139 33.3674 10.4506C33.3674 9.61586 33.0968 8.82735 32.5843 8.17L31.656 8.89047C32.0064 9.34 32.1914 9.87954 32.1914 10.4506C32.1914 11.8531 31.0481 12.9939 29.6431 12.9939C28.2381 12.9939 27.0948 11.8531 27.0948 10.4506C27.0948 9.04797 28.238 7.90719 29.6431 7.90719C30.1006 7.90677 30.5498 8.02949 30.9432 8.26242L31.5444 7.25352C30.969 6.91268 30.3122 6.73294 29.643 6.7332C28.7781 6.7332 27.9815 7.03008 27.3489 7.5257C25.4207 5.90797 23.3995 4.51179 21.3597 3.37624C22.7191 2.74304 24.0798 2.23358 25.4222 1.86288ZM3.57487 3.52835C6.75467 0.354752 12.5852 0.473112 18.7893 3.37296C15.7606 5.05875 12.7901 7.31617 10.08 10.0206C8.07045 12.0263 6.30183 14.1805 4.81612 16.4293C4.47539 16.3306 4.12238 16.2806 3.76759 16.2807C3.33541 16.2805 2.9065 16.3556 2.50019 16.5026C0.46246 10.9596 0.844064 6.25351 3.57487 3.52835ZM10.0762 38.8159C7.41573 38.8159 5.15389 38.0437 3.57455 36.4679C0.843987 33.7426 0.462069 29.0368 2.50011 23.4936C3.24438 23.7628 4.05535 23.7878 4.81479 23.5647C6.3005 25.8144 8.06974 27.9693 10.0799 29.9755C12.789 32.679 15.7587 34.9358 18.7865 36.6216C15.6765 38.0743 12.6845 38.8162 10.0762 38.8158V38.8159ZM20.0735 35.9829C16.8968 34.3176 13.7598 31.9879 10.9116 29.1454C8.99772 27.235 7.30958 25.1879 5.88618 23.0529C6.85549 22.3812 7.49181 21.2627 7.49181 19.9984C7.49181 19.8882 7.48727 19.7768 7.47749 19.6673L6.30567 19.7707C6.31248 19.8457 6.31585 19.9221 6.31585 19.9981C6.31585 21.4007 5.17252 22.5414 3.76751 22.5414C2.3625 22.5414 1.21925 21.4007 1.21925 19.9981C1.21925 18.5955 2.36258 17.4547 3.76759 17.4547C4.73808 17.4547 5.61174 17.993 6.04712 18.8594L7.09839 18.3333C6.81095 17.7611 6.39201 17.2872 5.88876 16.939C7.31185 14.8058 8.99905 12.7596 10.9117 10.8507C13.7605 8.00742 16.8987 5.67703 20.0763 4.01171C22.2391 5.14789 24.4272 6.61273 26.5471 8.38672C26.1364 8.99694 25.9176 9.71556 25.9184 10.4506C25.9184 12.5002 27.5894 14.1677 29.643 14.1677C30.4078 14.1677 31.119 13.9364 31.711 13.5402C33.4884 15.656 34.9558 17.8402 36.0942 19.9984C34.4256 23.1698 32.0907 26.3018 29.2422 29.1454C28.9288 29.4579 28.6067 29.7686 28.2814 30.0729C27.6322 29.5247 26.7941 29.1933 25.8793 29.1933C25.043 29.1933 24.2528 29.4637 23.5942 29.9749L24.3165 30.9015C24.7666 30.552 25.3072 30.3674 25.8793 30.3671C27.2843 30.3671 28.4275 31.5081 28.4275 32.9104C28.4275 34.3129 27.2843 35.4537 25.8793 35.4537C24.4742 35.4537 23.331 34.3129 23.331 32.9104C23.331 32.4526 23.4538 32.004 23.6869 31.6131L22.676 31.0128C22.3345 31.5871 22.1544 32.2426 22.1547 32.9104C22.1542 33.4796 22.2855 34.0412 22.5384 34.5513C21.7144 35.0762 20.8911 35.5535 20.0735 35.9829ZM36.5788 36.4678C34.176 38.8662 30.2138 39.4573 25.4221 38.1334C24.0806 37.7627 22.7212 37.254 21.3626 36.621C21.9927 36.2692 22.612 35.8987 23.2199 35.5099C23.8965 36.199 24.8384 36.6277 25.8792 36.6277C27.9328 36.6277 29.6038 34.9603 29.6038 32.9107C29.6045 32.2227 29.4127 31.5481 29.05 30.963C29.3966 30.6395 29.7378 30.3103 30.0735 29.9755C32.7835 27.2704 35.045 24.3057 36.7344 21.2828C39.6399 27.4752 39.7585 33.2943 36.5788 36.4678Z" fill="#F84923"/>
<path d="M29.7217 26.0633H28.5066V23.1058C28.5066 21.7978 27.6256 20.6363 26.3643 20.2811L25.9246 20.1575L25.6054 21.2872L26.0451 21.4111C26.8016 21.6241 27.3303 22.3208 27.3303 23.1058V26.0633H25.2131V24.459H24.0371V26.0633H18.7441V27.2369H29.7218L29.7217 26.0633Z" fill="#F84923"/>
<path d="M22.021 20.2786L24.4721 20.9689L24.7916 19.8388L22.3891 19.1626V17.6038C23.4768 16.8634 24.1927 15.6173 24.1927 14.2071V12.4852C24.1927 10.22 22.3461 8.37671 20.076 8.37671C17.8062 8.37671 15.9594 10.22 15.9594 12.4853V14.2071C15.9594 15.6173 16.6752 16.8634 17.7628 17.6038V19.1626L13.789 20.281C12.5277 20.6363 11.6467 21.7978 11.6467 23.1057V26.0632H10.4316V27.2369H17.5668V26.0632H16.1163V24.4589H14.9402V26.0632H12.823V23.1057C12.823 22.3208 13.3517 21.6242 14.1082 21.4111L18.1309 20.2789C18.6264 20.8197 19.326 21.1331 20.076 21.1331C20.8261 21.1331 21.526 20.8194 22.021 20.2786ZM20.076 9.5507C21.6972 9.5507 23.0163 10.8673 23.0163 12.4856V13.1393L21.7801 11.5073H17.3041C17.7087 10.3686 18.7982 9.5507 20.076 9.5507ZM17.1357 14.2071V12.6812H21.1948L22.9188 14.9566C22.5858 16.2131 21.4376 17.1417 20.076 17.1417C18.4548 17.1417 17.1357 15.8252 17.1357 14.2071ZM18.9392 19.4174V18.1549C19.6819 18.3692 20.4702 18.3692 21.2129 18.1549V19.4174C20.9365 19.7589 20.5224 19.9591 20.076 19.9591C19.6296 19.9591 19.2153 19.7589 18.9392 19.4174Z" fill="#F84923"/>
<path d="M23.1834 23.0447L21.5267 22.5783L21.8462 21.4486L23.5026 21.9149L23.1834 23.0447ZM25.7654 22.55L25.4458 23.6797L24.3139 23.3611L24.6334 22.2314L25.7654 22.55ZM29.0555 9.86377H30.2314V11.0378H29.0555L29.0555 9.86377ZM25.2917 32.3239H26.4677V33.4976H25.2917V32.3239ZM3.17969 19.4112H4.35605V20.585H3.17969V19.4112Z" fill="#F84923"/>
</g>
<defs>
<clipPath id="clip0_135_863">
<rect width="40" height="40" fill="white" transform="translate(0.00390625 -0.00195312)"/>
</clipPath>
</defs>
</svg>
