<svg width="52" height="60" viewBox="0 0 52 60" fill="none" xmlns="http://www.w3.org/2000/svg">
<path d="M47.2653 42.4159C47.2727 42.4066 46.144 40.8639 43.4693 39.8379C43.4693 39.8379 37.7653 38.1079 35.0647 36.2132C35.0647 36.2692 35.0593 36.3239 35.0593 36.3819C35.0467 37.1259 34.962 38.0372 34.848 38.9759C34.506 41.7806 33.8753 44.8972 33.8753 44.8972C33.0373 43.5179 32.288 42.6112 31.6193 42.0252C30.804 41.3092 30.122 41.0859 29.5893 41.0859C29.5213 41.0859 29.46 41.0872 29.4033 41.0926C28.7367 41.1619 28.3367 41.5772 28.22 41.7086C31.5127 37.6899 32.894 34.2072 33.2173 33.3032C32.604 33.7732 31.8547 34.0492 31.0527 34.0492H28.6707C26.6873 34.0492 25.0733 32.4359 25.0733 30.4512C25.0733 28.4699 26.6873 26.8579 28.6707 26.8579H31.0527C31.8513 26.8579 32.612 27.1219 33.23 27.5926C34.3447 27.4392 35.3993 27.1659 36.3553 26.8079C36.87 25.7592 37.1353 24.5166 37.1353 24.5166C37.9347 22.2692 37.438 21.3972 37.0627 21.0726C37.6413 19.1886 38.9013 13.8832 35.9 10.5066C35.9 10.5066 34.748 7.95923 30.1227 7.03523C30.1227 7.03523 28.538 6.37656 27.762 4.71923C27.52 4.68389 27.2787 4.64456 27.0313 4.62256C26.5787 4.82056 26.0347 5.22123 26.0347 6.03456L25.264 5.72656L24.55 6.23123L23.7247 5.72656C23.7247 5.72656 23.666 5.70923 23.5487 5.70923C23.3893 5.70923 23.1193 5.73723 22.7207 5.87856C22.7207 5.87856 16.7013 8.19189 15.1607 12.9719C15.1607 12.9719 14.3053 15.0012 15.3473 20.9086C15.096 21.0112 13.982 21.6286 15.0113 24.5179C15.0113 24.5179 15.4607 26.6366 16.33 27.6739C16.822 29.1906 17.5713 30.6592 18.4853 31.9572C18.482 31.9539 18.4773 31.9499 18.474 31.9446C18.474 31.9446 18.5893 32.5132 18.4847 33.3086C18.6973 33.8912 20.4273 38.3992 23.462 41.8059C23.3013 41.6439 22.9713 41.3732 22.478 41.2906C22.3807 41.2732 22.2767 41.2639 22.1667 41.2639C21.6753 41.2639 21.0613 41.4539 20.332 42.0439C19.6233 42.6192 18.8047 43.5659 17.886 45.0826C17.886 45.0826 17.1293 41.3612 16.8233 38.3946C16.7493 37.6806 16.7013 37.0099 16.696 36.4499C16.696 36.3372 16.696 36.2306 16.6987 36.1286C14.054 38.0552 8.16067 39.8426 8.16067 39.8426C5.49 40.8739 4.356 42.4172 4.356 42.4172C1.13067 47.1872 0.227333 53.0466 1.15369e-07 55.0546C-0.00133322 57.7866 11.5547 59.9999 25.808 59.9999C40.0613 59.9999 51.618 57.7866 51.618 55.0552C51.394 53.0459 50.4873 47.1846 47.2653 42.4159Z" fill="#F84923"/>
<path d="M8.97966 28.978H9.131C10.7837 28.978 12.1243 27.6393 12.1243 25.9867V19.998C12.1243 18.8253 11.445 17.8087 10.4597 17.3187C10.885 9.224 17.6043 2.76467 25.807 2.76467C34.007 2.76467 40.729 9.224 41.1543 17.3187C40.1683 17.8087 39.4897 18.8247 39.4897 19.998V25.9867C39.4897 26.378 39.567 26.7493 39.7037 27.0947C37.9577 28.344 35.4163 29.234 32.557 29.48C32.2343 28.9893 31.6817 28.66 31.0497 28.66H28.6677C27.675 28.66 26.873 29.464 26.873 30.4513C26.873 31.4453 27.675 32.2473 28.6677 32.2473H31.0497C31.7443 32.2473 32.3363 31.8533 32.6357 31.278C35.9543 31.0173 38.845 30.0033 40.8717 28.5053C41.337 28.8047 41.8883 28.9787 42.483 28.9787H42.6323C44.2883 28.9787 45.6277 27.64 45.6277 25.9873V19.9987C45.6277 18.8047 44.927 17.7807 43.9203 17.3013C43.481 7.68733 35.5257 0 25.807 0C16.0903 0 8.133 7.68733 7.693 17.3C6.68633 17.7793 5.98633 18.8033 5.98633 19.9973V25.986C5.98633 27.6387 7.327 28.978 8.97966 28.978Z" fill="#F84923"/>
</svg>
