<svg width="41" height="30" viewBox="0 0 41 30" fill="none" xmlns="http://www.w3.org/2000/svg">
<path d="M32.0877 3.52134V0.597054C32.0877 0.26731 32.355 0 32.6847 0C33.0145 0 33.2818 0.26731 33.2818 0.597054V3.52134C33.2818 3.85108 33.0145 4.11839 32.6847 4.11839C32.355 4.11839 32.0877 3.85108 32.0877 3.52134ZM8.6204 17.009L6.99428 16.3521C6.66172 16.2176 6.30997 16.2177 5.9775 16.3521L4.35112 17.0092C4.27248 17.0409 4.18617 17.0097 4.14625 16.9346L3.32283 15.3858C3.15446 15.0692 2.88519 14.8433 2.54393 14.7323L0.87593 14.1904C0.794986 14.164 0.749098 14.0846 0.766754 14.0013L1.13147 12.2858C1.2061 11.9349 1.14503 11.5886 0.954911 11.2845L0.025469 9.79706C-0.0195659 9.72499 -0.00361604 9.63466 0.0633393 9.5822L1.44552 8.50239C1.72818 8.28148 1.90397 7.97707 1.95387 7.62182L2.19789 5.88508C2.20949 5.80285 2.27662 5.74468 2.35893 5.74468H2.36507L4.11785 5.80592C4.47591 5.81906 4.80676 5.6982 5.07339 5.45827L6.37676 4.28463C6.43996 4.22765 6.53165 4.22765 6.59494 4.28463L7.89839 5.45818C8.16494 5.6982 8.49485 5.81906 8.85385 5.80592L10.6068 5.74468C10.6906 5.7434 10.762 5.80072 10.7739 5.88499L11.0179 7.62191C11.0678 7.97707 11.2436 8.28156 11.5263 8.50239L12.9084 9.58229C12.9755 9.63458 12.9913 9.72499 12.9463 9.79706L12.0168 11.2845C11.8267 11.5887 11.7657 11.935 11.8403 12.2858L12.2049 14.0014C12.2226 14.0846 12.1767 14.164 12.0959 14.1904L10.4277 14.7323C10.0866 14.8432 9.81733 15.0691 9.64887 15.3858L8.82553 16.9345C8.78562 17.0095 8.69938 17.041 8.6204 17.009ZM11.1085 10.6316C11.1085 8.08258 9.03476 6.00892 6.48585 6.00892C3.93694 6.00892 1.8632 8.08258 1.8632 10.6316C1.8632 13.1806 3.93694 15.2543 6.48585 15.2543C9.03476 15.2543 11.1085 13.1806 11.1085 10.6316ZM10.9429 15.8203L10.7967 15.8678C10.7494 15.8833 10.7266 15.9024 10.7032 15.9465L9.87984 17.495C9.5698 18.0782 8.89437 18.3476 8.27445 18.1516L9.2439 21.0426L10.5307 19.4343L12.5535 19.8232L10.9429 15.8203ZM18.4763 27.3552C18.3694 27.4421 18.2363 27.4887 18.1 27.4887C18.0759 27.4887 18.0517 27.4872 18.0276 27.4843C17.8666 27.4647 17.7207 27.3803 17.6231 27.2509L15.3451 24.2268C13.6931 25.6467 12.5974 27.6965 12.4348 30H18.631L19.4259 27.0109L19.1905 26.7754L18.4763 27.3552ZM20.8061 21.0043H20.8126H20.8192C23.2586 21.0007 25.2421 19.0152 25.2421 16.575C25.2421 14.1347 23.2551 12.1456 20.8128 12.1456C18.3704 12.1456 16.3834 14.1326 16.3834 16.575C16.3834 19.0174 18.3668 21.0006 20.8062 21.0043H20.8061ZM28.6203 4.14253C28.7309 4.3341 28.9316 4.44114 29.1379 4.44114C29.2392 4.44114 29.3419 4.4153 29.4359 4.36114C29.7215 4.19618 29.8193 3.83104 29.6544 3.54556L28.6916 1.87782C28.5267 1.59217 28.1616 1.4946 27.876 1.6593C27.5904 1.82426 27.4926 2.1894 27.6575 2.47487L28.6203 4.14253ZM24.6154 5.95391L26.2831 6.91679C26.3771 6.97112 26.4797 6.99688 26.5811 6.99688C26.7874 6.99688 26.9881 6.88983 27.0986 6.69826C27.2635 6.4127 27.1657 6.04756 26.8801 5.88269L25.2124 4.91981C24.927 4.75485 24.5617 4.8526 24.3969 5.13833C24.232 5.42389 24.3298 5.78904 24.6154 5.95391ZM3.09185 17.4952L2.26843 15.9465C2.24506 15.9024 2.2222 15.8833 2.17469 15.8678L2.02867 15.8204L0.418245 19.8233L2.44098 19.4344L3.7278 21.0427L4.69733 18.1515C4.56223 18.1942 4.42456 18.2159 4.28843 18.2159C3.80047 18.2159 3.33443 17.9512 3.09185 17.4952ZM20.806 22.1985C19.9882 22.1991 19.1975 22.3175 18.4496 22.537L20.8126 23.9888L23.1756 22.537C22.4278 22.3175 21.6371 22.1991 20.8193 22.1985C20.8171 22.1985 20.8149 22.1986 20.8127 22.1986C20.8105 22.1986 20.8082 22.1985 20.8059 22.1985H20.806ZM6.48585 10.1893C6.37463 10.4306 6.14672 10.5963 5.88265 10.6275C6.07772 10.808 6.1648 11.0759 6.11303 11.3364C6.22886 11.2715 6.35731 11.239 6.48568 11.239C6.61405 11.239 6.74258 11.2715 6.85858 11.3365C6.80689 11.0757 6.89389 10.808 7.08887 10.6275C6.82498 10.5963 6.59724 10.4307 6.48585 10.1893ZM9.91439 10.6317C9.91439 12.5222 8.37638 14.0603 6.48585 14.0603C4.59532 14.0603 3.05731 12.5222 3.05731 10.6317C3.05731 8.74113 4.59532 7.20311 6.48585 7.20311C8.37638 7.20311 9.91439 8.74113 9.91439 10.6317ZM9.12679 9.96517C9.02376 9.64873 8.73145 9.43652 8.39915 9.43652H8.39736L7.49231 9.43832L7.21425 8.57702C7.1119 8.25982 6.81918 8.04667 6.48585 8.04667C6.15252 8.04667 5.85997 8.25965 5.75736 8.57694L5.47939 9.43832L4.57451 9.43652H4.57272C4.24007 9.43652 3.94769 9.6489 3.84491 9.96534C3.74187 10.2825 3.85404 10.6268 4.12407 10.8221L4.85734 11.3527L4.57613 12.2127C4.47241 12.5293 4.58372 12.8738 4.85384 13.0704C4.98844 13.1681 5.14597 13.2169 5.30351 13.2169C5.46105 13.2169 5.61978 13.1677 5.75454 13.0693L6.48576 12.5359L7.2169 13.0693C7.48609 13.2658 7.84816 13.2662 8.11811 13.0701C8.38781 12.874 8.4992 12.5295 8.39557 12.2131L8.11419 11.3528L8.84754 10.8221C9.11741 10.6268 9.22957 10.2826 9.12662 9.96526L9.12679 9.96517ZM30.8554 10.288C30.605 10.288 30.4014 10.4917 30.4014 10.7419C30.4014 10.9922 30.6051 11.1959 30.8554 11.1959H31.3093V10.7419C31.3093 10.4916 31.1056 10.288 30.8554 10.288ZM32.629 5.38031C30.0428 5.38031 27.9384 7.48467 27.9381 10.0713C27.9379 11.11 28.2707 11.7921 28.692 12.6556C29.1394 13.5726 29.6735 14.6684 29.9716 16.4731H31.3093V12.3901H30.8554C29.9467 12.3901 29.2073 11.6507 29.2073 10.742C29.2073 9.83331 29.9467 9.09399 30.8554 9.09399C31.7641 9.09399 32.5034 9.83331 32.5034 10.742V11.196H32.7544V10.742C32.7544 9.83331 33.4938 9.09399 34.4025 9.09399C35.3112 9.09399 36.0505 9.83331 36.0505 10.742C36.0505 11.6507 35.3112 12.3901 34.4025 12.3901H33.9485V16.4731H35.2863C35.5844 14.6685 36.1184 13.5726 36.5659 12.6556C36.9872 11.7921 37.32 11.11 37.3199 10.0713C37.3195 7.48467 35.2151 5.38031 32.629 5.38031ZM32.5034 12.3901V16.4731H32.7544V12.3901H32.5034ZM34.8564 10.742C34.8564 10.4917 34.6527 10.2881 34.4025 10.2881C34.1522 10.2881 33.9485 10.4918 33.9485 10.742V11.196H34.4025C34.6528 11.196 34.8564 10.9923 34.8564 10.742ZM40.8606 5.1385C40.6957 4.85286 40.3306 4.75511 40.0451 4.91998L38.3774 5.88286C38.0918 6.04773 37.994 6.41287 38.1589 6.69843C38.2695 6.89 38.4701 6.99705 38.6764 6.99705C38.7778 6.99705 38.8805 6.9712 38.9745 6.91696L40.6421 5.95408C40.9277 5.78921 41.0255 5.42407 40.8606 5.1385ZM37.3815 1.6593C37.096 1.4946 36.7308 1.59234 36.5659 1.87782L35.6031 3.54556C35.4382 3.83112 35.536 4.19627 35.8216 4.36114C35.9157 4.41539 36.0183 4.44114 36.1196 4.44114C36.3259 4.44114 36.5266 4.33401 36.6372 4.14253L37.6 2.47479C37.7649 2.18923 37.6671 1.82417 37.3815 1.6593ZM16.3033 23.5143L18.2044 26.038L19.7822 24.757L17.0603 23.0847C16.8 23.2152 16.5473 23.3584 16.3034 23.5143H16.3033ZM25.3219 23.5143C25.0779 23.3585 24.8251 23.2153 24.565 23.0848L21.8431 24.7571L23.4209 26.038L25.322 23.5144L25.3219 23.5143ZM21.1117 26.4098L21.5027 26.0188L20.8126 25.4585L20.1224 26.0188L20.5135 26.4098C20.664 26.5604 20.723 26.7797 20.6683 26.9854L19.8665 30H21.7587L20.9569 26.9854C20.9021 26.7797 20.9612 26.5604 21.1117 26.4098ZM26.2801 24.2268L24.002 27.2509C23.9045 27.3804 23.7585 27.4647 23.5976 27.4843C23.5734 27.4872 23.5492 27.4887 23.5252 27.4887C23.3889 27.4887 23.2558 27.442 23.1489 27.3552L22.4347 26.7754L22.1993 27.0108L22.9942 29.9999H29.1904C29.0279 27.6965 27.9321 25.6467 26.2801 24.2268ZM30.8214 19.4444C30.8214 19.627 30.9268 19.7812 31.0515 19.7812H34.2063C34.331 19.7812 34.4363 19.627 34.4363 19.4444V19.1074H30.8214V19.4444ZM31.5184 21.0819C31.5184 21.2736 31.6238 21.4355 31.7485 21.4355H33.5093C33.634 21.4355 33.7393 21.2736 33.7393 21.0819V20.728H31.5185V21.0819H31.5184ZM30.1505 17.9751C30.1523 18.0167 30.1572 18.1272 30.2871 18.1272H34.9705C35.1004 18.1272 35.1053 18.0167 35.1072 17.9751C35.1158 17.7792 35.1258 17.5891 35.1364 17.4016H30.1213C30.132 17.5891 30.1419 17.7792 30.1506 17.9751H30.1505Z" fill="white"/>
</svg>
