<svg width="29" height="30" viewBox="0 0 29 30" fill="none" xmlns="http://www.w3.org/2000/svg">
<path d="M4.80003 19.2C4.95856 19.2002 5.11556 19.1689 5.26191 19.108C5.40826 19.047 5.54105 18.9576 5.65257 18.8449L12.4371 12H16.8C17.1183 11.9999 17.4234 11.8734 17.6484 11.6484L25.2 4.09687V6C25.2 6.31826 25.3265 6.62348 25.5515 6.84853C25.7765 7.07357 26.0818 7.2 26.4 7.2C26.7183 7.2 27.0235 7.07357 27.2486 6.84853C27.4736 6.62348 27.6 6.31826 27.6 6V1.2C27.6 0.88174 27.4736 0.576515 27.2486 0.351472C27.0235 0.126428 26.7183 0 26.4 0H21.6C21.2818 0 20.9765 0.126428 20.7515 0.351472C20.5265 0.576515 20.4 0.88174 20.4 1.2C20.4 1.51826 20.5265 1.82348 20.7515 2.04853C20.9765 2.27357 21.2818 2.4 21.6 2.4H23.5032L16.3032 9.6H11.9368C11.7782 9.60001 11.6213 9.63139 11.475 9.69233C11.3287 9.75328 11.1959 9.84257 11.0842 9.95508L3.94749 17.1551C3.78066 17.3233 3.66737 17.5372 3.62191 17.7697C3.57644 18.0023 3.60084 18.2431 3.69201 18.4618C3.78319 18.6805 3.93706 18.8673 4.13425 18.9986C4.33143 19.13 4.56309 19.2001 4.80003 19.2Z" fill="white"/>
<path d="M27.6 27.6V12C27.6 11.6818 27.4736 11.3766 27.2485 11.1515C27.0235 10.9265 26.7183 10.8 26.4 10.8H21.6C21.2817 10.8 20.9765 10.9265 20.7515 11.1515C20.5264 11.3766 20.4 11.6818 20.4 12V27.6H18V16.8C18 16.4818 17.8736 16.1766 17.6485 15.9515C17.4235 15.7265 17.1183 15.6 16.8 15.6H12C11.6817 15.6 11.3765 15.7265 11.1515 15.9515C10.9264 16.1766 10.8 16.4818 10.8 16.8V27.6H8.4V22.8C8.4 22.4818 8.27357 22.1766 8.04853 21.9515C7.82348 21.7265 7.51826 21.6 7.2 21.6H2.4C2.08174 21.6 1.77652 21.7265 1.55147 21.9515C1.32643 22.1766 1.2 22.4818 1.2 22.8V27.6C0.88174 27.6 0.576516 27.7265 0.351472 27.9515C0.126428 28.1766 0 28.4818 0 28.8C0 29.1183 0.126428 29.4235 0.351472 29.6486C0.576516 29.8736 0.88174 30 1.2 30H27.6C27.9183 30 28.2235 29.8736 28.4485 29.6486C28.6736 29.4235 28.8 29.1183 28.8 28.8C28.8 28.4818 28.6736 28.1766 28.4485 27.9515C28.2235 27.7265 27.9183 27.6 27.6 27.6Z" fill="white"/>
</svg>
