<svg width="31" height="30" viewBox="0 0 31 30" fill="none" xmlns="http://www.w3.org/2000/svg">
<path d="M0 15.6201H3.12402V23.9508H0V15.6201Z" fill="white"/>
<path d="M12.4961 14.0581H16.6615C16.7174 14.0581 16.7729 14.067 16.826 14.0847L21.4318 15.6201H23.9508V0H10.4134V3.64469C10.4134 3.78278 10.3586 3.91522 10.2609 4.01286C10.1633 4.11051 10.0308 4.16537 9.89274 4.16537H6.24805V16.1408H10.4134C10.4134 15.5884 10.6328 15.0587 11.0234 14.6681C11.414 14.2775 11.9437 14.0581 12.4961 14.0581ZM15.0994 2.08268C16.0263 2.08268 16.9323 2.35751 17.7029 2.87242C18.4735 3.38733 19.0741 4.11919 19.4288 4.97545C19.7835 5.83171 19.8763 6.77392 19.6954 7.68292C19.5146 8.59192 19.0683 9.42689 18.413 10.0822C17.7576 10.7376 16.9227 11.1839 16.0136 11.3647C15.1046 11.5455 14.1624 11.4527 13.3062 11.0981C12.4499 10.7434 11.7181 10.1428 11.2032 9.37214C10.6882 8.60153 10.4134 7.69553 10.4134 6.76872C10.4148 5.52633 10.9089 4.33522 11.7874 3.45671C12.6659 2.57821 13.8571 2.08406 15.0994 2.08268Z" fill="white"/>
<path d="M15.0998 10.4134C15.8206 10.4134 16.5253 10.1997 17.1247 9.79917C17.724 9.39869 18.1912 8.82946 18.467 8.16348C18.7429 7.4975 18.8151 6.76468 18.6744 6.05768C18.5338 5.35067 18.1867 4.70125 17.677 4.19153C17.1672 3.68181 16.5178 3.33469 15.8108 3.19406C15.1038 3.05343 14.371 3.1256 13.705 3.40146C13.039 3.67732 12.4698 4.14447 12.0693 4.74384C11.6688 5.3432 11.4551 6.04787 11.4551 6.76872C11.4562 7.73501 11.8405 8.66142 12.5238 9.34469C13.2071 10.028 14.1335 10.4123 15.0998 10.4134ZM13.3852 6.92128L14.0584 7.5945L16.8143 4.83859L17.5506 5.57482L14.4265 8.69885C14.3289 8.79646 14.1965 8.85129 14.0584 8.85129C13.9204 8.85129 13.788 8.79646 13.6903 8.69885L12.649 7.65751L13.3852 6.92128Z" fill="white"/>
<path d="M6.98438 25.3987L7.9169 26.0647L8.71977 24.9942L7.79766 24.3147L6.98438 25.3987Z" fill="white"/>
<path d="M9.37217 0.736328L6.98438 3.12412H9.37217V0.736328Z" fill="white"/>
<path d="M21.1833 16.6348L16.5774 15.0994H12.4964C12.2202 15.0994 11.9554 15.2091 11.7601 15.4044C11.5648 15.5997 11.4551 15.8645 11.4551 16.1407H15.6204C15.7348 16.1405 15.8459 16.1783 15.9365 16.248L24.6484 22.9094H26.0339V16.6614H21.3478C21.2919 16.6614 21.2364 16.6525 21.1833 16.6348Z" fill="white"/>
<path d="M10.9347 17.1821H4.16602V22.3888H6.76937C6.88078 22.3896 6.989 22.4261 7.07813 22.493L15.7249 28.8608C15.946 29.0238 16.2226 29.0928 16.4944 29.0529C16.7662 29.0129 17.0112 28.8671 17.176 28.6473L17.4645 28.263C17.3617 28.2075 17.2636 28.1436 17.1713 28.072L13.7401 25.4035L14.3795 24.5809L17.8107 27.2498C17.9199 27.3347 18.0448 27.3971 18.1783 27.4332C18.3118 27.4693 18.4511 27.4785 18.5882 27.4602C18.7253 27.4418 18.8573 27.3964 18.9766 27.3265C19.096 27.2566 19.2002 27.1636 19.2832 27.053L19.555 26.7047C19.4493 26.6484 19.3486 26.5833 19.254 26.5099L15.8228 23.8415L16.4622 23.0188L19.8934 25.6878C20.0025 25.7727 20.1275 25.8351 20.261 25.8712C20.3945 25.9073 20.5338 25.9165 20.6709 25.8981C20.808 25.8798 20.94 25.8344 21.0593 25.7645C21.1787 25.6946 21.2829 25.6016 21.3659 25.491L21.6382 25.1427C21.5322 25.0866 21.4313 25.0215 21.3367 24.9479L17.9055 22.2795L18.5449 21.4568L21.9761 24.1258C22.0852 24.2107 22.2102 24.2731 22.3437 24.3092C22.4772 24.3453 22.6165 24.3545 22.7536 24.3361C22.8906 24.3178 23.0227 24.2724 23.142 24.2025C23.2613 24.1326 23.3655 24.0396 23.4485 23.929L23.7469 23.5301L15.4443 17.1821H10.9347Z" fill="white"/>
<path d="M27.0742 15.0994H30.1982V24.4714H27.0742V15.0994Z" fill="white"/>
<path d="M8.76367 26.6703L9.78054 27.3967L10.5636 26.3533L9.55717 25.6118L8.76367 26.6703Z" fill="white"/>
<path d="M10.6289 28.0022L11.5614 28.6681L12.3247 27.6502L11.4026 26.9707L10.6289 28.0022Z" fill="white"/>
<path d="M12.4082 29.2737L13.4251 30.0001L14.1681 29.0092L13.1621 28.2683L12.4082 29.2737Z" fill="white"/>
</svg>
