<svg width="30" height="30" viewBox="0 0 30 30" fill="none" xmlns="http://www.w3.org/2000/svg">
<g clip-path="url(#clip0_1553_12644)">
<path d="M6.15039 5.0105H14.0013C14.244 5.0105 14.4407 4.81374 14.4407 4.57104C14.4407 4.32835 14.244 4.13159 14.0013 4.13159H6.15039C5.90764 4.13159 5.71094 4.32835 5.71094 4.57104C5.71094 4.81374 5.90764 5.0105 6.15039 5.0105Z" fill="white"/>
<path d="M8.29102 7.94067C8.29102 8.18337 8.48771 8.38013 8.73047 8.38013H16.5615C16.8043 8.38013 17.001 8.18337 17.001 7.94067C17.001 7.69798 16.8043 7.50122 16.5615 7.50122H8.73047C8.48771 7.50122 8.29102 7.69798 8.29102 7.94067Z" fill="white"/>
<path d="M3.58789 8.38013H7.22978C7.47254 8.38013 7.66924 8.18337 7.66924 7.94067C7.66924 7.69798 7.47254 7.50122 7.22978 7.50122H3.58789C3.34514 7.50122 3.14844 7.69798 3.14844 7.94067C3.14844 8.18337 3.3452 8.38013 3.58789 8.38013Z" fill="white"/>
<path d="M3.58789 10.5146H11.8631C12.1059 10.5146 12.3026 10.3179 12.3026 10.0752C12.3026 9.8325 12.1059 9.63574 11.8631 9.63574H3.58789C3.34514 9.63574 3.14844 9.8325 3.14844 10.0752C3.14844 10.3179 3.3452 10.5146 3.58789 10.5146Z" fill="white"/>
<path d="M3.58789 21.8887H8.86127C9.10402 21.8887 9.30072 21.6919 9.30072 21.4492C9.30072 21.2065 9.10402 21.0098 8.86127 21.0098H3.58789C3.34514 21.0098 3.14844 21.2065 3.14844 21.4492C3.14844 21.6919 3.3452 21.8887 3.58789 21.8887Z" fill="white"/>
<path d="M29.7761 26.7181L28.6581 25.6002C28.4865 25.4285 28.2083 25.4286 28.0366 25.6002C27.865 25.7718 27.865 26.0501 28.0367 26.2216L29.0746 27.2596L27.7013 28.6329L23.823 24.7544L25.1963 23.3811L26.5867 24.7715C26.7584 24.9431 27.0366 24.9431 27.2082 24.7715C27.3798 24.5999 27.3798 24.3216 27.2082 24.15L25.7378 22.6797C25.5074 22.4494 25.166 22.3975 24.8847 22.5225L23.6634 21.3012C25.2465 18.984 25.351 15.9537 23.9777 13.5419C24.0698 13.5079 24.1675 13.4744 24.2719 13.4406C24.525 13.3589 24.695 13.125 24.695 12.8587C24.695 12.5924 24.5249 12.3586 24.2719 12.2768C23.1003 11.8985 22.744 11.5422 22.3657 10.3705C22.2891 10.1333 22.0787 9.96912 21.8333 9.94949V2.89041C21.8333 2.46818 21.4898 2.12465 21.0676 2.12465H20.1506V1.20766C20.1506 0.78543 19.8071 0.441895 19.3849 0.441895H0.765703C0.343477 0.441895 0 0.78543 0 1.20766V26.4C0 26.8222 0.343477 27.1657 0.765703 27.1657H1.6827V28.0827C1.6827 28.505 2.02617 28.8484 2.4484 28.8484H6.50391C6.74666 28.8484 6.94336 28.6517 6.94336 28.409C6.94336 28.1663 6.74666 27.9695 6.50391 27.9695H2.56166V27.1657H19.3848C19.807 27.1657 20.1505 26.8222 20.1505 26.4V24.0416C20.4238 23.941 20.6923 23.8239 20.9544 23.6898V27.9695H8.55469C8.31193 27.9695 8.11523 28.1663 8.11523 28.409C8.11523 28.6517 8.31193 28.8484 8.55469 28.8484H21.0676C21.4898 28.8484 21.8333 28.505 21.8333 28.0827V23.312L22.9642 24.4429C22.8393 24.7242 22.8911 25.0656 23.1214 25.296L27.1598 29.3344C27.3091 29.4837 27.5052 29.5583 27.7013 29.5583C27.8974 29.5583 28.0935 29.4837 28.2428 29.3344L29.7761 27.801C30.0746 27.5025 30.0746 27.0166 29.7761 26.7181ZM23.3307 12.8587C22.5734 13.2017 22.1266 13.6485 21.7838 14.4057C21.4409 13.6484 20.9941 13.2017 20.2369 12.8587C20.9942 12.5158 21.4409 12.0691 21.7838 11.3118C22.1266 12.0691 22.5734 12.5158 23.3307 12.8587ZM19.2957 13.4406C20.4672 13.819 20.8235 14.1753 21.2019 15.3468C21.2835 15.5998 21.5173 15.7698 21.7836 15.7699H21.7838C21.9034 15.7699 22.0163 15.7353 22.1121 15.6746C22.6571 17.324 22.2763 19.2149 20.9665 20.5247C19.1165 22.3747 16.1062 22.3747 14.2563 20.5247C12.4063 18.6747 12.4063 15.6645 14.2563 13.8145C15.1524 12.9183 16.344 12.4248 17.6113 12.4248C18.0625 12.4248 18.5037 12.4881 18.9257 12.6095C18.8916 12.6861 18.8726 12.7705 18.8726 12.8587C18.8726 13.125 19.0426 13.3589 19.2957 13.4406ZM19.2716 26.2868H0.878906V1.3208H19.2716V5.3323C19.2716 5.575 19.4683 5.77176 19.7111 5.77176C19.9538 5.77176 20.1505 5.575 20.1505 5.3323V3.00355H20.9544V10.6461C20.6936 10.5121 20.4253 10.3938 20.1505 10.2924V7.38309C20.1505 7.14039 19.9538 6.94363 19.7111 6.94363C19.4683 6.94363 19.2716 7.14039 19.2716 7.38309V10.0306C18.7334 9.90643 18.1774 9.84156 17.6113 9.84156C17.3896 9.84156 17.1695 9.85188 16.9513 9.87121C16.8778 9.73135 16.7313 9.63584 16.5623 9.63584H13.4299C13.1871 9.63584 12.9904 9.8326 12.9904 10.0753C12.9904 10.318 13.1871 10.5147 13.4299 10.5147H14.5352C13.8549 10.8297 13.222 11.251 12.6571 11.7704H3.58828C3.34553 11.7704 3.14883 11.9672 3.14883 12.2099C3.14883 12.4526 3.34553 12.6493 3.58828 12.6493H11.8435C11.3699 13.2527 11.0044 13.9135 10.747 14.6061H3.58828C3.34553 14.6061 3.14883 14.8028 3.14883 15.0455C3.14883 15.2882 3.34553 15.485 3.58828 15.485H10.4819C10.3849 15.8984 10.3242 16.3186 10.2997 16.7406H3.58828C3.34553 16.7406 3.14883 16.9374 3.14883 17.1801C3.14883 17.4228 3.34553 17.6195 3.58828 17.6195H10.3009C10.3266 18.0416 10.3884 18.4619 10.4867 18.8752H3.58828C3.34553 18.8752 3.14883 19.072 3.14883 19.3146C3.14883 19.5573 3.34553 19.7541 3.58828 19.7541H10.7545C10.917 20.1873 11.1222 20.6079 11.3695 21.0098H10.3627C10.1199 21.0098 9.9232 21.2065 9.9232 21.4492C9.9232 21.6919 10.1199 21.8887 10.3627 21.8887H12.0052C12.139 22.0474 12.2801 22.202 12.4296 22.3514C12.7246 22.6463 13.0388 22.9103 13.368 23.1443H3.58828C3.34553 23.1443 3.14883 23.3411 3.14883 23.5838C3.14883 23.8265 3.34553 24.0232 3.58828 24.0232H15.018C15.8517 24.3373 16.7316 24.4943 17.6113 24.4943C18.1687 24.4943 18.726 24.4305 19.2716 24.3044V26.2868ZM13.0511 21.7299C10.5366 19.2153 10.5366 15.1239 13.0511 12.6094C14.2692 11.3913 15.8887 10.7204 17.6113 10.7204C18.6954 10.7204 19.7387 10.9863 20.6667 11.4869C20.4779 11.7195 20.2434 11.8897 19.9212 12.0392C19.2045 11.7161 18.421 11.5459 17.6113 11.5459C16.1092 11.5459 14.697 12.1309 13.6348 13.1931C11.4421 15.3858 11.4421 18.9535 13.6348 21.1462C14.7311 22.2426 16.1712 22.7907 17.6113 22.7907C19.0515 22.7907 20.4916 22.2426 21.588 21.1462C23.3426 19.3915 23.6911 16.757 22.6372 14.6506C22.787 14.3472 22.9596 14.1249 23.1947 13.9445C24.6182 16.4103 24.2783 19.6231 22.1716 21.7299C19.6571 24.2444 15.5656 24.2444 13.0511 21.7299ZM22.443 22.6788C22.5623 22.574 22.6792 22.4652 22.7931 22.3514C22.907 22.2375 23.0147 22.1198 23.1196 22.0004L24.2268 23.1076L23.5493 23.7851L22.443 22.6788Z" fill="white"/>
<path d="M15.0859 14.8967C15.0859 15.1394 15.2826 15.3362 15.5254 15.3362H19.6897C19.9325 15.3362 20.1292 15.1394 20.1292 14.8967C20.1292 14.654 19.9325 14.4573 19.6897 14.4573H15.5254C15.2827 14.4573 15.0859 14.654 15.0859 14.8967Z" fill="white"/>
<path d="M14.5254 16.5334C14.5254 16.7761 14.7221 16.9729 14.9648 16.9729H20.2479C20.4907 16.9729 20.6874 16.7761 20.6874 16.5334C20.6874 16.2908 20.4907 16.094 20.2479 16.094H14.9648C14.7221 16.094 14.5254 16.2908 14.5254 16.5334Z" fill="white"/>
<path d="M20.2479 17.7307H14.9648C14.7221 17.7307 14.5254 17.9275 14.5254 18.1702C14.5254 18.4129 14.7221 18.6096 14.9648 18.6096H20.2479C20.4907 18.6096 20.6874 18.4129 20.6874 18.1702C20.6874 17.9275 20.4906 17.7307 20.2479 17.7307Z" fill="white"/>
<path d="M18.9441 19.3674H16.2715C16.0287 19.3674 15.832 19.5642 15.832 19.8069C15.832 20.0496 16.0287 20.2463 16.2715 20.2463H18.9441C19.1868 20.2463 19.3835 20.0496 19.3835 19.8069C19.3835 19.5642 19.1868 19.3674 18.9441 19.3674Z" fill="white"/>
<path d="M23.9043 10.3288H24.3132V10.7377C24.3132 10.9804 24.5099 11.1772 24.7527 11.1772C24.9954 11.1772 25.1921 10.9804 25.1921 10.7377V10.3288H25.6011C25.8438 10.3288 26.0405 10.132 26.0405 9.88934C26.0405 9.64664 25.8438 9.44988 25.6011 9.44988H25.1921V9.04102C25.1921 8.79832 24.9954 8.60156 24.7527 8.60156C24.5099 8.60156 24.3132 8.79832 24.3132 9.04102V9.44994H23.9043C23.6615 9.44994 23.4648 9.6467 23.4648 9.88939C23.4648 10.1321 23.6615 10.3288 23.9043 10.3288Z" fill="white"/>
</g>
<defs>
<clipPath id="clip0_1553_12644">
<rect width="30" height="30" fill="white"/>
</clipPath>
</defs>
</svg>
