<svg width="30" height="30" viewBox="0 0 30 30" fill="none" xmlns="http://www.w3.org/2000/svg">
<g clip-path="url(#clip0_1553_12660)">
<path d="M29.9938 29.0171C29.79 27.3051 28.5877 25.8957 26.7774 25.247L19.1848 22.5259V19.4837C19.6902 19.0721 20.1352 18.5879 20.5042 18.0468H23.6714C24.1568 18.0468 24.5503 17.6533 24.5503 17.1679V14.5287C24.5503 14.5189 24.5491 14.5095 24.5488 14.4999C24.951 14.037 25.1952 13.4333 25.1952 12.7734V11.0156C25.1952 10.2762 24.889 9.60752 24.3972 9.12828C24.3046 6.74195 23.3367 4.50549 21.6469 2.79556C19.8653 0.992809 17.5047 0 15 0C12.4953 0 10.1347 0.992692 8.35324 2.79532C6.66335 4.50514 5.69544 6.74165 5.60281 9.12828C5.11103 9.60752 4.80476 10.2763 4.80476 11.0156V12.7734C4.80476 14.2273 5.98759 15.4101 7.44147 15.4101H8.42309C8.71043 17.0466 9.58377 18.4809 10.8152 19.4837V22.5259L3.22262 25.247C1.41231 25.8957 0.209916 27.3051 0.00624481 29.0171C-0.0511182 29.4991 0.293119 29.9363 0.775109 29.9937C0.810382 29.9979 0.845363 29.9999 0.88005 29.9999C1.31903 29.9999 1.69854 29.6715 1.75169 29.2248C1.87497 28.1891 2.64647 27.3206 3.81559 26.9016L7.36963 25.6279L10.2673 28.6192C10.4379 28.7954 10.6673 28.8865 10.8988 28.8865C11.0664 28.8865 11.2352 28.8387 11.3835 28.7407L14.8336 26.4583L18.2838 28.7407C18.432 28.8387 18.6007 28.8865 18.7684 28.8865C18.9999 28.8865 19.2293 28.7953 19.4 28.6192L22.3834 25.5394L26.1845 26.9017C27.3536 27.3207 28.1252 28.1892 28.2484 29.2248C28.3016 29.6716 28.681 29.9999 29.1201 29.9999C29.1547 29.9999 29.1897 29.9979 29.225 29.9937C29.7069 29.9364 30.0511 29.4991 29.9938 29.0171ZM22.7925 16.289H21.3607C21.4515 16.0037 21.5242 15.7104 21.577 15.4101H22.5585C22.6375 15.4101 22.7153 15.4059 22.7925 15.3991V16.289ZM23.4374 11.0156V12.7734C23.4374 13.258 23.0432 13.6523 22.5585 13.6523H21.6796V10.1367H22.5585C23.0432 10.1367 23.4374 10.5309 23.4374 11.0156ZM8.32031 13.6523H7.44141C6.95678 13.6523 6.56251 13.258 6.56251 12.7734V11.0156C6.56251 10.531 6.95678 10.1367 7.44141 10.1367H8.32031V13.6523ZM7.44141 8.37887C7.43883 8.37887 7.43631 8.37905 7.43368 8.37905C7.97397 4.63891 11.1609 1.75781 15 1.75781C18.839 1.75781 22.026 4.63891 22.5663 8.37905C22.5637 8.37905 22.5612 8.37887 22.5585 8.37887H21.4169C20.6105 5.5675 18.0392 3.50618 15 3.50618C11.9608 3.50618 9.38941 5.5675 8.58305 8.37887H7.44141ZM19.7618 8.99129C19.4492 9.0541 19.1278 9.08627 18.8028 9.08627C17.5331 9.08627 16.333 8.58887 15.6705 7.78825C15.3611 7.41419 14.807 7.36181 14.4331 7.67136C14.3615 7.73059 14.3019 7.79891 14.2541 7.87309C13.5794 8.62256 12.4173 9.08627 11.1973 9.08627C10.8722 9.08627 10.5508 9.0541 10.2383 8.99129C10.7914 6.84923 12.7164 5.26398 15 5.26398C17.2835 5.26398 19.2086 6.84923 19.7618 8.99129ZM10.0781 14.2282V10.7489C10.4454 10.8117 10.8199 10.8441 11.1973 10.8441C12.6361 10.8441 13.9991 10.3818 15 9.57922C16 10.3823 17.3599 10.8441 18.8028 10.8441C19.1802 10.8441 19.5546 10.8117 19.9219 10.7489V14.2282C19.9219 14.9629 19.7632 15.6603 19.4809 16.289H15.5567C15.0713 16.289 14.6778 16.6825 14.6778 17.1679C14.6778 17.6533 15.0713 18.0468 15.5567 18.0468H18.1641C17.3079 18.7774 16.204 19.2187 15 19.2187C12.2861 19.2187 10.0781 16.98 10.0781 14.2282ZM11.0221 26.8721L9.18621 24.977L11.7827 24.0464L13.2732 25.3829L11.0221 26.8721ZM12.5729 22.3941V20.5153C13.3255 20.8129 14.1442 20.9765 15 20.9765C15.8557 20.9765 16.6743 20.8129 17.427 20.5153V22.0991C17.4134 22.11 17.3994 22.1203 17.3863 22.1321L14.8335 24.4211L12.5729 22.3941ZM18.645 26.8721L16.3939 25.3829L17.9805 23.9602C17.9902 23.9641 17.9996 23.9684 18.0094 23.9719L20.5667 24.8884L18.645 26.8721Z" fill="white"/>
</g>
<defs>
<clipPath id="clip0_1553_12660">
<rect width="30" height="30" fill="white"/>
</clipPath>
</defs>
</svg>
