<svg width="30" height="30" viewBox="0 0 30 30" fill="none" xmlns="http://www.w3.org/2000/svg">
<path d="M3.97554 28.7784C4.22199 28.7784 4.42178 28.5768 4.42178 28.3281C4.42178 28.0793 4.22199 27.8777 3.97554 27.8777C3.72908 27.8777 3.5293 28.0793 3.5293 28.3281C3.5293 28.5768 3.72908 28.7784 3.97554 28.7784Z" fill="white"/>
<path d="M22.8745 20.1692L26.4898 18.2007C26.0906 17.8353 25.4874 17.6452 25.0055 17.8886L22.2207 19.4031C22.4206 19.6648 22.5796 19.9559 22.6919 20.2663L22.8745 20.1692Z" fill="white"/>
<path d="M1.37858 30H7.07453L3.62792 18.5906H0L1.37858 30ZM3.97956 26.9766C4.24433 26.9766 4.50316 27.0558 4.72331 27.2043C4.94346 27.3527 5.11505 27.5638 5.21637 27.8106C5.3177 28.0575 5.34421 28.3292 5.29256 28.5913C5.2409 28.8534 5.1134 29.0941 4.92618 29.2831C4.73895 29.472 4.50042 29.6007 4.24073 29.6529C3.98105 29.705 3.71187 29.6782 3.46726 29.576C3.22264 29.4737 3.01356 29.3005 2.86646 29.0783C2.71936 28.8561 2.64084 28.5949 2.64084 28.3277C2.64124 27.9695 2.78241 27.6261 3.03338 27.3728C3.28435 27.1195 3.62463 26.977 3.97956 26.9766Z" fill="white"/>
<path d="M21.2739 17.7796C21.2703 17.7817 21.2664 17.7836 21.2632 17.7856L20.4492 18.2323C20.8461 18.3309 21.2204 18.5055 21.5519 18.7467L23.3439 17.772C23.0282 17.5909 22.671 17.4963 22.3079 17.4976C21.9447 17.4989 21.5883 17.5961 21.2739 17.7796Z" fill="white"/>
<path d="M27.8721 18.4709L23.293 20.9642L22.8772 21.1855C22.8806 21.2464 22.8827 21.3077 22.8827 21.3694C22.8827 21.4889 22.8356 21.6034 22.752 21.6879C22.6683 21.7724 22.5548 21.8198 22.4364 21.8198C22.4296 21.8198 22.423 21.8198 22.4162 21.8194L19.2553 21.6751C18.3313 21.633 17.4054 21.6761 16.4892 21.8039C16.4308 21.8127 16.3713 21.8097 16.3141 21.7952C16.2569 21.7806 16.2031 21.7547 16.1558 21.7191C16.1086 21.6834 16.0688 21.6386 16.0388 21.5873C16.0089 21.536 15.9893 21.4792 15.9812 21.4202C15.9731 21.3612 15.9767 21.3012 15.9917 21.2436C16.0068 21.186 16.033 21.132 16.0688 21.0847C16.1047 21.0374 16.1495 20.9978 16.2007 20.9681C16.2518 20.9384 16.3083 20.9192 16.3668 20.9117C17.337 20.7765 18.3173 20.7308 19.2956 20.7752L21.9425 20.8967C21.8339 20.3723 21.5499 19.9015 21.1381 19.5635C20.7263 19.2255 20.2118 19.0407 19.681 19.0402H15.9746C15.2431 19.039 14.5212 18.8718 13.8624 18.551L13.4806 18.3646C12.5377 17.9016 11.4865 17.7101 10.4427 17.8112C9.39893 17.9124 8.40304 18.3023 7.56468 18.9379L6.65591 19.7545C6.22217 20.1439 5.71081 20.435 5.15625 20.6082L6.95608 26.5669L9.47785 24.9578C9.48462 24.9536 9.49154 24.9494 9.49853 24.9455C10.0541 24.6308 10.7075 24.5414 11.3261 24.6952L16.8824 25.7278C18.2034 25.9661 19.5653 25.7754 20.7721 25.183L29.9944 18.7924C29.723 18.5138 29.3693 18.3318 28.9865 18.2738C28.6037 18.2158 28.2126 18.285 27.8721 18.4709Z" fill="white"/>
<path d="M15.0835 3.51733C14.2469 3.51733 13.4291 3.76772 12.7334 4.23682C12.0378 4.70592 11.4957 5.37267 11.1755 6.15275C10.8553 6.93284 10.7716 7.79122 10.9348 8.61936C11.098 9.44749 11.5009 10.2082 12.0924 10.8052C12.684 11.4023 13.4377 11.8089 14.2583 11.9736C15.0788 12.1383 15.9293 12.0538 16.7022 11.7307C17.4752 11.4075 18.1358 10.8604 18.6006 10.1583C19.0654 9.45624 19.3135 8.63085 19.3135 7.78649C19.3122 6.65463 18.8661 5.56949 18.0731 4.76914C17.2801 3.9688 16.205 3.51861 15.0835 3.51733ZM17.3221 6.88094L14.8301 9.33652C14.7467 9.41866 14.6349 9.46464 14.5184 9.46464C14.4019 9.46464 14.29 9.41866 14.2066 9.33652L12.8233 7.97354C12.7809 7.93233 12.7471 7.88307 12.7236 7.82859C12.7002 7.77411 12.6877 7.7155 12.6868 7.65612C12.6859 7.59674 12.6967 7.53776 12.7184 7.48259C12.7402 7.42742 12.7726 7.37715 12.8137 7.33466C12.8548 7.29216 12.9038 7.2583 12.9579 7.235C13.0121 7.21171 13.0702 7.19945 13.1291 7.19893C13.1879 7.19841 13.2463 7.20964 13.3008 7.23197C13.3553 7.2543 13.4049 7.2873 13.4468 7.32906L14.5184 8.38481L16.6987 6.23646C16.7405 6.1947 16.7901 6.1617 16.8446 6.13937C16.8991 6.11704 16.9575 6.10581 17.0163 6.10633C17.0752 6.10685 17.1333 6.11911 17.1875 6.1424C17.2416 6.16569 17.2906 6.19956 17.3317 6.24205C17.3728 6.28454 17.4052 6.33482 17.427 6.38999C17.4488 6.44516 17.4595 6.50413 17.4586 6.56351C17.4577 6.62289 17.4452 6.68151 17.4218 6.73598C17.3984 6.79046 17.3645 6.83972 17.3221 6.88094Z" fill="white"/>
<path d="M18.3876 2.62394C17.7652 2.21252 17.0742 1.91814 16.3479 1.75503C16.2566 1.73817 16.1732 1.69188 16.1101 1.6231C16.0471 1.55431 16.0079 1.46675 15.9984 1.37356L15.8653 0H14.2742L14.1415 1.37364C14.1322 1.46774 14.0932 1.55635 14.0303 1.62643C13.9674 1.6965 13.8838 1.74434 13.7919 1.76291C13.0668 1.92 12.377 2.21207 11.7578 2.62417C11.6777 2.67761 11.5827 2.70355 11.4868 2.69814C11.391 2.69273 11.2994 2.65626 11.2257 2.59414L10.1658 1.70774L9.04626 2.83734L9.92386 3.90645C9.98435 3.98017 10.02 4.07142 10.0256 4.16697C10.0313 4.26251 10.0066 4.35738 9.95517 4.43782C9.54755 5.06592 9.2559 5.76326 9.0943 6.49617C9.07424 6.58946 9.02533 6.6739 8.95463 6.73731C8.88393 6.80072 8.79509 6.83982 8.70094 6.84896L7.32422 6.9831V8.58942L8.70064 8.72326C8.79479 8.7324 8.88363 8.7715 8.95433 8.83491C9.02503 8.89832 9.07394 8.98276 9.094 9.07605C9.25105 9.80814 9.54177 10.5043 9.9513 11.129C10.0045 11.2096 10.0306 11.3054 10.0256 11.4022C10.0206 11.4989 9.98487 11.5915 9.92364 11.6661L9.04603 12.7354L10.1656 13.8653L11.2252 12.9796C11.2982 12.9185 11.3886 12.8826 11.4833 12.8769C11.578 12.8712 11.672 12.8961 11.7517 12.948C12.3741 13.3594 13.0651 13.6538 13.7914 13.8169C13.8842 13.8382 13.9679 13.8885 14.0307 13.9606C14.0934 14.0328 14.132 14.1231 14.141 14.2187L14.2742 15.6129H15.8654L15.998 14.219C16.007 14.1237 16.0457 14.0337 16.1085 13.962C16.1713 13.8902 16.255 13.8404 16.3475 13.8196C17.073 13.6606 17.7627 13.3669 18.3817 12.9532C18.4614 12.8994 18.5563 12.8729 18.6522 12.8778C18.748 12.8827 18.8398 12.9187 18.9137 12.9805L19.9733 13.8657L21.0929 12.7356L20.2153 11.6662C20.1548 11.5925 20.1191 11.5012 20.1135 11.4056C20.1079 11.3101 20.1326 11.2152 20.184 11.1347C20.5917 10.5066 20.8834 9.80912 21.045 9.07613C21.065 8.98291 21.1138 8.89853 21.1844 8.83513C21.255 8.77172 21.3437 8.73258 21.4378 8.72333L22.7938 8.58957V6.98325L21.4173 6.84941C21.3232 6.84025 21.2344 6.80115 21.1637 6.73774C21.093 6.67433 21.0441 6.5899 21.0241 6.49662C20.867 5.76454 20.5763 5.06836 20.1668 4.44367C20.1135 4.36306 20.0875 4.26726 20.0924 4.17051C20.0974 4.07376 20.1332 3.98121 20.1944 3.9066L21.0735 2.83532L19.9717 1.70849L18.9142 2.59234C18.8411 2.65341 18.7507 2.68939 18.656 2.69507C18.5613 2.70076 18.4673 2.67584 18.3876 2.62394ZM20.1922 7.78611C20.1922 8.80862 19.8918 9.80816 19.3289 10.6583C18.766 11.5085 17.966 12.1712 17.03 12.5625C16.094 12.9538 15.0641 13.0561 14.0704 12.8567C13.0767 12.6572 12.164 12.1648 11.4476 11.4418C10.7312 10.7188 10.2434 9.79757 10.0457 8.79471C9.84806 7.79184 9.9495 6.75235 10.3372 5.80768C10.7249 4.863 11.3815 4.05557 12.2239 3.4875C13.0662 2.91942 14.0566 2.61621 15.0697 2.61621C16.4278 2.61776 17.7299 3.16294 18.6902 4.13215C19.6505 5.10136 20.1907 6.41544 20.1922 7.78611Z" fill="white"/>
</svg>
