<svg width="34" height="40" viewBox="0 0 34 40" fill="none" xmlns="http://www.w3.org/2000/svg">
<path fill-rule="evenodd" clip-rule="evenodd" d="M11.1976 23.9764H10.1434C10.1197 23.9766 10.097 23.9861 10.0803 24.0028C10.0635 24.0196 10.0541 24.0423 10.0539 24.066L10.0522 24.6277C10.0521 24.7316 10.0166 24.8324 9.95156 24.9134C9.88648 24.9943 9.79572 25.0507 9.69427 25.0731C9.19506 25.1843 8.71834 25.3794 8.28441 25.6501C8.19622 25.7175 8.08655 25.7507 7.97577 25.7433C7.86499 25.736 7.76062 25.6888 7.68206 25.6103L7.28481 25.213C7.26775 25.1966 7.24504 25.1875 7.22143 25.1875C7.19782 25.1875 7.17512 25.1966 7.15805 25.213L6.41246 25.9586C6.39613 25.9756 6.38702 25.9983 6.38702 26.0219C6.38702 26.0456 6.39613 26.0683 6.41246 26.0853L6.80855 26.4839C6.88194 26.5573 6.9281 26.6536 6.93938 26.7568C6.95067 26.86 6.92642 26.964 6.87063 27.0516C6.59567 27.4831 6.39634 27.9584 6.2812 28.4569C6.26647 28.5669 6.21232 28.6679 6.12881 28.741C6.0453 28.8141 5.9381 28.8544 5.82711 28.8545H5.26552C5.24188 28.8548 5.21932 28.8644 5.2026 28.8811C5.18588 28.8978 5.17632 28.9204 5.17593 28.944V29.9985C5.17606 30.0222 5.18554 30.0449 5.20232 30.0617C5.21909 30.0784 5.2418 30.0879 5.26552 30.0881L5.82711 30.0898C5.93108 30.0898 6.03192 30.1254 6.11294 30.1906C6.19396 30.2557 6.25029 30.3466 6.27262 30.4481C6.38378 30.9474 6.57885 31.4241 6.84955 31.858C6.917 31.9462 6.95015 32.0559 6.94284 32.1666C6.93553 32.2774 6.88825 32.3818 6.8098 32.4604L6.41254 32.8576C6.39621 32.8747 6.3871 32.8974 6.3871 32.921C6.3871 32.9446 6.39621 32.9673 6.41254 32.9844L7.15814 33.73C7.1752 33.7463 7.19792 33.7554 7.22156 33.7554C7.24519 33.7554 7.26791 33.7463 7.28497 33.73L7.68331 33.3332C7.75675 33.2598 7.85303 33.2137 7.95624 33.2024C8.05945 33.1911 8.16343 33.2153 8.25099 33.2711C8.68251 33.5461 9.15779 33.7454 9.65635 33.8605C9.76636 33.8753 9.86729 33.9294 9.94041 34.0129C10.0135 34.0964 10.0539 34.2036 10.0539 34.3146V34.8762C10.0539 34.888 10.0562 34.8997 10.0606 34.9106C10.0651 34.9215 10.0717 34.9313 10.08 34.9397C10.0884 34.948 10.0982 34.9546 10.1091 34.9591C10.12 34.9636 10.1317 34.9659 10.1434 34.9658H11.1976C11.2213 34.9657 11.244 34.9562 11.2608 34.9394C11.2776 34.9226 11.2871 34.8999 11.2872 34.8762L11.289 34.3146C11.289 34.2106 11.3245 34.1099 11.3896 34.0289C11.4547 33.9478 11.5454 33.8915 11.6469 33.869C12.1462 33.7584 12.623 33.5634 13.0567 33.2923C13.1449 33.2248 13.2545 33.1916 13.3653 33.1989C13.4761 33.2062 13.5805 33.2535 13.6591 33.332L14.0564 33.7292C14.0734 33.7456 14.0961 33.7547 14.1198 33.7547C14.1434 33.7547 14.1661 33.7456 14.1832 33.7292L14.9287 32.9837C14.9451 32.9666 14.9542 32.9439 14.9542 32.9203C14.9542 32.8966 14.9451 32.8739 14.9287 32.8569L14.5326 32.4583C14.4592 32.3848 14.4131 32.2886 14.4018 32.1853C14.3905 32.0821 14.4147 31.9782 14.4705 31.8906C14.7455 31.4591 14.9449 30.9838 15.06 30.4852C15.0747 30.3752 15.1288 30.2743 15.2123 30.2012C15.2958 30.1281 15.403 30.0878 15.514 30.0877H16.0756C16.099 30.0866 16.1212 30.0768 16.1377 30.0602C16.1543 30.0437 16.1641 30.0215 16.1652 29.9981V28.944C16.1648 28.9204 16.1553 28.8978 16.1386 28.8811C16.1218 28.8644 16.0993 28.8548 16.0756 28.8545L15.514 28.8528C15.41 28.8527 15.3092 28.8171 15.2282 28.752C15.1472 28.6868 15.0909 28.596 15.0685 28.4944C14.9578 27.9951 14.7627 27.5183 14.4916 27.0846C14.4242 26.9964 14.391 26.8867 14.3983 26.7759C14.4056 26.6652 14.4529 26.5608 14.5314 26.4822L14.9286 26.085C14.945 26.0679 14.9541 26.0452 14.9541 26.0216C14.9541 25.9979 14.945 25.9752 14.9286 25.9581L14.1829 25.2125C14.1659 25.1962 14.1432 25.1871 14.1196 25.1871C14.096 25.1871 14.0732 25.1962 14.0562 25.2125L13.6577 25.6086C13.5842 25.682 13.4879 25.7281 13.3847 25.7394C13.2815 25.7507 13.1776 25.7265 13.09 25.6707C12.6585 25.3957 12.1832 25.1964 11.6846 25.0813C11.5746 25.0666 11.4737 25.0124 11.4005 24.9289C11.3274 24.8454 11.2871 24.7383 11.2871 24.6273V24.0664C11.2872 24.0546 11.285 24.0428 11.2805 24.0319C11.2761 24.021 11.2695 24.011 11.2611 24.0027C11.2528 23.9943 11.2429 23.9877 11.2319 23.9833C11.221 23.9788 11.2093 23.9766 11.1975 23.9768L11.1976 23.9764ZM10.1434 23.0603H11.1976C11.4641 23.0615 11.7192 23.1679 11.9076 23.3563C12.096 23.5447 12.2024 23.7999 12.2036 24.0664V24.2747C12.5708 24.3826 12.9254 24.5296 13.2613 24.7131L13.4089 24.5655C13.5977 24.3772 13.8534 24.2715 14.12 24.2715C14.3866 24.2715 14.6423 24.3772 14.831 24.5655L15.5766 25.3111C15.7649 25.4998 15.8706 25.7555 15.8706 26.0221C15.8706 26.2887 15.7649 26.5444 15.5766 26.7332L15.429 26.8808C15.6124 27.2168 15.7594 27.5714 15.8674 27.9386H16.0757C16.3423 27.9391 16.5978 28.0452 16.7863 28.2337C16.9748 28.4221 17.0809 28.6776 17.0814 28.9442V29.9986C17.0801 30.265 16.9737 30.52 16.7854 30.7083C16.5971 30.8966 16.342 31.003 16.0757 31.0043H15.8674C15.7594 31.3715 15.6124 31.7261 15.429 32.062L15.5766 32.2097C15.7648 32.3985 15.8705 32.6542 15.8705 32.9207C15.8705 33.1873 15.7648 33.443 15.5766 33.6318L14.831 34.3774C14.6422 34.5656 14.3865 34.6713 14.1199 34.6713C13.8534 34.6713 13.5976 34.5656 13.4088 34.3774L13.2613 34.2297C12.9253 34.4132 12.5707 34.5602 12.2035 34.6681V34.8765C12.2035 35.0085 12.1774 35.1393 12.1268 35.2612C12.0761 35.3831 12.0019 35.4939 11.9084 35.5871C11.7194 35.7749 11.4642 35.8808 11.1978 35.8821H10.1434C9.87713 35.8808 9.62207 35.7745 9.43376 35.5862C9.24544 35.3979 9.13909 35.1428 9.13784 34.8765V34.6681C8.7706 34.5602 8.41599 34.4132 8.08007 34.2297L7.93249 34.3774C7.74369 34.5656 7.48798 34.6713 7.22139 34.6713C6.9548 34.6713 6.69909 34.5656 6.51029 34.3774L5.76478 33.6318C5.57657 33.443 5.47088 33.1873 5.47088 32.9208C5.47088 32.6542 5.57657 32.3985 5.76478 32.2098L5.91228 32.0623C5.72852 31.7264 5.58161 31.3717 5.47411 31.0043H5.26577C4.99943 31.0031 4.74437 30.8967 4.55605 30.7084C4.36772 30.52 4.26135 30.265 4.26008 29.9986V28.944C4.26059 28.6775 4.36671 28.422 4.55521 28.2335C4.7437 28.045 4.99921 27.9389 5.26577 27.9384H5.47411C5.58205 27.5712 5.72903 27.2166 5.91253 26.8807L5.76486 26.733C5.57663 26.5442 5.47093 26.2885 5.47093 26.022C5.47093 25.7554 5.57663 25.4997 5.76486 25.311L6.51046 24.5654C6.6992 24.3771 6.9549 24.2714 7.22147 24.2714C7.48805 24.2714 7.74374 24.3771 7.93249 24.5654L8.07999 24.7129C8.41595 24.5291 8.77079 24.3822 9.13834 24.2747V24.0664C9.13964 23.8 9.24599 23.545 9.4343 23.3567C9.6226 23.1684 9.87763 23.062 10.1439 23.0607L10.1434 23.0603ZM12.466 27.676C12.8814 28.0914 13.1399 28.6379 13.1975 29.2225C13.255 29.807 13.1082 30.3935 12.7818 30.8819C12.4555 31.3703 11.9699 31.7305 11.4078 31.901C10.8457 32.0715 10.2418 32.0419 9.69914 31.8171C9.15644 31.5923 8.70847 31.1863 8.43157 30.6683C8.15466 30.1502 8.06594 29.5522 8.18053 28.9761C8.29512 28.4 8.60593 27.8814 9.06 27.5087C9.51407 27.1361 10.0833 26.9324 10.6707 26.9324C11.0042 26.932 11.3345 26.9974 11.6426 27.1251C11.9506 27.2527 12.2305 27.4399 12.466 27.676ZM10.6707 26.0164C11.47 26.0164 12.2446 26.2935 12.8625 26.8006C13.4804 27.3077 13.9034 28.0133 14.0594 28.7973C14.2153 29.5813 14.0946 30.3951 13.7178 31.1C13.341 31.805 12.7315 32.3575 11.993 32.6634C11.2545 32.9693 10.4328 33.0096 9.66787 32.7776C8.90296 32.5456 8.24216 32.0555 7.79807 31.3909C7.35398 30.7263 7.15408 29.9282 7.23243 29.1327C7.31078 28.3373 7.66253 27.5935 8.22774 27.0283C8.5482 26.707 8.929 26.4522 9.34824 26.2786C9.76749 26.1049 10.2169 26.0158 10.6707 26.0164ZM24.746 16.2892L23.2745 15.0199C23.1772 15.6169 23.109 16.1432 23.0393 16.7471L24.7459 16.2892H24.746ZM23.599 14.0937L30.5397 6.04868C30.5618 6.02651 30.5885 6.00937 30.6179 5.9984C30.6473 5.98743 30.6786 5.98289 30.7099 5.9851C30.8092 5.98851 30.9046 6.02457 30.9813 6.08768C31.4219 6.51361 31.9951 6.96153 32.4682 7.36971C32.5522 7.43866 32.6092 7.53499 32.6292 7.6418C32.636 7.67203 32.6361 7.70336 32.6297 7.73367C32.6233 7.76398 32.6105 7.79256 32.592 7.81747L25.6504 15.8634L23.599 14.0937ZM26.3913 33.3357H24.4795C24.3535 33.3364 24.2329 33.3867 24.1438 33.4758C24.0547 33.5649 24.0044 33.6856 24.0037 33.8115V36.2283L26.3913 33.3354V33.3357ZM12.6402 3.24096H9.82419V6.74803H20.1722V3.24096L17.3561 3.23888C17.236 3.23889 17.1208 3.19156 17.0354 3.10716C16.9499 3.02277 16.9013 2.9081 16.8998 2.78804C16.892 2.29181 16.6906 1.81828 16.3385 1.46851C15.9864 1.11873 15.5116 0.920417 15.0153 0.915883C14.5191 0.911348 14.0407 1.10095 13.6823 1.44423C13.3238 1.78752 13.1138 2.25728 13.0969 2.75329C13.1009 2.81576 13.0921 2.8784 13.071 2.93733C13.0498 2.99627 13.0168 3.05024 12.974 3.09594C12.9312 3.14163 12.8795 3.17808 12.8221 3.20302C12.7647 3.22796 12.7028 3.24087 12.6402 3.24096ZM8.90817 5.62751H3.56949C3.20064 5.62832 2.84713 5.77521 2.58631 6.03602C2.32549 6.29684 2.17861 6.65035 2.17779 7.0192V36.4305C2.17904 36.7992 2.32607 37.1525 2.58679 37.4132C2.84751 37.6739 3.20077 37.821 3.56949 37.8222L23.6578 37.8205C23.7252 37.8206 23.7918 37.8057 23.8527 37.7768C23.9137 37.748 23.9675 37.706 24.0102 37.6539L27.6879 33.198C27.7722 33.1119 27.8193 32.996 27.819 32.8755V14.7479L29.0805 13.2856V36.4306C29.0781 37.1336 28.7979 37.8071 28.3008 38.3042C27.8037 38.8013 27.1302 39.0816 26.4272 39.0839H3.5694C2.86642 39.0816 2.19289 38.8013 1.69581 38.3042C1.19872 37.8071 0.91843 37.1336 0.916101 36.4306V7.01928C0.918473 6.31632 1.19878 5.64282 1.69586 5.14574C2.19293 4.64866 2.86643 4.36836 3.5694 4.36598H8.90817V5.62751ZM21.0883 6.54353H26.4271C26.5531 6.54418 26.6737 6.59452 26.7628 6.6836C26.8519 6.77268 26.9022 6.89331 26.9029 7.01928V8.86607L22.6175 13.8328C22.5576 13.8983 22.5182 13.9798 22.5041 14.0674C22.3208 15.1897 22.1852 16.169 22.0546 17.2996C22.0444 17.3744 22.0528 17.4505 22.079 17.5212C22.1053 17.5919 22.1486 17.6551 22.2051 17.7051C22.2616 17.755 22.3296 17.7903 22.403 17.8077C22.4764 17.8251 22.5529 17.8241 22.6259 17.8048L25.816 16.949C25.9135 16.9231 25.9997 16.8656 26.0609 16.7854L26.9026 15.8095V32.4196H24.4792C24.1104 32.4204 23.7569 32.5673 23.496 32.8281C23.2352 33.0889 23.0883 33.4424 23.0875 33.8113V36.9063H3.56949C3.44337 36.906 3.32252 36.8557 3.23335 36.7665C3.14419 36.6773 3.09399 36.5565 3.09373 36.4303V7.01928C3.09441 6.89331 3.14475 6.7727 3.23382 6.68362C3.3229 6.59455 3.44352 6.5442 3.56949 6.54353H8.90817V7.20604C8.90817 7.3276 8.95646 7.44418 9.04242 7.53013C9.12837 7.61609 9.24495 7.66438 9.36651 7.66438H20.6303C20.7519 7.66438 20.8685 7.61609 20.9544 7.53013C21.0404 7.44418 21.0887 7.3276 21.0887 7.20604V6.54353H21.0883ZM21.0883 4.36598V5.62751H26.4271C26.796 5.62828 27.1495 5.77515 27.4103 6.03598C27.6711 6.2968 27.818 6.65034 27.8188 7.0192V7.8038L29.0121 6.42044C28.8752 5.83708 28.5456 5.31693 28.0766 4.94411C27.6075 4.57129 27.0264 4.3676 26.4272 4.36598H21.0883ZM9.36618 2.32428H12.2265C12.3418 1.67293 12.6828 1.08299 13.1896 0.657968C13.6965 0.232948 14.3368 0 14.9983 0C15.6598 0 16.3001 0.232948 16.807 0.657968C17.3138 1.08299 17.6548 1.67293 17.7701 2.32428H20.6303C20.7519 2.32428 20.8685 2.37257 20.9544 2.45852C21.0404 2.54448 21.0887 2.66106 21.0887 2.78262V3.4498H26.4275C27.2792 3.44997 28.1025 3.75623 28.7472 4.31273C29.1616 4.66883 29.4896 5.11449 29.7063 5.61601L29.848 5.4515C29.9555 5.32893 30.0887 5.2315 30.2381 5.16609C30.3875 5.10068 30.5494 5.0689 30.7124 5.073C31.0385 5.07818 31.3522 5.1986 31.598 5.41292L33.0656 6.67903C33.3129 6.88999 33.4777 7.18155 33.5308 7.50221C33.5588 7.66327 33.5511 7.82851 33.5082 7.98625C33.4652 8.14399 33.3882 8.29038 33.2825 8.41506L29.9967 12.2235V36.4306C29.9943 37.3765 29.6174 38.283 28.9485 38.9519C28.2796 39.6208 27.3731 39.9976 26.4272 40H3.5694C2.6235 39.9975 1.71703 39.6207 1.04818 38.9518C0.379316 38.283 0.00246377 37.3765 0 36.4306V7.01928C0.00246377 6.07338 0.379316 5.16692 1.04818 4.49806C1.71703 3.8292 2.6235 3.45235 3.5694 3.44988H8.90817V2.78262C8.90817 2.66106 8.95646 2.54448 9.04242 2.45852C9.12837 2.37257 9.24495 2.32428 9.36651 2.32428H9.36618ZM15.154 12.9712C14.9715 12.7886 14.7313 12.675 14.4744 12.6496C14.2175 12.6243 13.9598 12.6888 13.7451 12.8322C13.5304 12.9756 13.3721 13.189 13.2971 13.436C13.2221 13.6831 13.2351 13.9485 13.3339 14.187C13.4327 14.4255 13.6111 14.6224 13.8387 14.7441C14.0664 14.8659 14.3292 14.9049 14.5825 14.8545C14.8357 14.8042 15.0636 14.6676 15.2274 14.4681C15.3912 14.2685 15.4807 14.0183 15.4807 13.7602C15.4809 13.6136 15.4522 13.4685 15.3961 13.3331C15.34 13.1977 15.2578 13.0747 15.154 12.9712ZM23.5625 24.7448C23.38 24.5622 23.1398 24.4485 22.8829 24.4232C22.626 24.3979 22.3682 24.4624 22.1536 24.6058C21.9389 24.7492 21.7806 24.9626 21.7056 25.2096C21.6306 25.4567 21.6436 25.7221 21.7424 25.9606C21.8412 26.1991 22.0196 26.396 22.2473 26.5177C22.475 26.6394 22.7378 26.6784 22.991 26.6281C23.2442 26.5777 23.4721 26.4411 23.6359 26.2416C23.7997 26.042 23.8892 25.7918 23.8892 25.5336C23.8894 25.3871 23.8606 25.242 23.8046 25.1066C23.7485 24.9712 23.6663 24.8483 23.5625 24.7448ZM22.7895 23.5025C23.3251 23.5074 23.8372 23.7235 24.2142 24.104C24.5912 24.4845 24.8027 24.9984 24.8027 25.5341C24.8027 26.0697 24.5912 26.5836 24.2142 26.9641C23.8372 27.3446 23.3251 27.5607 22.7895 27.5656C22.4734 28.2417 21.9772 28.8176 21.3553 29.2304C20.6941 29.666 19.8664 29.9292 18.8746 29.9292C18.813 29.9316 18.7515 29.9215 18.6939 29.8995C18.6363 29.8776 18.5837 29.8442 18.5393 29.8014C18.4949 29.7587 18.4595 29.7074 18.4354 29.6506C18.4112 29.5939 18.3988 29.5329 18.3988 29.4712C18.3988 29.4096 18.4112 29.3485 18.4354 29.2918C18.4595 29.235 18.4949 29.1838 18.5393 29.141C18.5837 29.0982 18.6363 29.0649 18.6939 29.0429C18.7515 29.021 18.813 29.0109 18.8746 29.0132C19.6796 29.0132 20.3387 28.808 20.8544 28.4682C21.2792 28.1857 21.6282 27.8031 21.8706 27.3542C21.5319 27.1857 21.247 26.9261 21.0478 26.6046C20.8486 26.2831 20.7431 25.9123 20.7431 25.5341C20.7431 25.1559 20.8486 24.7851 21.0478 24.4636C21.247 24.1421 21.5319 23.8825 21.8706 23.714C21.6281 23.265 21.2791 22.8823 20.8542 22.5997C20.3385 22.26 19.6791 22.0547 18.8744 22.0547H10.3749C8.28324 22.0547 6.94072 20.9079 6.35071 19.4399C5.89703 18.2964 5.89703 17.0228 6.35071 15.8792C6.94072 14.4112 8.28299 13.2643 10.3749 13.2643H12.3945C12.5052 12.8256 12.7591 12.4363 13.1161 12.1582C13.4731 11.8801 13.9126 11.7291 14.3651 11.7291C14.8176 11.7291 15.2572 11.8801 15.6141 12.1582C15.9711 12.4363 16.225 12.8256 16.3357 13.2643H20.8853C21.004 13.2686 21.1164 13.3187 21.1988 13.4041C21.2812 13.4895 21.3273 13.6036 21.3273 13.7224C21.3273 13.8411 21.2812 13.9552 21.1988 14.0406C21.1164 14.1261 21.004 14.1762 20.8853 14.1804H16.3532C16.2568 14.6362 16.0066 15.045 15.6447 15.3383C15.2828 15.6317 14.831 15.7918 14.3652 15.7918C13.8993 15.7918 13.4475 15.6317 13.0856 15.3383C12.7237 15.045 12.4735 14.6362 12.3771 14.1804H10.3749C8.71658 14.1804 7.65881 15.0746 7.19881 16.2191C6.83569 17.1451 6.83569 18.174 7.19881 19.1C7.65881 20.2445 8.71675 21.1387 10.3749 21.1387H18.8744C19.866 21.1387 20.6938 21.402 21.3551 21.8377C21.977 22.2504 22.4733 22.8264 22.7895 23.5025Z" fill="white"/>
</svg>
