<svg width="40" height="40" viewBox="0 0 40 40" fill="none" xmlns="http://www.w3.org/2000/svg">
<g clip-path="url(#clip0_1792_3175)">
<path d="M36.875 10H36.0633C36.7885 9.19107 37.2639 8.18944 37.4322 7.11612C37.6004 6.04281 37.4542 4.94374 37.0112 3.95173C36.5683 2.95971 35.8475 2.11719 34.9361 1.52598C34.0246 0.934763 32.9614 0.620148 31.875 0.620148C30.7886 0.620148 29.7254 0.934763 28.8139 1.52598C27.9025 2.11719 27.1817 2.95971 26.7388 3.95173C26.2958 4.94374 26.1496 6.04281 26.3178 7.11612C26.4861 8.18944 26.9615 9.19107 27.6867 10H20V3.75C20 3.58424 19.9342 3.42527 19.8169 3.30806C19.6997 3.19085 19.5408 3.125 19.375 3.125H16.875C16.7092 3.125 16.5503 3.19085 16.4331 3.30806C16.3158 3.42527 16.25 3.58424 16.25 3.75V10H15.625V1.25C15.625 1.08424 15.5592 0.92527 15.4419 0.808059C15.3247 0.690849 15.1658 0.625001 15 0.625001H12.5C12.3342 0.625001 12.1753 0.690849 12.0581 0.808059C11.9408 0.92527 11.875 1.08424 11.875 1.25V10H11.25V5.625C11.25 5.45924 11.1842 5.30027 11.0669 5.18306C10.9497 5.06585 10.7908 5 10.625 5H8.125C7.95924 5 7.80027 5.06585 7.68306 5.18306C7.56585 5.30027 7.5 5.45924 7.5 5.625V10H3.125C2.46219 10.0007 1.82673 10.2644 1.35806 10.7331C0.889376 11.2017 0.625744 11.8372 0.625 12.5V31.25C0.625744 31.9128 0.889376 32.5483 1.35806 33.0169C1.82673 33.4856 2.46219 33.7493 3.125 33.75H16.0078L15.1742 36.25H13.125C12.9592 36.25 12.8003 36.3159 12.6831 36.4331C12.5658 36.5503 12.5 36.7092 12.5 36.875V38.125H6.25C6.08424 38.125 5.92527 38.1909 5.80806 38.3081C5.69085 38.4253 5.625 38.5842 5.625 38.75C5.625 38.9158 5.69085 39.0747 5.80806 39.1919C5.92527 39.3092 6.08424 39.375 6.25 39.375H33.75C33.9158 39.375 34.0747 39.3092 34.1919 39.1919C34.3092 39.0747 34.375 38.9158 34.375 38.75C34.375 38.5842 34.3092 38.4253 34.1919 38.3081C34.0747 38.1909 33.9158 38.125 33.75 38.125H27.5V36.875C27.5 36.7092 27.4342 36.5503 27.3169 36.4331C27.1997 36.3159 27.0408 36.25 26.875 36.25H24.8258L23.9922 33.75H36.875C37.5378 33.7493 38.1733 33.4856 38.6419 33.0169C39.1106 32.5483 39.3743 31.9128 39.375 31.25V12.5C39.3743 11.8372 39.1106 11.2017 38.6419 10.7331C38.1733 10.2644 37.5378 10.0007 36.875 10ZM32.5 1.92031C33.4341 2.05662 34.2992 2.49081 34.9667 3.1583C35.6342 3.82579 36.0684 4.69092 36.2047 5.625H32.5V1.92031ZM32.1336 6.875H36.2047C36.0967 7.62602 35.7952 8.33601 35.3297 8.93518C34.8642 9.53436 34.2509 10.0021 33.5498 10.2924C32.8488 10.5826 32.0844 10.6855 31.3315 10.5908C30.5787 10.4961 29.8635 10.2072 29.2563 9.75235L32.1336 6.875ZM27.5 6.25C27.5015 5.19843 27.8811 4.18246 28.5696 3.38758C29.258 2.5927 30.2094 2.07192 31.25 1.92031V5.99141L28.3727 8.86875C27.8053 8.11365 27.499 7.19448 27.5 6.25ZM17.5 4.375H18.75V16.25H17.5V4.375ZM15.625 11.25H16.25V16.25H15.625V11.25ZM13.125 1.875H14.375V16.25H13.125V1.875ZM11.25 11.25H11.875V16.25H11.25V11.25ZM8.75 6.25H10V16.25H8.75V6.25ZM26.25 37.5V38.125H13.75V37.5H26.25ZM16.4922 36.25L17.3258 33.75H22.6742L23.5078 36.25H16.4922ZM38.125 31.25C38.1246 31.5814 37.9927 31.8991 37.7584 32.1334C37.5241 32.3677 37.2064 32.4996 36.875 32.5H3.125C2.79361 32.4996 2.47592 32.3677 2.2416 32.1334C2.00727 31.8991 1.87543 31.5814 1.875 31.25V30H38.125V31.25ZM38.125 28.75H1.875V12.5C1.87543 12.1686 2.00727 11.8509 2.2416 11.6166C2.47592 11.3823 2.79361 11.2504 3.125 11.25H7.5V16.25H6.875V12.5C6.875 12.3342 6.80915 12.1753 6.69194 12.0581C6.57473 11.9408 6.41576 11.875 6.25 11.875H3.75C3.58424 11.875 3.42527 11.9408 3.30806 12.0581C3.19085 12.1753 3.125 12.3342 3.125 12.5V16.875C3.125 17.0408 3.19085 17.1997 3.30806 17.3169C3.42527 17.4342 3.58424 17.5 3.75 17.5H23.75C23.9158 17.5 24.0747 17.4342 24.1919 17.3169C24.3092 17.1997 24.375 17.0408 24.375 16.875V12.5C24.375 12.3342 24.3092 12.1753 24.1919 12.0581C24.0747 11.9408 23.9158 11.875 23.75 11.875H21.25C21.0842 11.875 20.9253 11.9408 20.8081 12.0581C20.6908 12.1753 20.625 12.3342 20.625 12.5V16.25H20V11.25H29.3031C30.0982 11.6607 30.9801 11.875 31.875 11.875C32.7699 11.875 33.6518 11.6607 34.4469 11.25H36.875C37.2064 11.2504 37.5241 11.3823 37.7584 11.6166C37.9927 11.8509 38.1246 12.1686 38.125 12.5V28.75ZM5.625 13.125V16.25H4.375V13.125H5.625ZM21.875 16.25V13.125H23.125V16.25H21.875Z" fill="white"/>
<path d="M7.5 30.625H3.75C3.58424 30.625 3.42527 30.6908 3.30806 30.8081C3.19085 30.9253 3.125 31.0842 3.125 31.25C3.125 31.4158 3.19085 31.5747 3.30806 31.6919C3.42527 31.8092 3.58424 31.875 3.75 31.875H7.5C7.66576 31.875 7.82473 31.8092 7.94194 31.6919C8.05915 31.5747 8.125 31.4158 8.125 31.25C8.125 31.0842 8.05915 30.9253 7.94194 30.8081C7.82473 30.6908 7.66576 30.625 7.5 30.625Z" fill="white"/>
<path d="M10 30.625H9.375C9.20924 30.625 9.05027 30.6908 8.93306 30.8081C8.81585 30.9253 8.75 31.0842 8.75 31.25C8.75 31.4158 8.81585 31.5747 8.93306 31.6919C9.05027 31.8092 9.20924 31.875 9.375 31.875H10C10.1658 31.875 10.3247 31.8092 10.4419 31.6919C10.5592 31.5747 10.625 31.4158 10.625 31.25C10.625 31.0842 10.5592 30.9253 10.4419 30.8081C10.3247 30.6908 10.1658 30.625 10 30.625Z" fill="white"/>
<path d="M26.875 16.25C26.9571 16.2501 27.0384 16.234 27.1143 16.2026C27.1901 16.1712 27.259 16.1251 27.317 16.067L29.6338 13.75H35C35.1658 13.75 35.3248 13.6842 35.442 13.5669C35.5592 13.4497 35.625 13.2908 35.625 13.125C35.625 12.9592 35.5592 12.8003 35.442 12.6831C35.3248 12.5658 35.1658 12.5 35 12.5H29.375C29.2929 12.5 29.2117 12.5162 29.1358 12.5476C29.06 12.579 28.9911 12.625 28.9331 12.683L26.4331 15.183C26.3457 15.2705 26.2861 15.3818 26.262 15.5031C26.2379 15.6243 26.2503 15.75 26.2976 15.8642C26.3449 15.9784 26.425 16.076 26.5278 16.1447C26.6306 16.2134 26.7514 16.25 26.875 16.25Z" fill="white"/>
<path d="M35.0002 23.125C34.6718 23.1252 34.3492 23.2117 34.0647 23.3759C33.7802 23.54 33.5438 23.776 33.3791 24.0602L26.8362 20.243C26.7475 19.817 26.5135 19.4352 26.1743 19.1629C25.835 18.8905 25.4116 18.7446 24.9766 18.7502C24.5416 18.7557 24.1221 18.9123 23.7899 19.1932C23.4577 19.4741 23.2335 19.8618 23.1557 20.2898L16.5713 25.2281C16.3922 24.9523 16.1436 24.7285 15.8506 24.5792C15.5575 24.4298 15.2303 24.3603 14.9018 24.3776C14.5734 24.3949 14.2553 24.4983 13.9795 24.6775C13.7037 24.8567 13.4799 25.1053 13.3307 25.3984L6.82289 22.6867C6.72021 22.2586 6.4702 21.8802 6.11663 21.6178C5.76306 21.3555 5.32848 21.2258 4.88895 21.2516C4.44943 21.2774 4.03298 21.457 3.71253 21.7589C3.39208 22.0608 3.18803 22.4658 3.13613 22.9031C3.08423 23.3403 3.18777 23.7818 3.42863 24.1503C3.66949 24.5189 4.03231 24.791 4.45358 24.919C4.87485 25.047 5.32771 25.0227 5.73288 24.8504C6.13804 24.6781 6.4697 24.3688 6.66976 23.9766L13.1776 26.6883C13.2781 27.1064 13.5192 27.4773 13.8607 27.7387C14.2022 28.0002 14.6231 28.1363 15.053 28.1242C15.4829 28.1121 15.8955 27.9526 16.2218 27.6723C16.548 27.3921 16.7679 27.0083 16.8448 26.5852L23.4291 21.6469C23.6036 21.9156 23.844 22.1351 24.1275 22.2843C24.4109 22.4336 24.7279 22.5076 25.0482 22.4994C25.3685 22.4912 25.6812 22.4009 25.9567 22.2373C26.2321 22.0737 26.4609 21.8422 26.6213 21.5648L33.1643 25.382C33.2365 25.7291 33.4056 26.0485 33.652 26.3033C33.8984 26.5582 34.212 26.7379 34.5564 26.8218C34.9008 26.9056 35.2619 26.8901 35.5978 26.7771C35.9338 26.6641 36.2308 26.4582 36.4545 26.1832C36.6782 25.9082 36.8193 25.5755 36.8616 25.2235C36.9039 24.8716 36.8455 24.5149 36.6933 24.1948C36.541 23.8747 36.3012 23.6043 36.0015 23.4149C35.7019 23.2256 35.3547 23.1251 35.0002 23.125ZM5.62523 23.1281C5.62482 23.2942 5.55851 23.4532 5.44089 23.5704C5.32326 23.6876 5.16393 23.7533 4.99789 23.7531C4.83185 23.7529 4.67268 23.6868 4.55535 23.5693C4.43801 23.4519 4.37211 23.2926 4.37211 23.1266C4.37211 22.9605 4.43801 22.8013 4.55535 22.6838C4.67268 22.5663 4.83185 22.5002 4.99789 22.5C5.16393 22.4998 5.32326 22.5655 5.44089 22.6827C5.55851 22.7999 5.62482 22.959 5.62523 23.125V23.1281ZM15.0002 26.875C14.8345 26.8748 14.6757 26.8089 14.5585 26.6917C14.4414 26.5745 14.3755 26.4157 14.3752 26.25V26.2469C14.3758 26.1234 14.413 26.0029 14.4821 25.9005C14.5511 25.7981 14.649 25.7185 14.7632 25.6717C14.8775 25.6249 15.003 25.6129 15.1241 25.6374C15.2451 25.6619 15.3562 25.7216 15.4433 25.8092C15.5304 25.8967 15.5896 26.0081 15.6134 26.1292C15.6373 26.2504 15.6247 26.3759 15.5774 26.4899C15.53 26.6039 15.4498 26.7013 15.3471 26.7699C15.2444 26.8384 15.1237 26.875 15.0002 26.875ZM25.0002 21.25C24.8766 21.25 24.7558 21.2133 24.653 21.1447C24.5502 21.076 24.4701 20.9784 24.4228 20.8642C24.3755 20.75 24.3631 20.6243 24.3872 20.5031C24.4114 20.3818 24.4709 20.2705 24.5583 20.1831C24.6457 20.0956 24.7571 20.0361 24.8783 20.012C24.9995 19.9879 25.1252 20.0003 25.2394 20.0476C25.3536 20.0949 25.4512 20.175 25.5199 20.2778C25.5886 20.3806 25.6252 20.5014 25.6252 20.625C25.625 20.7907 25.5591 20.9495 25.4419 21.0667C25.3248 21.1839 25.1659 21.2498 25.0002 21.25ZM35.0002 25.625C34.8766 25.625 34.7558 25.5883 34.653 25.5197C34.5502 25.451 34.4701 25.3534 34.4228 25.2392C34.3755 25.125 34.3631 24.9993 34.3872 24.8781C34.4114 24.7568 34.4709 24.6455 34.5583 24.5581C34.6457 24.4706 34.7571 24.4111 34.8783 24.387C34.9995 24.3629 35.1252 24.3753 35.2394 24.4226C35.3536 24.4699 35.4512 24.55 35.5199 24.6528C35.5886 24.7555 35.6252 24.8764 35.6252 25C35.625 25.1657 35.5591 25.3245 35.4419 25.4417C35.3248 25.5589 35.1659 25.6248 35.0002 25.625Z" fill="white"/>
<path d="M30 26.875H25.625C25.4592 26.875 25.3003 26.9408 25.1831 27.0581C25.0658 27.1753 25 27.3342 25 27.5C25 27.6658 25.0658 27.8247 25.1831 27.9419C25.3003 28.0592 25.4592 28.125 25.625 28.125H30C30.1658 28.125 30.3247 28.0592 30.4419 27.9419C30.5592 27.8247 30.625 27.6658 30.625 27.5C30.625 27.3342 30.5592 27.1753 30.4419 27.0581C30.3247 26.9408 30.1658 26.875 30 26.875Z" fill="white"/>
<path d="M30 25H28.125C27.9592 25 27.8003 25.0658 27.6831 25.1831C27.5658 25.3003 27.5 25.4592 27.5 25.625C27.5 25.7908 27.5658 25.9497 27.6831 26.0669C27.8003 26.1842 27.9592 26.25 28.125 26.25H30C30.1658 26.25 30.3247 26.1842 30.4419 26.0669C30.5592 25.9497 30.625 25.7908 30.625 25.625C30.625 25.4592 30.5592 25.3003 30.4419 25.1831C30.3247 25.0658 30.1658 25 30 25Z" fill="white"/>
<path d="M3.75 19.375H10.625C10.7908 19.375 10.9497 19.3092 11.0669 19.1919C11.1842 19.0747 11.25 18.9158 11.25 18.75C11.25 18.5842 11.1842 18.4253 11.0669 18.3081C10.9497 18.1908 10.7908 18.125 10.625 18.125H3.75C3.58424 18.125 3.42527 18.1908 3.30806 18.3081C3.19085 18.4253 3.125 18.5842 3.125 18.75C3.125 18.9158 3.19085 19.0747 3.30806 19.1919C3.42527 19.3092 3.58424 19.375 3.75 19.375Z" fill="white"/>
<path d="M12.5 19.375H13.125C13.2908 19.375 13.4497 19.3092 13.5669 19.1919C13.6842 19.0747 13.75 18.9158 13.75 18.75C13.75 18.5842 13.6842 18.4253 13.5669 18.3081C13.4497 18.1908 13.2908 18.125 13.125 18.125H12.5C12.3342 18.125 12.1753 18.1908 12.0581 18.3081C11.9408 18.4253 11.875 18.5842 11.875 18.75C11.875 18.9158 11.9408 19.0747 12.0581 19.1919C12.1753 19.3092 12.3342 19.375 12.5 19.375Z" fill="white"/>
</g>
<defs>
<clipPath id="clip0_1792_3175">
<rect width="40" height="40" fill="white"/>
</clipPath>
</defs>
</svg>
