<svg width="40" height="40" viewBox="0 0 40 40" fill="none" xmlns="http://www.w3.org/2000/svg">
<path d="M28.125 28.4375H11.875C11.7921 28.4375 11.7126 28.4704 11.654 28.529C11.5954 28.5876 11.5625 28.6671 11.5625 28.75V31.25C11.5625 31.3329 11.5954 31.4124 11.654 31.471C11.7126 31.5296 11.7921 31.5625 11.875 31.5625H12.8125V38.75H13.4375V31.5625H15.3125V38.75H15.9375V31.5625H24.0625V38.75H24.6875V31.5625H26.5625V38.75H27.1875V31.5625H28.125C28.2079 31.5625 28.2874 31.5296 28.346 31.471C28.4046 31.4124 28.4375 31.3329 28.4375 31.25V28.75C28.4375 28.6671 28.4046 28.5876 28.346 28.529C28.2874 28.4704 28.2079 28.4375 28.125 28.4375Z" fill="white"/>
<path d="M14.2125 12.5791C14.2582 12.607 14.3104 12.6227 14.364 12.6246C14.4176 12.6265 14.4708 12.6145 14.5184 12.5899C15.7642 11.9466 17.8135 11.5625 20 11.5625C22.1865 11.5625 24.2358 11.9466 25.4816 12.5899C25.5292 12.6145 25.5824 12.6264 25.636 12.6245C25.6896 12.6226 25.7418 12.607 25.7875 12.5791C25.8333 12.5512 25.8712 12.512 25.8974 12.4653C25.9237 12.4186 25.9375 12.3659 25.9375 12.3122V2.93724C25.9375 2.8799 25.9217 2.82366 25.8919 2.77468C25.8621 2.7257 25.8193 2.68588 25.7684 2.65957C24.438 1.97262 22.2816 1.5625 20 1.5625C17.7184 1.5625 15.562 1.97262 14.2316 2.65957C14.1807 2.68588 14.1379 2.7257 14.1081 2.77468C14.0783 2.82366 14.0625 2.8799 14.0625 2.93724V12.3122C14.0625 12.3659 14.0763 12.4186 14.1026 12.4653C14.1288 12.512 14.1667 12.5512 14.2125 12.5791ZM20 4.6875C21.2856 4.67908 22.5679 4.81756 23.8221 5.10025L23.6779 5.70839C22.471 5.43684 21.237 5.30401 20 5.3125C19.7947 5.3125 19.5879 5.31586 19.3853 5.32253L19.3647 4.69784C19.5742 4.69097 19.7879 4.6875 20 4.6875ZM20 7.8125C21.2856 7.80408 22.5679 7.94256 23.8221 8.22525L23.6779 8.83339C22.471 8.56184 21.237 8.42902 20 8.4375C19.7947 8.4375 19.5879 8.44086 19.3853 8.44753L19.3647 7.82284C19.5742 7.81597 19.7879 7.8125 20 7.8125ZM18.093 4.78325L18.157 5.40497C17.5394 5.46638 16.9265 5.56773 16.3221 5.70839L16.1779 5.10025C16.8088 4.95331 17.4485 4.84742 18.093 4.78325ZM18.093 7.90825L18.157 8.52997C17.5394 8.59138 16.9265 8.69273 16.3221 8.83339L16.1779 8.22525C16.8088 8.07831 17.4485 7.97242 18.093 7.90825Z" fill="white"/>
<path d="M38.437 8.98972V6.25C38.4356 5.00723 37.9412 3.81576 37.0625 2.93699C36.1837 2.05822 34.9922 1.56391 33.7495 1.5625H29.9995C29.4195 1.56315 28.8635 1.79383 28.4534 2.20392C28.0433 2.61402 27.8126 3.17004 27.812 3.75C27.812 3.80803 27.8281 3.86492 27.8586 3.91428C27.8891 3.96365 27.9328 4.00355 27.9847 4.0295L29.0398 4.55706L28.516 9.27151C28.5014 9.40255 28.5147 9.53518 28.5549 9.66075C28.5951 9.78632 28.6613 9.902 28.7492 10.0002C28.8371 10.0985 28.9448 10.1771 29.0652 10.2309C29.1855 10.2847 29.3159 10.3125 29.4477 10.3125H29.687V11.4697C29.6874 11.8257 29.829 12.167 30.0807 12.4188C30.3325 12.6705 30.6738 12.8121 31.0298 12.8125C31.1957 12.8129 31.3563 12.8705 31.4845 12.9756C31.6128 13.0808 31.7008 13.227 31.7337 13.3895L32.0894 15.1681L30.9394 15.7431C30.2664 16.0776 29.7219 16.624 29.3899 17.2983C29.0578 17.9725 28.9566 18.7371 29.1016 19.4745L26.562 20.7443V19.375C26.562 19.3164 26.5455 19.259 26.5145 19.2094L23.3895 14.2094C23.3614 14.1644 23.3223 14.1274 23.276 14.1017C23.2296 14.076 23.1775 14.0625 23.1245 14.0625H16.8745C16.8215 14.0625 16.7693 14.076 16.723 14.1017C16.6766 14.1274 16.6376 14.1644 16.6095 14.2094L13.4845 19.2094C13.4534 19.259 13.437 19.3164 13.437 19.375V24.378C13.1672 24.1734 12.838 24.0626 12.4995 24.0625H12.0225L9.68696 21.2079V20.1127C9.69218 18.4045 9.02744 16.7623 7.83543 15.5386L8.30341 13.1987C8.32541 13.0899 8.3843 12.992 8.47013 12.9217C8.55596 12.8513 8.66346 12.8127 8.77445 12.8125C9.01481 12.8127 9.24913 12.7372 9.44413 12.5967C9.63912 12.4561 9.78488 12.2577 9.86068 12.0296L10.2247 10.9375H10.5415C10.6744 10.9375 10.8058 10.9092 10.927 10.8546C11.0481 10.7999 11.1563 10.7201 11.2443 10.6204C11.3323 10.5208 11.398 10.4036 11.4373 10.2766C11.4765 10.1495 11.4882 10.0156 11.4717 9.88373L10.9199 5.47228C11.309 5.21655 11.6284 4.86819 11.8496 4.45849C12.0707 4.04879 12.1867 3.59058 12.187 3.125V1.875C12.187 1.81844 12.1716 1.76294 12.1425 1.71441C12.1135 1.66589 12.0718 1.62616 12.0219 1.59948C11.972 1.57279 11.9159 1.56013 11.8594 1.56287C11.8029 1.5656 11.7482 1.58361 11.7011 1.61499L10.4559 2.44511C10.0968 2.68505 9.67444 2.81292 9.24251 2.8125H6.24977C5.57638 2.8125 4.91107 2.95917 4.30011 3.24233C3.68915 3.52548 3.14719 3.93831 2.71193 4.45212C2.27667 4.96593 1.95854 5.56837 1.77968 6.21757C1.60082 6.86677 1.56551 7.54714 1.67621 8.21136L1.73168 8.54435C1.86659 9.36879 2.17913 10.1541 2.64765 10.8457C3.11616 11.5374 3.72945 12.1189 4.44502 12.55L4.09118 13.6116L3.91414 13.8771C3.19431 14.9546 2.8107 16.2216 2.81196 17.5174V26.7885L2.15656 27.8807C1.7717 28.5206 1.56836 29.2533 1.56836 30C1.56836 30.7467 1.7717 31.4794 2.15656 32.1193L2.81196 33.2116V38.75H3.43696V33.125C3.43695 33.0684 3.42156 33.0128 3.39244 32.9642L2.69252 31.7977C2.36605 31.2549 2.19356 30.6334 2.19356 30C2.19356 29.3666 2.36605 28.7451 2.69252 28.2023L3.30139 27.1875H9.06196V38.75H9.68696V26.2982C9.95 26.5785 10.2677 26.8021 10.6204 26.9551C10.9731 27.108 11.3534 27.1871 11.7379 27.1875H12.4995C12.7416 27.1873 12.9804 27.1307 13.1969 27.0221C13.4134 26.9136 13.6016 26.7561 13.7467 26.5622C13.7476 26.5622 13.7485 26.5625 13.7495 26.5625H26.2495C26.3323 26.5625 26.4118 26.5296 26.4704 26.471C26.529 26.4124 26.562 26.3329 26.562 26.25V24.5017C26.7855 24.4337 27.003 24.3472 27.2121 24.243L30.312 22.6931V38.75H30.937V27.1875H36.7243L37.056 27.6022C37.5791 28.2548 37.8428 29.0775 37.7966 29.9126C37.7503 30.7477 37.3974 31.5362 36.8054 32.1271L36.0285 32.904C35.9699 32.9626 35.937 33.0421 35.937 33.125V38.75H36.562V33.2544L37.2474 32.569C37.9482 31.8695 38.3661 30.9359 38.4208 29.9472C38.4756 28.9585 38.1634 27.9844 37.5441 27.2118L37.187 26.7654V17.5174C37.187 17.3432 37.1796 17.1699 37.166 16.9976L37.7278 14.7499C38.1986 12.866 38.4367 10.9315 38.437 8.98972ZM8.43696 5.9375H10.3486L10.4267 6.5625H9.37446V7.1875H10.5048L10.6452 8.31046L9.19059 8.01952C8.9783 7.97658 8.78734 7.86164 8.65002 7.69414C8.5127 7.52664 8.43744 7.31685 8.43696 7.10026V5.9375ZM7.49946 5.9375H7.81196V7.10026C7.81196 7.1296 7.81419 7.15849 7.81582 7.1875H5.96845C6.04094 6.83484 6.2328 6.51796 6.51168 6.29026C6.79057 6.06256 7.13943 5.93798 7.49946 5.9375ZM4.75665 13.5917L5.92094 10.0988C5.93929 10.0438 5.94195 9.98469 5.92861 9.92821C5.91528 9.87172 5.88648 9.82006 5.84545 9.77901L4.85431 8.78788C4.7744 8.70797 4.71999 8.60617 4.69794 8.49533C4.67589 8.3845 4.68721 8.26962 4.73045 8.16521C4.7737 8.06081 4.84693 7.97157 4.94089 7.90879C5.03485 7.84601 5.14532 7.8125 5.25833 7.8125H7.98631C8.09345 8.02164 8.24633 8.20395 8.4336 8.3459C8.62087 8.48784 8.83772 8.58576 9.06803 8.63239L10.7269 8.9642L10.8516 9.96124C10.857 10.0052 10.8531 10.0498 10.8401 10.0922C10.827 10.1345 10.8051 10.1736 10.7757 10.2068C10.7464 10.24 10.7104 10.2666 10.67 10.2849C10.6296 10.3031 10.5858 10.3125 10.5415 10.3125H9.99946C9.93387 10.3125 9.86995 10.3331 9.81674 10.3715C9.76353 10.4098 9.72373 10.4639 9.70298 10.5262L9.49146 11.1608L8.2978 10.365L7.95112 10.885L9.28661 11.7753L9.26773 11.832C9.2333 11.9356 9.16711 12.0257 9.07856 12.0895C8.99001 12.1533 8.8836 12.1876 8.77445 12.1875C8.51906 12.1881 8.27171 12.2768 8.07421 12.4387C7.8767 12.6006 7.74118 12.8257 7.69054 13.0761L7.29677 15.0449C6.91535 14.7325 6.5003 14.4635 6.0593 14.243L4.75665 13.5917ZM12.4995 26.5625H11.7379C11.4313 26.5623 11.1281 26.4978 10.848 26.373C10.5679 26.2483 10.3172 26.0661 10.1119 25.8384L6.91036 22.2811L8.47629 20.7151L11.6326 24.5729C11.6619 24.6087 11.6988 24.6376 11.7406 24.6574C11.7825 24.6772 11.8282 24.6875 11.8745 24.6875H12.4995C12.7481 24.6875 12.9866 24.7863 13.1624 24.9621C13.3382 25.1379 13.437 25.3764 13.437 25.625C13.437 25.8736 13.3382 26.1121 13.1624 26.2879C12.9866 26.4637 12.7481 26.5625 12.4995 26.5625ZM19.687 25.9375H14.062V19.6875H19.687V25.9375ZM25.937 25.9375H20.312V19.4646L23.1245 14.9646L25.937 19.4646V20.9365C25.9311 20.9366 25.9253 20.9375 25.9195 20.9375H24.687C24.1897 20.9375 23.7128 21.135 23.3611 21.4867C23.0095 21.8383 22.812 22.3152 22.812 22.8125C22.812 23.3098 23.0095 23.7867 23.3611 24.1383C23.7128 24.49 24.1897 24.6875 24.687 24.6875H25.3294C25.5328 24.6868 25.7358 24.6714 25.937 24.6412V25.9375ZM33.6097 20.3455L26.9326 23.684C26.4346 23.9323 25.8859 24.0618 25.3294 24.0625H24.687C24.3554 24.0625 24.0375 23.9308 23.8031 23.6964C23.5687 23.462 23.437 23.144 23.437 22.8125C23.437 22.481 23.5687 22.163 23.8031 21.9286C24.0375 21.6942 24.3554 21.5625 24.687 21.5625H25.9195C26.185 21.5622 26.4467 21.5004 26.6843 21.382L32.6392 18.4045C32.7667 18.3408 32.9054 18.3028 33.0476 18.2927C33.1897 18.2826 33.3324 18.3006 33.4676 18.3456C33.6028 18.3907 33.7278 18.462 33.8354 18.5553C33.943 18.6487 34.0312 18.7623 34.095 18.8898C34.1587 19.0172 34.1967 19.156 34.2068 19.2981C34.2169 19.4402 34.1989 19.583 34.1538 19.7181C34.1088 19.8533 34.0375 19.9783 33.9442 20.0859C33.8508 20.1936 33.7371 20.2818 33.6097 20.3455ZM32.6688 14.8784L32.3465 13.267C32.285 12.9629 32.1204 12.6894 31.8805 12.4927C31.6405 12.296 31.34 12.1882 31.0298 12.1875C30.8404 12.1873 30.6589 12.1123 30.5245 11.9789C30.3901 11.8455 30.3139 11.6645 30.3122 11.4752L31.9733 10.9215L31.7756 10.3285L30.312 10.8164V10C30.312 9.91712 30.279 9.83764 30.2204 9.77903C30.1618 9.72043 30.0823 9.6875 29.9995 9.6875H29.4477C29.4038 9.6875 29.3603 9.67822 29.3202 9.66029C29.2801 9.64235 29.2442 9.61616 29.2149 9.58341C29.1856 9.55067 29.1635 9.51211 29.1501 9.47026C29.1367 9.4284 29.1323 9.38419 29.1371 9.34052L29.2479 8.34401L31.1601 7.96158C31.3066 7.9322 31.448 7.8818 31.58 7.81193C31.58 7.81193 34.3692 7.8125 34.3745 7.8125C34.623 7.81278 34.8613 7.91165 35.0371 8.0874C35.2128 8.26315 35.3117 8.50145 35.312 8.75V8.85723C35.3123 8.9804 35.2882 9.10241 35.2411 9.2162C35.1939 9.32999 35.1247 9.4333 35.0373 9.52015L34.1535 10.404C34.1102 10.4473 34.0806 10.5022 34.0683 10.5622C34.0561 10.6221 34.0616 10.6843 34.0843 10.741L35.2275 13.5991L32.6688 14.8784ZM29.4458 6.5625L29.5153 5.9375H30.6245V6.5625H29.4458ZM32.2186 7.18693C32.2854 7.06796 32.3361 6.94067 32.3695 6.8084L32.687 5.53806C33.0398 5.6659 33.3515 5.88656 33.5892 6.17676C33.827 6.46696 33.9821 6.81595 34.0381 7.18693H32.2186ZM37.1215 14.5984L36.8843 15.5474C36.6981 14.9556 36.4289 14.3933 36.0848 13.8771L35.9025 13.6037L34.7411 10.7003L35.4793 9.96212C35.6249 9.81736 35.7402 9.64517 35.8188 9.45551C35.8974 9.26586 35.9375 9.06251 35.937 8.85723V8.75C35.9365 8.38738 35.8101 8.03617 35.5795 7.75637C35.3488 7.47658 35.0281 7.28556 34.6722 7.21596C34.6146 6.66218 34.3877 6.13961 34.0225 5.71933C33.6574 5.29906 33.1716 5.00148 32.6313 4.8671L29.4836 4.08018L28.4481 3.56247C28.4945 3.18349 28.6778 2.83452 28.9635 2.58128C29.2492 2.32803 29.6177 2.18798 29.9995 2.1875H33.7495C34.8265 2.18872 35.8591 2.61712 36.6207 3.37873C37.3823 4.14033 37.8107 5.17293 37.812 6.25V8.98972C37.8117 10.8804 37.5799 12.764 37.1215 14.5984Z" fill="white"/>
</svg>
