<svg width="40" height="40" viewBox="0 0 40 40" fill="none" xmlns="http://www.w3.org/2000/svg">
<g clip-path="url(#clip0_1792_3191)">
<path d="M13.75 28.125H12.5V29.375H13.75V28.125Z" fill="white"/>
<path d="M17.5 28.125H16.25V29.375H17.5V28.125Z" fill="white"/>
<path d="M21.4216 27.5175L22.0916 24.8381C22.2906 24.0416 22.3056 23.2102 22.1352 22.4071C21.9649 21.6039 21.6137 20.8502 21.1085 20.2031C20.6033 19.5559 19.9572 19.0324 19.2194 18.6724C18.4815 18.3123 17.6713 18.1251 16.8503 18.125H15.0378C14.5303 18.1245 14.0372 18.2938 13.6371 18.6061C13.237 18.9184 12.953 19.3557 12.8303 19.8481C12.7751 20.0698 12.6474 20.2667 12.4675 20.4075C12.2875 20.5482 12.0657 20.6248 11.8372 20.625H10.001C9.33792 20.625 8.70203 20.8884 8.23319 21.3572C7.76435 21.8261 7.50096 22.462 7.50096 23.125C7.50313 24.6408 7.8107 26.1407 8.40533 27.535C7.94931 27.6243 7.54269 27.8797 7.26432 28.2518C6.98594 28.6239 6.85565 29.0861 6.89869 29.5487C6.94174 30.0114 7.15506 30.4416 7.49729 30.756C7.83953 31.0703 8.28629 31.2464 8.75096 31.25H9.37596C9.37596 32.7418 9.96859 34.1726 11.0235 35.2275C12.0784 36.2824 13.5091 36.875 15.001 36.875C16.4928 36.875 17.9235 36.2824 18.9784 35.2275C20.0333 34.1726 20.626 32.7418 20.626 31.25H21.251C21.7327 31.2509 22.1962 31.0658 22.5448 30.7333C22.8935 30.4008 23.1004 29.9466 23.1224 29.4654C23.1444 28.9842 22.9798 28.513 22.6629 28.1501C22.3461 27.7872 21.9014 27.5606 21.4216 27.5175ZM8.75096 30C8.5852 30 8.42623 29.9342 8.30902 29.8169C8.19181 29.6997 8.12596 29.5408 8.12596 29.375C8.12596 29.2092 8.19181 29.0503 8.30902 28.9331C8.42623 28.8158 8.5852 28.75 8.75096 28.75H9.37596V30H8.75096ZM19.376 31.25C19.376 32.4103 18.915 33.5231 18.0945 34.3436C17.2741 35.1641 16.1613 35.625 15.001 35.625C13.8406 35.625 12.7278 35.1641 11.9074 34.3436C11.0869 33.5231 10.626 32.4103 10.626 31.25V26.4581L11.9603 24.6794C13.6162 26.1018 15.7286 26.8812 17.9116 26.875C18.2998 26.8755 18.672 27.0299 18.9465 27.3045C19.221 27.579 19.3755 27.9512 19.376 28.3394V31.25ZM17.9116 25.625C16.8723 25.6279 15.8428 25.4246 14.8826 25.0269C13.9224 24.6292 13.0507 24.045 12.3178 23.3081C12.2545 23.2448 12.1783 23.1958 12.0945 23.1645C12.0106 23.1332 11.9209 23.1203 11.8316 23.1266C11.7423 23.133 11.6554 23.1584 11.5768 23.2013C11.4982 23.2441 11.4297 23.3034 11.376 23.375L9.50096 25.875C9.41982 25.9832 9.37596 26.1148 9.37596 26.25V26.5856C8.96499 25.478 8.75339 24.3064 8.75096 23.125C8.75096 22.7935 8.88265 22.4755 9.11707 22.2411C9.35149 22.0067 9.66944 21.875 10.001 21.875H11.8372C12.3447 21.8755 12.8378 21.7062 13.2379 21.3939C13.638 21.0816 13.922 20.6444 14.0447 20.1519C14.1 19.9299 14.228 19.7328 14.4083 19.592C14.5886 19.4512 14.8109 19.3748 15.0397 19.375H16.8522C17.4832 19.375 18.106 19.5188 18.6731 19.7955C19.2403 20.0722 19.7369 20.4745 20.1253 20.9718C20.5136 21.4692 20.7836 22.0485 20.9145 22.6658C21.0454 23.2831 21.034 23.9222 20.881 24.5344L20.2635 27.0063C20.0289 26.5883 19.6876 26.2402 19.2744 25.9975C18.8611 25.7548 18.3908 25.6263 17.9116 25.625ZM21.251 30H20.626V28.75H21.251C21.4167 28.75 21.5757 28.8158 21.6929 28.9331C21.8101 29.0503 21.876 29.2092 21.876 29.375C21.876 29.5408 21.8101 29.6997 21.6929 29.8169C21.5757 29.9342 21.4167 30 21.251 30Z" fill="white"/>
<path d="M16.2509 32.3525C16.1355 32.5852 15.9572 32.7809 15.7363 32.9174C15.5153 33.054 15.2606 33.1259 15.0009 33.125C14.7412 33.1258 14.4866 33.0539 14.2657 32.9175C14.0448 32.7811 13.8664 32.5856 13.7509 32.3531L13.6884 32.2219L12.5684 32.7781L12.6346 32.9112C12.8532 33.3517 13.1907 33.7221 13.6088 33.9808C14.027 34.2395 14.5092 34.376 15.0009 34.375C15.4928 34.3767 15.9753 34.2405 16.3938 33.9819C16.8122 33.7233 17.1498 33.3526 17.3684 32.9119L17.4346 32.78L16.3171 32.2175L16.2509 32.3525Z" fill="white"/>
<path d="M4.375 20.625C5.06536 20.625 5.625 20.0654 5.625 19.375C5.625 18.6846 5.06536 18.125 4.375 18.125C3.68464 18.125 3.125 18.6846 3.125 19.375C3.125 20.0654 3.68464 20.625 4.375 20.625Z" fill="white"/>
<path d="M25.625 20.625C26.3154 20.625 26.875 20.0654 26.875 19.375C26.875 18.6846 26.3154 18.125 25.625 18.125C24.9346 18.125 24.375 18.6846 24.375 19.375C24.375 20.0654 24.9346 20.625 25.625 20.625Z" fill="white"/>
<path d="M25.625 36.875C26.3154 36.875 26.875 36.3154 26.875 35.625C26.875 34.9346 26.3154 34.375 25.625 34.375C24.9346 34.375 24.375 34.9346 24.375 35.625C24.375 36.3154 24.9346 36.875 25.625 36.875Z" fill="white"/>
<path d="M4.375 36.875C5.06536 36.875 5.625 36.3154 5.625 35.625C5.625 34.9346 5.06536 34.375 4.375 34.375C3.68464 34.375 3.125 34.9346 3.125 35.625C3.125 36.3154 3.68464 36.875 4.375 36.875Z" fill="white"/>
<path d="M38.75 8.75H37.7825C37.5775 8.01082 37.2819 7.29981 36.9025 6.63312L37.59 5.94562C37.7072 5.82842 37.773 5.66948 37.773 5.50375C37.773 5.33802 37.7072 5.17908 37.59 5.06187L34.9375 2.41125C34.8182 2.29819 34.66 2.23518 34.4956 2.23518C34.3312 2.23518 34.1731 2.29819 34.0537 2.41125L33.3662 3.09875C32.6999 2.71883 31.9891 2.42283 31.25 2.2175V1.25C31.25 1.08424 31.1842 0.925268 31.0669 0.808058C30.9497 0.690848 30.7908 0.625 30.625 0.625H26.875C26.7092 0.625 26.5503 0.690848 26.4331 0.808058C26.3158 0.925268 26.25 1.08424 26.25 1.25V2.2175C25.5106 2.42234 24.7993 2.71792 24.1325 3.0975L23.445 2.41C23.3278 2.29283 23.1689 2.22701 23.0031 2.22701C22.8374 2.22701 22.6785 2.29283 22.5612 2.41L19.9106 5.0625C19.7935 5.17971 19.7276 5.33865 19.7276 5.50437C19.7276 5.6701 19.7935 5.82905 19.9106 5.94625L20.5981 6.63375C20.5538 6.71187 20.5219 6.79625 20.4794 6.87563H16.875V1.25C16.875 1.08424 16.8092 0.925268 16.6919 0.808058C16.5747 0.690848 16.4158 0.625 16.25 0.625H1.25C1.08424 0.625 0.925268 0.690848 0.808058 0.808058C0.690848 0.925268 0.625 1.08424 0.625 1.25V12.5C0.625 12.6658 0.690848 12.8247 0.808058 12.9419C0.925268 13.0592 1.08424 13.125 1.25 13.125H16.25C16.4158 13.125 16.5747 13.0592 16.6919 12.9419C16.8092 12.8247 16.875 12.6658 16.875 12.5V8.125H19.9331C19.8594 8.3325 19.7763 8.5375 19.7175 8.75H18.75C18.5842 8.75 18.4253 8.81585 18.3081 8.93306C18.1908 9.05027 18.125 9.20924 18.125 9.375V13.125C18.125 13.2908 18.1908 13.4497 18.3081 13.5669C18.4253 13.6842 18.5842 13.75 18.75 13.75H19.7175C19.8985 14.4004 20.15 15.0291 20.4675 15.625H2.5C2.00272 15.625 1.52581 15.8225 1.17417 16.1742C0.822544 16.5258 0.625 17.0027 0.625 17.5V37.5C0.625 37.9973 0.822544 38.4742 1.17417 38.8258C1.52581 39.1775 2.00272 39.375 2.5 39.375H27.5C27.9973 39.375 28.4742 39.1775 28.8258 38.8258C29.1775 38.4742 29.375 37.9973 29.375 37.5V21.875H30.625C30.7908 21.875 30.9497 21.8092 31.0669 21.6919C31.1842 21.5747 31.25 21.4158 31.25 21.25V20.2825C31.9894 20.0777 32.7007 19.7821 33.3675 19.4025L34.055 20.09C34.1722 20.2072 34.3311 20.273 34.4969 20.273C34.6626 20.273 34.8215 20.2072 34.9388 20.09L37.5894 17.4375C37.7065 17.3203 37.7724 17.1614 37.7724 16.9956C37.7724 16.8299 37.7065 16.671 37.5894 16.5538L36.9019 15.8663C37.2814 15.1998 37.5772 14.489 37.7825 13.75H38.75C38.9158 13.75 39.0747 13.6842 39.1919 13.5669C39.3092 13.4497 39.375 13.2908 39.375 13.125V9.375C39.375 9.20924 39.3092 9.05027 39.1919 8.93306C39.0747 8.81585 38.9158 8.75 38.75 8.75ZM15.625 11.875H1.875V1.875H15.625V11.875ZM28.125 37.5C28.125 37.6658 28.0592 37.8247 27.9419 37.9419C27.8247 38.0592 27.6658 38.125 27.5 38.125H2.5C2.33424 38.125 2.17527 38.0592 2.05806 37.9419C1.94085 37.8247 1.875 37.6658 1.875 37.5V17.5C1.875 17.3342 1.94085 17.1753 2.05806 17.0581C2.17527 16.9408 2.33424 16.875 2.5 16.875H27.5C27.6658 16.875 27.8247 16.9408 27.9419 17.0581C28.0592 17.1753 28.125 17.3342 28.125 17.5V37.5ZM23.125 11.25C23.1243 10.1586 23.4412 9.09068 24.0369 8.17625C24.6326 7.26182 25.4815 6.54044 26.48 6.10002C27.4785 5.6596 28.5836 5.51916 29.6606 5.69584C30.7375 5.87251 31.7399 6.35865 32.5453 7.09502C33.3508 7.83138 33.9247 8.78617 34.1971 9.84299C34.4694 10.8998 34.4284 12.013 34.0791 13.047C33.7298 14.0809 33.0873 14.9909 32.2298 15.6661C31.3724 16.3412 30.337 16.7524 29.25 16.8494C29.1176 16.4914 28.8791 16.1824 28.5664 15.9637C28.2537 15.7449 27.8816 15.6267 27.5 15.625H25.2269C24.5691 15.1016 24.0384 14.4361 23.6744 13.6785C23.3104 12.9208 23.1226 12.0906 23.125 11.25ZM38.125 12.5H37.2937C37.1512 12.5 37.0129 12.5487 36.9019 12.638C36.7908 12.7274 36.7136 12.852 36.6831 12.9912C36.4776 13.9273 36.1068 14.8191 35.5881 15.625C35.511 15.7451 35.4773 15.888 35.4927 16.0299C35.508 16.1718 35.5715 16.3042 35.6725 16.405L36.2631 16.995L34.495 18.7631L33.905 18.1725C33.8042 18.0715 33.6718 18.008 33.5299 17.9927C33.388 17.9773 33.2451 18.011 33.125 18.0881C32.3191 18.6071 31.427 18.9777 30.4906 19.1825C30.3514 19.213 30.2268 19.2902 30.1374 19.4013C30.0481 19.5123 29.9994 19.6506 29.9994 19.7931V20.625H29.375V18.0931C30.9014 17.9515 32.3365 17.303 33.4516 16.2512C34.5667 15.1993 35.2977 13.8045 35.5282 12.2889C35.7586 10.7734 35.4752 9.22433 34.7231 7.88854C33.9711 6.55276 32.7936 5.50709 31.3783 4.91815C29.9629 4.32921 28.3912 4.23087 26.9136 4.63881C25.4359 5.04674 24.1372 5.93748 23.2245 7.1691C22.3118 8.40073 21.8375 9.90238 21.8773 11.4348C21.917 12.9673 22.4684 14.4423 23.4437 15.625H21.9112C21.393 14.819 21.0224 13.9272 20.8169 12.9912C20.7864 12.852 20.7092 12.7274 20.5981 12.638C20.4871 12.5487 20.3488 12.5 20.2063 12.5H19.375V10H20.2063C20.3488 10 20.4871 9.95132 20.5981 9.86197C20.7092 9.77262 20.7864 9.64799 20.8169 9.50875C21.0224 8.57273 21.3932 7.68086 21.9119 6.875C21.989 6.75489 22.0227 6.61201 22.0073 6.47011C21.992 6.32821 21.9285 6.19584 21.8275 6.095L21.2369 5.505L23.005 3.73688L23.595 4.3275C23.6958 4.42851 23.8282 4.49197 23.9701 4.50732C24.112 4.52267 24.2549 4.48899 24.375 4.41188C25.1808 3.89279 26.073 3.52195 27.0094 3.31687C27.1485 3.28625 27.273 3.20901 27.3622 3.09796C27.4514 2.98691 27.5001 2.84871 27.5 2.70625V1.875H30V2.70625C30 2.84879 30.0487 2.98706 30.138 3.09812C30.2274 3.20919 30.352 3.28637 30.4912 3.31687C31.4274 3.52202 32.3193 3.89286 33.125 4.41188C33.245 4.48883 33.3878 4.52242 33.5296 4.50707C33.6713 4.49172 33.8036 4.42836 33.9044 4.3275L34.4944 3.73688L36.2625 5.505L35.6719 6.095C35.571 6.19591 35.5076 6.32832 35.4924 6.47022C35.4771 6.61212 35.5109 6.75496 35.5881 6.875C36.1068 7.68086 36.4776 8.57273 36.6831 9.50875C36.7136 9.64799 36.7908 9.77262 36.9019 9.86197C37.0129 9.95132 37.1512 10 37.2937 10H38.125V12.5Z" fill="white"/>
<path d="M13.125 3.125H5.625V4.375H13.125V3.125Z" fill="white"/>
<path d="M14.375 5.625H3.125V6.875H14.375V5.625Z" fill="white"/>
<path d="M14.375 8.125H3.125V9.375H14.375V8.125Z" fill="white"/>
<path d="M28.125 15.625H29.375V15C29.8723 15 30.3492 14.8025 30.7008 14.4508C31.0525 14.0992 31.25 13.6223 31.25 13.125V12.5C31.25 12.0027 31.0525 11.5258 30.7008 11.1742C30.3492 10.8225 29.8723 10.625 29.375 10.625V8.75C29.5408 8.75 29.6997 8.81585 29.8169 8.93306C29.9342 9.05027 30 9.20924 30 9.375V10H31.25V9.375C31.25 8.87772 31.0525 8.40081 30.7008 8.04917C30.3492 7.69754 29.8723 7.5 29.375 7.5V6.875H28.125V7.5C27.6277 7.5 27.1508 7.69754 26.7992 8.04917C26.4475 8.40081 26.25 8.87772 26.25 9.375V10C26.25 10.4973 26.4475 10.9742 26.7992 11.3258C27.1508 11.6775 27.6277 11.875 28.125 11.875V13.75C27.9592 13.75 27.8003 13.6842 27.6831 13.5669C27.5658 13.4497 27.5 13.2908 27.5 13.125V12.5H26.25V13.125C26.25 13.6223 26.4475 14.0992 26.7992 14.4508C27.1508 14.8025 27.6277 15 28.125 15V15.625ZM27.5 10V9.375C27.5 9.20924 27.5658 9.05027 27.6831 8.93306C27.8003 8.81585 27.9592 8.75 28.125 8.75V10.625C27.9592 10.625 27.8003 10.5592 27.6831 10.4419C27.5658 10.3247 27.5 10.1658 27.5 10ZM29.375 11.875C29.5408 11.875 29.6997 11.9408 29.8169 12.0581C29.9342 12.1753 30 12.3342 30 12.5V13.125C30 13.2908 29.9342 13.4497 29.8169 13.5669C29.6997 13.6842 29.5408 13.75 29.375 13.75V11.875Z" fill="white"/>
</g>
<defs>
<clipPath id="clip0_1792_3191">
<rect width="40" height="40" fill="white"/>
</clipPath>
</defs>
</svg>
