<svg width="39" height="40" viewBox="0 0 39 40" fill="none" xmlns="http://www.w3.org/2000/svg">
<path d="M20.4747 13.1412C20.1184 13.1412 19.8295 13.4301 19.8295 13.7864V24.9186C19.8295 25.2748 20.1184 25.5637 20.4747 25.5637H24.4862C24.8425 25.5637 25.1314 25.2748 25.1314 24.9186V13.7864C25.1314 13.4301 24.8425 13.1412 24.4862 13.1412H20.4747ZM23.8411 24.2734H21.1198V14.4316H23.8411V24.2734ZM7.0738 11.9396C6.85493 11.6585 6.90534 11.2531 7.18647 11.0342L14.6352 5.2341C14.8042 5.10273 15.0272 5.06345 15.2307 5.1295L22.2803 7.41677L28.2022 1.44416L27.5607 1.50045C27.205 1.5319 26.8927 1.269 26.8616 0.914158C26.8304 0.559236 27.0929 0.24617 27.4479 0.215122L29.8726 0.00245943C30.0653 -0.0143955 30.2555 0.0560081 30.3906 0.194396C30.5258 0.332784 30.5917 0.524559 30.5702 0.716818L30.2997 3.13586C30.2629 3.46562 29.9836 3.70941 29.6594 3.70941C29.6354 3.70941 29.6113 3.70812 29.587 3.70538C29.2329 3.66578 28.9779 3.34667 29.0175 2.99256L29.0852 2.38634L22.9169 8.60734C22.7454 8.78025 22.4911 8.84194 22.2597 8.76678L15.158 6.46257L7.97913 12.0524C7.86131 12.1441 7.72179 12.1886 7.58324 12.1886C7.39115 12.1884 7.20106 12.1029 7.0738 11.9396ZM32.7564 19.099C32.6972 19.099 32.6388 19.1017 32.5801 19.1034V6.85217C32.5801 6.49588 32.2912 6.20701 31.9349 6.20701H27.9233C27.5671 6.20701 27.2782 6.49588 27.2782 6.85217V23.185C27.1241 23.7019 27.04 24.2489 27.04 24.8152C27.04 27.9672 29.6044 30.5316 32.7564 30.5316C35.9083 30.5316 38.4727 27.9672 38.4727 24.8152C38.4727 21.6633 35.9083 19.099 32.7564 19.099ZM28.5685 7.49734H31.2897V19.2905C30.2312 19.5718 29.2927 20.1499 28.5685 20.93V7.49734ZM32.7564 29.2413C30.3159 29.2413 28.3304 27.2558 28.3304 24.8153C28.3304 22.3748 30.3159 20.3893 32.7564 20.3893C35.1968 20.3893 37.1823 22.3748 37.1823 24.8153C37.1823 27.2558 35.1968 29.2413 32.7564 29.2413ZM35.0148 25.9247C35.0735 26.4074 34.9425 26.8498 34.6363 27.2039C34.3489 27.5362 33.9082 27.7755 33.4015 27.8855V28.0244C33.4015 28.3807 33.1126 28.6695 32.7564 28.6695C32.4001 28.6695 32.1112 28.3807 32.1112 28.0244V27.8743C31.3079 27.6749 30.6965 27.1097 30.5034 26.3355C30.4173 25.9898 30.6276 25.6396 30.9734 25.5534C31.3195 25.4671 31.6693 25.6776 31.7555 26.0233C31.8734 26.4967 32.3689 26.6625 32.7723 26.6625C32.784 26.6625 32.7955 26.6624 32.8072 26.6621C33.1628 26.6536 33.5137 26.5293 33.6602 26.3598C33.7068 26.3059 33.7521 26.2305 33.7338 26.0802C33.7164 25.9368 33.6755 25.6011 32.6564 25.4336C30.976 25.1577 30.6807 24.2 30.6542 23.6537C30.6113 22.7693 31.1922 22.0247 32.1111 21.7682V21.6063C32.1111 21.25 32.4 20.9611 32.7563 20.9611C33.1126 20.9611 33.4014 21.25 33.4014 21.6063V21.7624C33.9937 21.9215 34.5471 22.3177 34.8441 23.0251C34.9821 23.3536 34.8276 23.7318 34.499 23.8697C34.1708 24.0076 33.7923 23.8532 33.6544 23.5246C33.4164 22.9579 32.8259 22.9261 32.5146 22.9969C32.3752 23.0285 31.9222 23.1647 31.943 23.5912C31.9485 23.7065 31.9634 24.0123 32.8654 24.1605C34.1756 24.3755 34.8988 24.9691 35.0148 25.9247ZM10.0411 31.0397C9.14099 31.0397 8.40865 31.7721 8.40865 32.6721C8.40865 33.5722 9.14099 34.3046 10.0411 34.3046C10.9412 34.3046 11.6735 33.5722 11.6735 32.6721C11.6735 31.772 10.9412 31.0397 10.0411 31.0397ZM10.0411 33.0142C9.85245 33.0142 9.69898 32.8607 9.69898 32.6721C9.69898 32.4834 9.85245 32.33 10.0411 32.33C10.2297 32.33 10.3832 32.4834 10.3832 32.6721C10.3832 32.8608 10.2297 33.0142 10.0411 33.0142ZM10.0411 30.5676C10.8068 30.5676 11.4283 29.9682 11.456 29.2029L11.6508 23.8085C11.665 23.4152 11.5281 23.0575 11.255 22.7743C10.9818 22.4912 10.6293 22.3414 10.2358 22.3414H9.84624C9.45269 22.3414 9.10035 22.4911 8.8272 22.7743C8.55389 23.0576 8.41704 23.4152 8.43131 23.8084L8.62607 29.2029C8.65373 29.9682 9.27527 30.5677 10.0411 30.5676ZM9.75591 23.6701C9.78495 23.6399 9.80446 23.6317 9.84624 23.6317H10.2358C10.2778 23.6317 10.2972 23.64 10.3262 23.6701C10.3552 23.7002 10.3628 23.7198 10.3612 23.7617L10.1665 29.1562C10.1641 29.2241 10.109 29.2772 10.0411 29.2772C9.97317 29.2772 9.91809 29.2241 9.91559 29.1562L9.72083 23.7615C9.7193 23.7199 9.7268 23.7002 9.75591 23.6701ZM26.9579 31.5179L26.2082 31.2293C26.0893 30.8319 25.9303 30.4482 25.7328 30.0828L26.0591 29.3481C26.1674 29.1042 26.1145 28.8187 25.9257 28.6299L24.706 27.4103C24.5174 27.2216 24.232 27.1686 23.988 27.277L23.253 27.6034C22.8876 27.406 22.5041 27.247 22.1069 27.1282L21.8182 26.3782C21.7223 26.129 21.483 25.9648 21.2161 25.9648H19.4912C19.2243 25.9648 18.985 26.1291 18.8891 26.3782L18.6004 27.1282C18.2441 27.2348 17.8997 27.3754 17.5686 27.5453L16.4244 25.5636H17.0373C17.3936 25.5636 17.6825 25.2747 17.6825 24.9184V12.1144C17.6825 11.7581 17.3936 11.4692 17.0373 11.4692H13.0259C12.6696 11.4692 12.3807 11.7581 12.3807 12.1144V18.9588C11.7893 18.4475 11.0423 18.1442 10.2337 18.1023V17.081C10.2337 16.7247 9.94487 16.4358 9.58858 16.4358H5.57702C5.22073 16.4358 4.93186 16.7247 4.93186 17.081V23.3565L0.486595 31.0559C-0.162198 32.1796 -0.162198 33.5213 0.486595 34.6448C1.13531 35.7684 2.29717 36.4393 3.59468 36.4393H14.727L14.6482 36.6167C14.5399 36.8605 14.5929 37.146 14.7817 37.3347L16.0013 38.5544C16.19 38.7431 16.4754 38.7963 16.7193 38.6878L17.4543 38.3614C17.8197 38.5587 18.2032 38.7177 18.6005 38.8366L18.8891 39.5865C18.9849 39.8356 19.2243 40 19.4912 40H21.2161C21.483 40 21.7223 39.8356 21.8182 39.5866L22.1068 38.8368C22.5043 38.718 22.888 38.5589 23.2534 38.3615L23.9879 38.6878C24.232 38.7961 24.5172 38.7431 24.7061 38.5544L25.9258 37.3347C26.1145 37.146 26.1674 36.8606 26.0591 36.6167L25.7327 35.8817C25.93 35.5163 26.0891 35.1327 26.2079 34.7355L26.9579 34.4468C27.207 34.351 27.3713 34.1117 27.3713 33.8447V32.1199C27.3713 31.8531 27.207 31.6137 26.9579 31.5179ZM16.3922 12.7595V24.2734H15.6796L13.6711 20.7946V12.7595H16.3922ZM6.22219 17.7263H8.94341V18.2656C8.10607 18.5306 7.39114 19.0969 6.93292 19.8906L6.22219 21.1217V17.7263ZM1.60402 33.9997C1.18853 33.2801 1.18853 32.4208 1.60402 31.7012L8.0505 20.5357C8.46591 19.816 9.21011 19.3864 10.0412 19.3864C10.8721 19.3864 11.6162 19.816 12.0318 20.5357L16.0011 27.4107L14.7817 28.63C14.593 28.8187 14.5401 29.1041 14.6484 29.3481L14.9747 30.0829C14.7774 30.4483 14.6184 30.832 14.4995 31.2292L13.7496 31.5179C13.5005 31.6137 13.3362 31.8531 13.3362 32.12V33.8449C13.3362 34.1118 13.5005 34.3511 13.7496 34.447L14.4993 34.7355C14.5412 34.8754 14.5897 35.0128 14.6414 35.1491H3.59468C2.76378 35.1491 2.01951 34.7194 1.60402 33.9997ZM26.081 33.4018L25.4383 33.6492C25.2398 33.7255 25.0917 33.895 25.0425 34.1019C24.9245 34.5977 24.7287 35.07 24.4605 35.5055C24.349 35.6868 24.334 35.9113 24.4203 36.1057L24.7001 36.7356L24.107 37.3289L23.4774 37.0492C23.2829 36.9628 23.0584 36.9778 22.8771 37.0895C22.4418 37.3576 21.9694 37.5535 21.4732 37.6715C21.2663 37.7207 21.0969 37.8689 21.0205 38.0674L20.7731 38.7098H19.9343L19.687 38.0672C19.6106 37.8686 19.4413 37.7205 19.2343 37.6712C18.7384 37.5532 18.2661 37.3573 17.8307 37.0893C17.6496 36.9776 17.4249 36.9627 17.2306 37.0489L16.6006 37.3288L16.0075 36.7356L16.2872 36.1059C16.3734 35.9115 16.3584 35.6869 16.2468 35.5058C15.9788 35.0705 15.783 34.5981 15.6649 34.1018C15.6156 33.8949 15.4676 33.7255 15.2689 33.649L14.6266 33.4018V32.5629L15.2692 32.3156C15.4677 32.2392 15.6158 32.0698 15.665 31.8629C15.783 31.3669 15.9788 30.8946 16.2469 30.4592C16.3585 30.278 16.3735 30.0535 16.2872 29.8591L16.0075 29.2292L16.6006 28.636L17.2306 28.9158C17.4249 29.0021 17.6494 28.9871 17.8307 28.8755C18.2663 28.6073 18.7385 28.4116 19.2343 28.2936C19.4412 28.2443 19.6106 28.0962 19.687 27.8977L19.9344 27.2551H20.7731L21.0205 27.8977C21.0969 28.0962 21.2663 28.2443 21.4732 28.2936C21.9691 28.4116 22.4414 28.6074 22.8768 28.8755C23.0579 28.9871 23.2826 29.0021 23.4769 28.9158L24.1069 28.636L24.7 29.2291L24.4203 29.8588C24.3339 30.0533 24.349 30.2779 24.4606 30.4591C24.7287 30.8945 24.9246 31.3668 25.0426 31.8629C25.0919 32.0699 25.2399 32.2393 25.4385 32.3157L26.0809 32.5629V33.4018H26.081ZM20.3537 29.3292C18.3393 29.3292 16.7005 30.9681 16.7005 32.9825C16.7005 34.9968 18.3393 36.6356 20.3537 36.6356C22.3682 36.6356 24.007 34.9968 24.007 32.9825C24.007 30.968 22.3681 29.3292 20.3537 29.3292ZM20.3537 35.3453C19.0508 35.3453 17.9908 34.2853 17.9908 32.9825C17.9908 31.6796 19.0508 30.6196 20.3537 30.6196C21.6566 30.6196 22.7166 31.6796 22.7166 32.9825C22.7166 34.2854 21.6566 35.3453 20.3537 35.3453Z" fill="#F84923"/>
</svg>
