<svg width="37" height="41" viewBox="0 0 37 41" fill="none" xmlns="http://www.w3.org/2000/svg">
<path d="M12.0574 6.42024C12.0574 3.22476 9.45759 0.625 6.26203 0.625C3.06648 0.625 0.466797 3.22476 0.466797 6.42024C0.466797 9.61571 3.06656 12.2156 6.26211 12.2156C9.45767 12.2156 12.0574 9.61579 12.0574 6.42024H12.0574ZM1.57791 6.42024C1.57791 3.83738 3.67926 1.73611 6.26211 1.73611C8.84497 1.73611 10.9463 3.83738 10.9463 6.42024C10.9463 9.0031 8.84497 11.1044 6.26211 11.1044C3.67926 11.1044 1.57791 9.0031 1.57791 6.42024ZM6.26211 10.1272C5.95529 10.1272 5.70656 9.87849 5.70656 9.57167V9.14675C5.0733 9.02151 4.49624 8.70246 4.21505 8.18865C4.06775 7.91952 4.16648 7.58191 4.43561 7.4346C4.70465 7.2873 5.04235 7.38603 5.18965 7.65516C5.41386 8.06468 6.45219 8.23913 7.011 7.96103C7.15092 7.89143 7.24259 7.77103 7.26259 7.63064C7.27196 7.56484 7.27124 7.43929 7.16116 7.33786C7.06942 7.25325 6.87799 7.12913 6.48735 7.0181C6.37521 6.98627 6.24989 6.95659 6.11719 6.92524C5.67196 6.81992 5.16727 6.70048 4.7883 6.40643C4.42878 6.12746 4.21426 5.74786 4.18426 5.33738C4.15489 4.93548 4.30204 4.54389 4.59878 4.23484C4.86251 3.96016 5.25815 3.76992 5.70656 3.68437V3.26865C5.70656 2.96183 5.95529 2.7131 6.26211 2.7131C6.56894 2.7131 6.81767 2.96183 6.81767 3.26865V3.6873C7.46235 3.81159 7.9668 4.13865 8.21529 4.59984C8.36076 4.87 8.25981 5.2069 7.98965 5.35246C7.71949 5.49794 7.38259 5.3969 7.23711 5.1269C7.14315 4.95246 6.85696 4.80905 6.50799 4.76151C6.05965 4.70024 5.59394 4.80254 5.40029 5.00429C5.32457 5.08317 5.28624 5.1727 5.29235 5.25627C5.301 5.37444 5.39338 5.4696 5.46942 5.52857C5.65783 5.67476 6.03775 5.7646 6.37299 5.84389C6.51172 5.87675 6.65513 5.91063 6.79116 5.94937C7.27378 6.08659 7.65156 6.27881 7.9141 6.52079C8.26735 6.84635 8.43084 7.30794 8.36251 7.7873C8.29124 8.28754 7.971 8.72437 7.50584 8.95579C7.30013 9.0581 7.06545 9.12889 6.81759 9.16881V9.57159C6.81759 9.87841 6.56886 10.1271 6.26203 10.1271L6.26211 10.1272ZM20.8923 7.6331C20.7049 7.39016 20.7499 7.04127 20.9928 6.85389L24.7302 3.97071C24.8776 3.85706 25.0723 3.82468 25.2482 3.8846L29.4438 5.31032L33.5843 2.11611H33.4312C33.1244 2.11611 32.8757 1.86738 32.8757 1.56056C32.8757 1.25373 33.1244 1.005 33.4312 1.005H35.2141C35.3835 1.005 35.5436 1.0823 35.649 1.21492C35.7544 1.34754 35.7935 1.52095 35.7553 1.68603L35.37 3.34778C35.3105 3.60444 35.082 3.77802 34.8294 3.77802C34.7878 3.77802 34.7457 3.77333 34.7035 3.76349C34.4046 3.69421 34.2185 3.39579 34.2877 3.0969L34.3216 2.95071L29.8866 6.37214C29.7393 6.48587 29.5447 6.51825 29.3685 6.45825L25.173 5.03254L21.6715 7.73373C21.5704 7.81167 21.451 7.84944 21.3325 7.84944C21.1662 7.84944 21.0017 7.775 20.8923 7.6331ZM20.7335 12.8546H22.9344C23.2412 12.8546 23.49 12.6059 23.49 12.299V9.48159C23.49 9.17476 23.2412 8.92603 22.9344 8.92603H20.7335C20.4266 8.92603 20.1779 9.17476 20.1779 9.48159V12.299C20.1779 12.6059 20.4266 12.8546 20.7335 12.8546ZM21.289 10.0371H22.3789V11.7435H21.289V10.0371ZM27.8481 12.299V7.03833C27.8481 6.73151 27.5993 6.48278 27.2925 6.48278H25.0916C24.7847 6.48278 24.536 6.73151 24.536 7.03833V12.299C24.536 12.6059 24.7847 12.8546 25.0916 12.8546H27.2925C27.5993 12.8546 27.8481 12.6059 27.8481 12.299ZM26.737 11.7435H25.6471V7.59389H26.737V11.7435ZM29.4497 7.71532C29.1428 7.71532 28.8941 7.96405 28.8941 8.27087V12.299C28.8941 12.6059 29.1428 12.8546 29.4497 12.8546H31.6506C31.9574 12.8546 32.2062 12.6059 32.2062 12.299V8.27087C32.2062 7.96405 31.9574 7.71532 31.6506 7.71532H29.4497ZM31.0951 11.7435H30.0052V8.82643H31.0951V11.7435ZM36.0087 4.41381H33.8077C33.5008 4.41381 33.2521 4.66254 33.2521 4.96937V12.299C33.2521 12.6059 33.5008 12.8546 33.8077 12.8546H36.0087C36.3155 12.8546 36.5643 12.6059 36.5643 12.299V4.96944C36.5643 4.66262 36.3155 4.41389 36.0087 4.41389V4.41381ZM35.4531 11.7435H34.3632V5.525H35.4531V11.7435ZM13.1946 6.42032C13.1946 6.11349 13.4433 5.86476 13.7501 5.86476H17.0839L16.975 5.78405C16.7286 5.60135 16.677 5.25333 16.8597 5.00691C17.0424 4.76048 17.3904 4.70881 17.6368 4.89151L19.097 5.97405C19.2383 6.07881 19.3216 6.24437 19.3216 6.42032C19.3216 6.59627 19.2383 6.76183 19.097 6.86659L17.6368 7.94913C17.5374 8.02286 17.4213 8.05841 17.3063 8.05841C17.1363 8.05841 16.9686 7.98071 16.8597 7.83365C16.677 7.58722 16.7286 7.23921 16.975 7.05651L17.0839 6.97579H13.7501C13.4432 6.97579 13.1945 6.72706 13.1945 6.42024L13.1946 6.42032ZM23.9079 14.4541H20.2399C20.1512 14.2343 20.0107 14.0369 19.8203 13.8769C19.48 13.591 19.0516 13.4757 18.6137 13.5522L17.3807 13.7678C17.19 12.6207 16.1908 11.7436 14.9905 11.7436C13.7903 11.7436 12.791 12.6207 12.6003 13.7678L11.3673 13.5522C10.9293 13.4757 10.5009 13.591 10.1606 13.877C9.97021 14.037 9.82965 14.2343 9.741 14.4541H6.07299C4.89124 14.4541 3.92989 15.4156 3.92989 16.5972V38.4819C3.92989 39.6636 4.89132 40.625 6.07299 40.625H23.9078C25.0895 40.625 26.0509 39.6636 26.0509 38.4819V16.5972C26.0509 15.4156 25.0896 14.4541 23.9078 14.4541H23.9079ZM20.3288 17.1624H23.3428V37.9167H6.63815V17.1623H9.65219C9.71537 17.3997 9.93124 17.5749 10.1885 17.5749H19.7924C20.0497 17.5749 20.2655 17.3998 20.3287 17.1623L20.3288 17.1624ZM10.744 15.0097C10.744 14.891 10.7846 14.804 10.8754 14.7276C10.9663 14.6513 11.0589 14.6263 11.1759 14.6467L13.0274 14.9704C13.1889 14.9985 13.3547 14.9539 13.4804 14.8484C13.606 14.7429 13.6785 14.5871 13.6785 14.4231V14.1666C13.6785 13.4432 14.2671 12.8547 14.9904 12.8547C15.7138 12.8547 16.3024 13.4433 16.3024 14.1666V14.4231C16.3024 14.5871 16.3749 14.7429 16.5005 14.8484C16.6262 14.9539 16.7919 14.9984 16.9535 14.9704L18.805 14.6467C18.922 14.6262 19.0147 14.6513 19.1055 14.7276C19.1964 14.804 19.237 14.891 19.237 15.0097V16.4639H10.7441V15.0097H10.744ZM24.9399 38.482C24.9399 39.051 24.477 39.514 23.9079 39.514H6.07307C5.50402 39.514 5.04108 39.051 5.04108 38.482V16.5972C5.04108 16.0282 5.50402 15.5652 6.07307 15.5652H9.63291V16.0513H6.08259C5.77576 16.0513 5.52703 16.3 5.52703 16.6068V38.4723C5.52703 38.7791 5.77576 39.0279 6.08259 39.0279H23.8984C24.2052 39.0279 24.4539 38.7791 24.4539 38.4723V16.6067C24.4539 16.4594 24.3954 16.3181 24.2912 16.2139C24.187 16.1098 24.0458 16.0512 23.8984 16.0512H20.3481V15.5652H23.9079C24.477 15.5652 24.9399 16.0281 24.9399 16.5971V38.482ZM12.642 26.0117C12.8589 26.2287 12.8589 26.5805 12.642 26.7974L10.372 29.0675C10.2671 29.1723 10.1255 29.2302 9.97918 29.2302C9.95505 29.2302 9.93084 29.2286 9.90664 29.2254C9.73537 29.2029 9.58442 29.102 9.49807 28.9524L8.89259 27.9037C8.73918 27.6379 8.83021 27.2982 9.09592 27.1448C9.36164 26.9914 9.7014 27.0825 9.85481 27.3481L10.0983 27.7698L11.8564 26.0117C12.0733 25.7948 12.4251 25.7948 12.642 26.0117ZM12.642 32.2512C12.8589 32.4682 12.8589 32.8199 12.642 33.0368L10.372 35.3069C10.2671 35.4117 10.1255 35.4696 9.97918 35.4696C9.95505 35.4696 9.93084 35.468 9.90664 35.4648C9.73537 35.4423 9.58442 35.3414 9.49807 35.1918L8.89259 34.1431C8.73918 33.8774 8.83021 33.5376 9.09592 33.3842C9.36164 33.2309 9.7014 33.3218 9.85481 33.5875L10.0983 34.0093L11.8564 32.2512C12.0733 32.0343 12.4251 32.0343 12.642 32.2512ZM14.2167 22.4302C14.2167 22.1233 14.4654 21.8746 14.7723 21.8746H20.5686C20.8754 21.8746 21.1242 22.1233 21.1242 22.4302C21.1242 22.737 20.8754 22.9857 20.5686 22.9857H14.7723C14.4654 22.9857 14.2167 22.737 14.2167 22.4302ZM14.2167 20.1703C14.2167 19.8635 14.4654 19.6148 14.7723 19.6148H20.6073C20.9141 19.6148 21.1628 19.8635 21.1628 20.1703C21.1628 20.4771 20.9141 20.7259 20.6073 20.7259H14.7723C14.4654 20.7259 14.2167 20.4771 14.2167 20.1703ZM14.2167 28.6695C14.2167 28.3627 14.4654 28.114 14.7723 28.114H20.5686C20.8754 28.114 21.1242 28.3627 21.1242 28.6695C21.1242 28.9763 20.8754 29.2251 20.5686 29.2251H14.7723C14.4654 29.2251 14.2167 28.9763 14.2167 28.6695ZM14.2167 26.4097C14.2167 26.1029 14.4654 25.8541 14.7723 25.8541H20.5686C20.8754 25.8541 21.1242 26.1029 21.1242 26.4097C21.1242 26.7165 20.8754 26.9652 20.5686 26.9652H14.7723C14.4654 26.9652 14.2167 26.7165 14.2167 26.4097ZM14.2167 32.649C14.2167 32.3422 14.4654 32.0935 14.7723 32.0935H20.5686C20.8754 32.0935 21.1242 32.3422 21.1242 32.649C21.1242 32.9559 20.8754 33.2046 20.5686 33.2046H14.7723C14.4654 33.2046 14.2167 32.9559 14.2167 32.649ZM14.2167 34.9089C14.2167 34.6021 14.4654 34.3533 14.7723 34.3533H20.5686C20.8754 34.3533 21.1242 34.6021 21.1242 34.9089C21.1242 35.2157 20.8754 35.4644 20.5686 35.4644H14.7723C14.4654 35.4644 14.2167 35.2157 14.2167 34.9089ZM10.0982 21.5305L11.8563 19.7724C12.0732 19.5555 12.425 19.5555 12.642 19.7724C12.8589 19.9894 12.8589 20.3411 12.642 20.558L10.3719 22.8281C10.267 22.9329 10.1254 22.9908 9.9791 22.9908C9.95497 22.9908 9.93076 22.9892 9.90656 22.986C9.73529 22.9635 9.58434 22.8626 9.49799 22.713L8.89251 21.6644C8.7391 21.3987 8.83013 21.0589 9.09584 20.9055C9.36156 20.7521 9.70132 20.8431 9.85473 21.1088L10.0982 21.5305ZM32.301 15.6168C31.7851 15.101 31.1016 14.8168 30.3762 14.8168H30.3761C29.6506 14.8168 28.967 15.101 28.4512 15.6168C27.9354 16.1327 27.6513 16.8163 27.6513 17.5417V34.3763C27.6513 34.4481 27.6653 34.5192 27.6924 34.5857L29.8617 39.9163C29.9469 40.1256 30.1503 40.2624 30.3762 40.2624C30.6022 40.2624 30.8056 40.1255 30.8908 39.9163L33.06 34.5857C33.0871 34.5192 33.1011 34.4481 33.1011 34.3763V17.5417C33.1011 16.8163 32.8169 16.1327 32.301 15.6168ZM29.0327 34.9318H31.7196L30.929 36.8744H29.8232L29.0327 34.9318ZM28.7624 33.8207V20.6833H31.9899V33.8208H28.7624V33.8207ZM31.9899 19.5721H28.7624V18.8987H31.9899V19.5721ZM29.2369 16.4024C29.5428 16.0964 29.9475 15.9279 30.3762 15.9279C30.8048 15.9279 31.2094 16.0963 31.5154 16.4024C31.8213 16.7084 31.9899 17.113 31.9899 17.5417V17.7875H28.7624V17.5417C28.7624 17.1129 28.9308 16.7083 29.2369 16.4024ZM30.2755 37.9854H30.477L30.3762 38.2329L30.2755 37.9854Z" fill="#F84923"/>
</svg>
