<svg width="41" height="40" viewBox="0 0 41 40" fill="none" xmlns="http://www.w3.org/2000/svg">
<g clip-path="url(#clip0_1792_2662)">
<path d="M3.36986 42.4932H37.0685C37.9619 42.4921 38.8184 42.1367 39.4502 41.505C40.0819 40.8732 40.4373 40.0167 40.4384 39.1233V8.12056C40.4373 7.22715 40.0819 6.37063 39.4502 5.73889C38.8184 5.10715 37.9619 4.75177 37.0685 4.7507H35.7206V4.07673C35.7206 3.54048 35.5075 3.0262 35.1283 2.64702C34.7492 2.26783 34.2349 2.05481 33.6986 2.05481C33.1624 2.05481 32.6481 2.26783 32.2689 2.64702C31.8897 3.0262 31.6767 3.54048 31.6767 4.07673V4.7507H28.9808V4.07673C28.9808 3.54048 28.7678 3.0262 28.3886 2.64702C28.0094 2.26783 27.4952 2.05481 26.9589 2.05481C26.4227 2.05481 25.9084 2.26783 25.5292 2.64702C25.15 3.0262 24.937 3.54048 24.937 4.07673V4.7507H22.2411V4.07673C22.2411 3.54048 22.0281 3.0262 21.6489 2.64702C21.2697 2.26783 20.7554 2.05481 20.2192 2.05481C19.6829 2.05481 19.1687 2.26783 18.7895 2.64702C18.4103 3.0262 18.1973 3.54048 18.1973 4.07673V4.7507H15.5014V4.07673C15.5014 3.54048 15.2883 3.0262 14.9092 2.64702C14.53 2.26783 14.0157 2.05481 13.4795 2.05481C12.9432 2.05481 12.4289 2.26783 12.0497 2.64702C11.6706 3.0262 11.4575 3.54048 11.4575 4.07673V4.7507H8.76164V4.07673C8.76164 3.54048 8.54862 3.0262 8.16944 2.64702C7.79026 2.26783 7.27597 2.05481 6.73973 2.05481C6.20348 2.05481 5.6892 2.26783 5.31001 2.64702C4.93083 3.0262 4.71781 3.54048 4.71781 4.07673V4.7507H3.36986C2.47645 4.75177 1.61993 5.10715 0.988192 5.73889C0.356452 6.37063 0.00107017 7.22715 0 8.12056L0 39.1233C0.00107017 40.0167 0.356452 40.8732 0.988192 41.505C1.61993 42.1367 2.47645 42.4921 3.36986 42.4932ZM37.0685 41.1452H3.36986C2.83362 41.1452 2.31933 40.9322 1.94015 40.553C1.56097 40.1738 1.34795 39.6596 1.34795 39.1233V11.4904H39.0904V39.1233C39.0904 39.6596 38.8774 40.1738 38.4982 40.553C38.119 40.9322 37.6047 41.1452 37.0685 41.1452ZM33.0247 4.07673C33.0247 3.89798 33.0957 3.72655 33.2221 3.60016C33.3485 3.47376 33.5199 3.40275 33.6986 3.40275C33.8774 3.40275 34.0488 3.47376 34.1752 3.60016C34.3016 3.72655 34.3726 3.89798 34.3726 4.07673V6.77262C34.3726 6.95137 34.3016 7.12279 34.1752 7.24919C34.0488 7.37558 33.8774 7.44659 33.6986 7.44659C33.5199 7.44659 33.3485 7.37558 33.2221 7.24919C33.0957 7.12279 33.0247 6.95137 33.0247 6.77262V4.07673ZM26.2849 4.07673C26.2849 3.89798 26.3559 3.72655 26.4823 3.60016C26.6087 3.47376 26.7802 3.40275 26.9589 3.40275C27.1377 3.40275 27.3091 3.47376 27.4355 3.60016C27.5619 3.72655 27.6329 3.89798 27.6329 4.07673V6.77262C27.6329 6.95137 27.5619 7.12279 27.4355 7.24919C27.3091 7.37558 27.1377 7.44659 26.9589 7.44659C26.7802 7.44659 26.6087 7.37558 26.4823 7.24919C26.3559 7.12279 26.2849 6.95137 26.2849 6.77262V4.07673ZM19.5452 4.07673C19.5452 3.89798 19.6162 3.72655 19.7426 3.60016C19.869 3.47376 20.0404 3.40275 20.2192 3.40275C20.3979 3.40275 20.5694 3.47376 20.6958 3.60016C20.8221 3.72655 20.8932 3.89798 20.8932 4.07673V6.77262C20.8932 6.95137 20.8221 7.12279 20.6958 7.24919C20.5694 7.37558 20.3979 7.44659 20.2192 7.44659C20.0404 7.44659 19.869 7.37558 19.7426 7.24919C19.6162 7.12279 19.5452 6.95137 19.5452 6.77262V4.07673ZM12.8055 4.07673C12.8055 3.89798 12.8765 3.72655 13.0029 3.60016C13.1293 3.47376 13.3007 3.40275 13.4795 3.40275C13.6582 3.40275 13.8296 3.47376 13.956 3.60016C14.0824 3.72655 14.1534 3.89798 14.1534 4.07673V6.77262C14.1534 6.95137 14.0824 7.12279 13.956 7.24919C13.8296 7.37558 13.6582 7.44659 13.4795 7.44659C13.3007 7.44659 13.1293 7.37558 13.0029 7.24919C12.8765 7.12279 12.8055 6.95137 12.8055 6.77262V4.07673ZM6.06575 4.07673C6.06575 3.89798 6.13676 3.72655 6.26316 3.60016C6.38955 3.47376 6.56098 3.40275 6.73973 3.40275C6.91848 3.40275 7.0899 3.47376 7.2163 3.60016C7.34269 3.72655 7.4137 3.89798 7.4137 4.07673V6.77262C7.4137 6.95137 7.34269 7.12279 7.2163 7.24919C7.0899 7.37558 6.91848 7.44659 6.73973 7.44659C6.56098 7.44659 6.38955 7.37558 6.26316 7.24919C6.13676 7.12279 6.06575 6.95137 6.06575 6.77262V4.07673ZM3.36986 6.09865H4.71781V6.77262C4.71781 7.30886 4.93083 7.82315 5.31001 8.20233C5.6892 8.58151 6.20348 8.79454 6.73973 8.79454C7.27597 8.79454 7.79026 8.58151 8.16944 8.20233C8.54862 7.82315 8.76164 7.30886 8.76164 6.77262V6.09865H11.4575V6.77262C11.4575 7.30886 11.6706 7.82315 12.0497 8.20233C12.4289 8.58151 12.9432 8.79454 13.4795 8.79454C14.0157 8.79454 14.53 8.58151 14.9092 8.20233C15.2883 7.82315 15.5014 7.30886 15.5014 6.77262V6.09865H18.1973V6.77262C18.1973 7.30886 18.4103 7.82315 18.7895 8.20233C19.1687 8.58151 19.6829 8.79454 20.2192 8.79454C20.7554 8.79454 21.2697 8.58151 21.6489 8.20233C22.0281 7.82315 22.2411 7.30886 22.2411 6.77262V6.09865H24.937V6.77262C24.937 7.30886 25.15 7.82315 25.5292 8.20233C25.9084 8.58151 26.4227 8.79454 26.9589 8.79454C27.4952 8.79454 28.0094 8.58151 28.3886 8.20233C28.7678 7.82315 28.9808 7.30886 28.9808 6.77262V6.09865H31.6767V6.77262C31.6767 7.30886 31.8897 7.82315 32.2689 8.20233C32.6481 8.58151 33.1624 8.79454 33.6986 8.79454C34.2349 8.79454 34.7492 8.58151 35.1283 8.20233C35.5075 7.82315 35.7206 7.30886 35.7206 6.77262V6.09865H37.0685C37.6047 6.09865 38.119 6.31167 38.4982 6.69085C38.8774 7.07003 39.0904 7.58432 39.0904 8.12056V10.1425H1.34795V8.12056C1.34795 7.58432 1.56097 7.07003 1.94015 6.69085C2.31933 6.31167 2.83362 6.09865 3.36986 6.09865Z" fill="#F84923"/>
<path d="M31.0034 12.8384C29.6704 12.8384 28.3674 13.2337 27.259 13.9742C26.1507 14.7148 25.2868 15.7674 24.7767 16.9989C24.2666 18.2304 24.1331 19.5856 24.3932 20.893C24.6532 22.2003 25.2951 23.4012 26.2377 24.3438C27.1803 25.2864 28.3812 25.9283 29.6885 26.1883C30.9959 26.4484 32.3511 26.3149 33.5826 25.8048C34.8141 25.2947 35.8667 24.4308 36.6073 23.3225C37.3479 22.2142 37.7431 20.9111 37.7431 19.5781C37.7412 17.7912 37.0305 16.0781 35.7669 14.8146C34.5034 13.551 32.7903 12.8403 31.0034 12.8384ZM31.0034 24.9699C29.937 24.9699 28.8946 24.6537 28.0079 24.0612C27.1212 23.4688 26.4301 22.6267 26.022 21.6415C25.614 20.6562 25.5072 19.5721 25.7152 18.5262C25.9233 17.4803 26.4368 16.5196 27.1908 15.7655C27.9449 15.0115 28.9056 14.498 29.9515 14.2899C30.9974 14.0819 32.0815 14.1887 33.0667 14.5967C34.052 15.0048 34.894 15.6959 35.4865 16.5826C36.079 17.4693 36.3952 18.5117 36.3952 19.5781C36.3936 21.0076 35.825 22.3781 34.8142 23.3889C33.8034 24.3997 32.4329 24.9683 31.0034 24.9699Z" fill="#F84923"/>
<path d="M27.3118 32.3983C27.049 32.3646 26.7821 32.3837 26.5268 32.4545C26.2715 32.5254 26.0329 32.6465 25.8251 32.8108C25.4446 33.0778 25.0445 33.3155 24.6281 33.5219C23.5708 30.4133 22.9245 27.1798 22.7059 23.9036C22.7484 23.88 22.7929 23.8591 22.8353 23.8362C23.2957 23.5684 23.6319 23.1297 23.7707 22.6154C23.9095 22.1012 23.8398 21.5529 23.5767 21.0898C23.4471 20.8579 23.2725 20.6544 23.0631 20.4909C22.8537 20.3275 22.6138 20.2076 22.3575 20.1381C22.1004 20.0676 21.8319 20.0485 21.5674 20.0819C21.3029 20.1153 21.0476 20.2006 20.8161 20.3329C20.7817 20.3518 17.4132 22.2126 9.62815 23.2721C8.87213 20.1173 7.84894 17.0327 6.56966 14.0515C6.34315 13.5791 5.94213 13.2131 5.45109 13.0305C4.96006 12.848 4.41733 12.8631 3.93725 13.0728C3.45718 13.2825 3.07722 13.6703 2.87743 14.1546C2.67763 14.6389 2.6736 15.1818 2.86618 15.669C5.33853 21.8722 6.84134 28.419 7.32182 35.0794C6.76111 34.961 6.21075 34.7981 5.67598 34.5921C5.18978 34.3657 4.63357 34.3418 4.12969 34.5255C3.62582 34.7092 3.21557 35.0856 2.98918 35.5718C2.7628 36.0579 2.73883 36.6142 2.92254 37.118C3.10625 37.6219 3.48261 38.0322 3.9688 38.2585C4.30646 38.4156 7.45931 39.7972 14.1539 39.7972C23.3502 39.7972 28.1152 36.1531 28.314 35.9974C28.6289 35.7508 28.8635 35.4165 28.9884 35.0366C29.1132 34.6567 29.1225 34.2483 29.0153 33.8631C28.908 33.4778 28.6889 33.1331 28.3857 32.8723C28.0825 32.6116 27.7088 32.4467 27.3118 32.3983ZM23.3988 34.0833C23.018 34.2396 22.5988 34.3994 22.129 34.5551C21.8324 33.751 21.5548 32.9038 21.3148 31.994C20.9746 30.7403 20.7004 29.4697 20.4933 28.1874C20.3342 27.2135 20.2048 26.1796 20.0983 25.0527C20.5377 24.8997 20.9745 24.7333 21.4045 24.5466C21.6604 27.7979 22.3306 31.0032 23.3988 34.0846V34.0833ZM10.9336 30.2268L19.2855 29.0534C19.4437 29.9327 19.6263 30.784 19.8334 31.6071L11.2066 32.8007C11.1318 31.9448 11.0442 31.0861 10.9336 30.2268ZM18.7841 25.4767C18.8629 26.2679 18.9539 27.0133 19.0591 27.727L10.7362 28.8957C10.6533 28.3437 10.5717 27.7917 10.474 27.2431C12.5395 26.9573 14.5886 26.5627 16.6125 26.061C17.3121 25.8824 18.044 25.6937 18.7841 25.4767ZM11.3906 35.657C11.3697 35.1549 11.3407 34.6528 11.3077 34.15L20.1819 32.9227C20.3814 33.6232 20.5984 34.2938 20.8329 34.9345C18.6511 35.4935 16.4062 35.7687 14.1539 35.7534C13.1362 35.7534 12.2196 35.7163 11.3906 35.657ZM21.486 21.5036C21.6413 21.4156 21.8252 21.3927 21.9973 21.4401C22.1694 21.4875 22.3156 21.6012 22.404 21.7563C22.4487 21.8323 22.4779 21.9164 22.4898 22.0038C22.5017 22.0912 22.4962 22.18 22.4734 22.2652C22.4506 22.3504 22.4111 22.4302 22.3572 22.5C22.3033 22.5697 22.236 22.6281 22.1593 22.6716C20.3021 23.6282 18.3247 24.3309 16.2803 24.7609C14.2804 25.2561 12.2556 25.6446 10.2145 25.9248C10.1255 25.48 10.044 25.0339 9.94492 24.5924C17.9955 23.4729 21.4887 21.5002 21.4867 21.5002L21.486 21.5036ZM4.10292 15.1298C4.0316 14.9664 4.02793 14.7814 4.09274 14.6153C4.15754 14.4492 4.28553 14.3155 4.44867 14.2435C4.52852 14.2073 4.61483 14.1876 4.70247 14.1854C4.79011 14.1832 4.87731 14.1986 4.95887 14.2307C5.04165 14.2631 5.11718 14.3115 5.18105 14.3733C5.24492 14.4351 5.29586 14.509 5.3309 14.5906C8.13906 21.2332 9.73133 28.3262 10.0319 35.5317C9.53761 35.475 9.0883 35.413 8.68392 35.3456C8.22255 28.4091 6.6768 21.5877 4.10292 15.1298ZM27.483 34.9352C27.3004 35.0794 22.8906 38.4493 14.1539 38.4493C7.63993 38.4493 4.66232 37.0946 4.54033 37.0373C4.40163 36.9721 4.28929 36.8616 4.22185 36.724C4.1544 36.5863 4.13587 36.4298 4.16932 36.2803C4.20277 36.1307 4.28619 35.997 4.40583 35.9012C4.52547 35.8054 4.67418 35.7533 4.82744 35.7534C4.92735 35.7533 5.02605 35.7752 5.11658 35.8174C5.23385 35.8713 8.04769 37.1013 14.1539 37.1013C22.4377 37.1013 26.6116 33.9067 26.6534 33.8744C26.7946 33.771 26.9706 33.7266 27.144 33.7507C27.3174 33.7747 27.4746 33.8653 27.5824 34.0032C27.6902 34.1411 27.7401 34.3156 27.7216 34.4897C27.703 34.6637 27.6175 34.8231 27.483 34.9352Z" fill="#F84923"/>
<path d="M31.0034 18.904C30.8852 18.9039 30.769 18.8727 30.6666 18.8135C30.5642 18.7542 30.4792 18.6691 30.4202 18.5666C30.3611 18.4642 30.3301 18.3479 30.3301 18.2297C30.3302 18.1114 30.3614 17.9952 30.4206 17.8928C30.4798 17.7904 30.5649 17.7054 30.6673 17.6463C30.7698 17.5872 30.886 17.5561 31.0043 17.5561C31.1225 17.5561 31.2387 17.5873 31.3412 17.6464C31.4436 17.7056 31.5286 17.7907 31.5878 17.8931C31.68 18.0421 31.8266 18.1494 31.9965 18.1921C32.1664 18.2349 32.3463 18.2097 32.4981 18.1221C32.6498 18.0344 32.7614 17.8911 32.8093 17.7226C32.8571 17.554 32.8375 17.3734 32.7544 17.2191C32.5104 16.8088 32.1288 16.4984 31.6774 16.3429V16.2082C31.6774 16.0294 31.6064 15.858 31.48 15.7316C31.3536 15.6052 31.1822 15.5342 31.0034 15.5342C30.8247 15.5342 30.6533 15.6052 30.5269 15.7316C30.4005 15.858 30.3295 16.0294 30.3295 16.2082V16.3322C29.8802 16.4904 29.5013 16.8026 29.2601 17.2134C29.0189 17.6242 28.9309 18.1071 29.0116 18.5766C29.0923 19.0461 29.3366 19.4719 29.7012 19.7785C30.0657 20.0852 30.5271 20.2529 31.0034 20.252C31.1217 20.2521 31.2379 20.2833 31.3403 20.3426C31.4427 20.4018 31.5277 20.4869 31.5867 20.5894C31.6458 20.6919 31.6768 20.8081 31.6768 20.9264C31.6767 21.0446 31.6455 21.1608 31.5863 21.2632C31.5271 21.3656 31.442 21.4507 31.3396 21.5098C31.2371 21.5689 31.1209 21.6 31.0026 21.5999C30.8843 21.5999 30.7682 21.5687 30.6657 21.5096C30.5633 21.4504 30.4783 21.3654 30.4191 21.2629C30.3764 21.1835 30.3181 21.1134 30.2478 21.0569C30.1774 21.0004 30.0965 20.9586 30.0097 20.934C29.9229 20.9093 29.832 20.9024 29.7425 20.9135C29.653 20.9246 29.5666 20.9536 29.4885 20.9987C29.4104 21.0439 29.3421 21.1042 29.2877 21.1762C29.2334 21.2482 29.194 21.3304 29.172 21.4179C29.15 21.5054 29.1458 21.5964 29.1596 21.6856C29.1734 21.7747 29.205 21.8602 29.2525 21.9369C29.4968 22.3475 29.879 22.6579 30.3308 22.8131V22.9479C30.3308 23.1266 30.4018 23.2981 30.5282 23.4244C30.6546 23.5508 30.826 23.6219 31.0048 23.6219C31.1835 23.6219 31.355 23.5508 31.4814 23.4244C31.6078 23.2981 31.6788 23.1266 31.6788 22.9479V22.8239C32.1282 22.6656 32.5071 22.3533 32.7483 21.9423C32.9895 21.5314 33.0774 21.0483 32.9965 20.5788C32.9156 20.1092 32.6711 19.6834 32.3063 19.3769C31.9415 19.0703 31.4799 18.9028 31.0034 18.904Z" fill="#F84923"/>
</g>
<defs>
<clipPath id="clip0_1792_2662">
<rect width="40.4384" height="40" fill="white"/>
</clipPath>
</defs>
</svg>
