<svg width="60" height="60" viewBox="0 0 60 60" fill="none" xmlns="http://www.w3.org/2000/svg">
<g clip-path="url(#clip0_135_329)">
<path d="M57.4485 29.7838L57.4042 29.7854C56.0433 29.8366 54.8686 30.7929 54.5477 32.111L53.6061 35.9776C52.7117 39.6497 50.2515 42.7078 46.8562 44.3676C46.4575 44.5624 46.0076 44.5197 45.6528 44.253C45.298 43.9864 45.1318 43.5662 45.2081 43.129L45.9514 38.8716C46.1753 37.5887 45.3505 36.3833 44.0735 36.1274C43.1042 35.9334 42.1337 36.3457 41.6007 37.1783L36.7897 44.6935C36.1009 44.197 35.1324 44.2564 34.513 44.8756L31.0233 48.3654C30.9416 48.447 30.8769 48.5439 30.8327 48.6505C30.7885 48.7571 30.7658 48.8714 30.7658 48.9869C30.7658 49.1023 30.7885 49.2166 30.8327 49.3232C30.8769 49.4299 30.9416 49.5268 31.0233 49.6084L41.156 59.7411C41.3276 59.9126 41.5526 59.9984 41.7775 59.9984C42.0024 59.9984 42.2274 59.9126 42.3991 59.7411L45.8888 56.2514C46.5414 55.5986 46.5733 54.5578 45.9863 53.8654C47.1178 53.2352 48.2034 52.5259 49.235 51.7428C49.4207 51.6019 49.5428 51.393 49.5744 51.1621C49.6061 50.9312 49.5447 50.6971 49.4038 50.5114C49.2629 50.3257 49.054 50.2036 48.8231 50.172C48.5922 50.1403 48.3581 50.2016 48.1724 50.3425C46.3903 51.6945 44.8966 52.4518 44.6999 52.5686L38.0761 45.9447L43.0811 38.1262C43.1485 38.0203 43.2464 37.9373 43.3619 37.8882C43.4774 37.8391 43.6051 37.8261 43.7281 37.8511C43.888 37.8822 44.0292 37.975 44.1212 38.1094C44.2132 38.2438 44.2485 38.409 44.2196 38.5693L43.4763 42.8267C43.2869 43.9118 43.7163 44.9968 44.5967 45.6583C45.4773 46.32 46.6387 46.4305 47.6281 45.9468C51.494 44.0569 54.2955 40.5749 55.3138 36.3936L56.2554 32.527C56.5585 31.282 58.3493 31.2241 58.2438 32.3152C57.6653 38.2789 55 43.8899 50.7387 48.1143C50.5758 48.279 50.4845 48.5013 50.4846 48.7329C50.4848 48.9645 50.5763 49.1868 50.7394 49.3512C50.9024 49.5157 51.1238 49.6092 51.3555 49.6113C51.5871 49.6135 51.8102 49.5241 51.9762 49.3626C56.5282 44.85 59.3754 38.856 59.9932 32.4847C60.1366 31.009 58.9502 29.7306 57.4485 29.7838ZM41.7775 57.8766L32.8884 48.9875L35.7638 46.1186L44.6457 55.0082L41.7775 57.8766ZM18.5912 14.8226L19.7598 15.4702C19.7695 15.4756 19.7776 15.4836 19.7832 15.4933L21.6116 18.6599C21.6172 18.6695 21.62 18.6805 21.6198 18.6917L21.5965 20.0277C21.5909 20.3523 21.6723 20.6725 21.8321 20.955C21.992 21.2376 22.2245 21.4722 22.5056 21.6346L25.1539 23.1634C25.4304 23.3232 25.7441 23.4073 26.0634 23.4072C26.3879 23.4072 26.7122 23.3206 27 23.1475L28.1458 22.459C28.1553 22.4534 28.166 22.4505 28.177 22.4506H31.8337C31.8449 22.4506 31.8558 22.4535 31.8652 22.4592L33.0108 23.1476C33.289 23.3147 33.607 23.4043 33.9315 23.4071C34.2561 23.41 34.5756 23.3258 34.8567 23.1635L37.505 21.6346C37.7861 21.4722 38.0186 21.2376 38.1785 20.955C38.3383 20.6725 38.4197 20.3523 38.4141 20.0277L38.3909 18.6917C38.3907 18.6806 38.3935 18.6696 38.399 18.66L40.2276 15.4932C40.2331 15.4837 40.241 15.4758 40.2506 15.4704L41.4194 14.8226C41.7033 14.6652 41.9399 14.4347 42.1047 14.1549C42.2694 13.8752 42.3564 13.5565 42.3564 13.2319V10.1739C42.3563 9.84929 42.2694 9.5306 42.1046 9.25089C41.9399 8.97119 41.7033 8.74066 41.4194 8.58321L40.2509 7.93563C40.2412 7.93013 40.233 7.92212 40.2274 7.91243L40.1218 7.7295C40.0037 7.53061 39.812 7.38627 39.5883 7.32779C39.3645 7.2693 39.1267 7.30137 38.9264 7.41706C38.7261 7.53274 38.5795 7.72271 38.5184 7.94577C38.4572 8.16883 38.4865 8.407 38.5998 8.60864L38.7051 8.79133C38.8701 9.07719 39.1098 9.31275 39.3985 9.47278L40.5671 10.1205C40.5866 10.1314 40.5987 10.1518 40.5987 10.1739V13.2319C40.5987 13.2428 40.5958 13.2535 40.5903 13.2628C40.5848 13.2722 40.5768 13.2799 40.5673 13.2852L39.3982 13.9333C39.1097 14.0933 38.8702 14.3287 38.7052 14.6144L36.8766 17.7812C36.7118 18.0671 36.6277 18.3923 36.6334 18.7223L36.6566 20.0583C36.6568 20.0692 36.654 20.0799 36.6487 20.0894C36.6433 20.0989 36.6355 20.1068 36.6261 20.1122L33.9777 21.6413C33.9683 21.6466 33.9576 21.6494 33.9468 21.6493C33.9359 21.6492 33.9253 21.6462 33.916 21.6407L32.7706 20.9524C32.4877 20.7825 32.1639 20.6927 31.8338 20.6926H28.1771C27.8469 20.6926 27.5229 20.7825 27.2404 20.9524L26.0948 21.6407C26.0855 21.6463 26.0749 21.6493 26.0641 21.6494C26.0532 21.6494 26.0426 21.6466 26.0332 21.6412L23.3849 20.1123C23.3754 20.1069 23.3676 20.099 23.3622 20.0895C23.3568 20.08 23.3541 20.0692 23.3543 20.0583L23.3776 18.7223C23.3833 18.3923 23.2992 18.067 23.1342 17.7811L21.3059 14.6145C21.1408 14.3286 20.9011 14.0931 20.6125 13.933L19.4436 13.2852C19.4341 13.28 19.4262 13.2722 19.4207 13.2629C19.4151 13.2535 19.4122 13.2428 19.4122 13.2319V10.1739C19.4122 10.1518 19.4244 10.1313 19.4435 10.1206L20.6128 9.47254C20.9013 9.31257 21.1408 9.07713 21.3057 8.79145L23.1343 5.62458C23.2992 5.33876 23.3833 5.01349 23.3776 4.68357L23.3543 3.34752C23.3541 3.33665 23.3568 3.32593 23.3622 3.31647C23.3675 3.30701 23.3753 3.29916 23.3848 3.29373L26.0333 1.76455C26.0427 1.75913 26.0534 1.75633 26.0642 1.75646C26.0751 1.75658 26.0857 1.75962 26.0949 1.76525L27.2406 2.45361C27.5234 2.62347 27.8472 2.71324 28.1771 2.7133H31.8338C32.1638 2.71322 32.4876 2.62342 32.7705 2.45349L33.916 1.76525C33.9253 1.75961 33.936 1.75658 33.9468 1.75648C33.9577 1.75638 33.9684 1.75921 33.9778 1.76467L36.6263 3.29384C36.6453 3.30486 36.657 3.32548 36.6566 3.34752L36.6334 4.68368C36.6295 4.96447 36.6904 5.24236 36.8114 5.49579C36.9136 5.70271 37.0932 5.86109 37.3113 5.93675C37.5293 6.0124 37.7684 5.99926 37.9768 5.90015C38.1853 5.80104 38.3464 5.62392 38.4254 5.40704C38.5043 5.19016 38.4948 4.95092 38.3989 4.74099C38.3945 4.73272 38.3918 4.72362 38.3911 4.71427L38.4143 3.37822C38.4199 3.05364 38.3385 2.73348 38.1787 2.45094C38.0188 2.16841 37.7862 1.9338 37.5051 1.77146L34.8567 0.242287C34.5755 0.079921 34.2561 -0.00421926 33.9314 -0.00139607C33.6068 0.00142713 33.2888 0.0911109 33.0105 0.258342L31.8655 0.946348C31.8559 0.952147 31.8449 0.955226 31.8337 0.955254H28.177C28.1659 0.955243 28.155 0.952247 28.1455 0.946583L27.0002 0.258459C26.7219 0.0912398 26.404 0.00154322 26.0794 -0.00132111C25.7547 -0.00418543 25.4352 0.0798869 25.154 0.24217L22.5057 1.77111C22.2246 1.9335 21.9921 2.16813 21.8322 2.45068C21.6723 2.73322 21.5909 3.05339 21.5965 3.37798L21.6198 4.71404C21.62 4.72512 21.6172 4.73606 21.6117 4.74568L19.7831 7.91255C19.7776 7.92205 19.7697 7.9299 19.7602 7.93528L18.5909 8.58321C18.3071 8.74074 18.0706 8.97129 17.906 9.25095C17.7413 9.53062 17.6544 9.84924 17.6543 10.1738V13.2318C17.6543 13.8927 18.0132 14.5022 18.5912 14.8226Z" fill="white"/>
<path d="M30.0047 6.38794C27.0739 6.38794 24.6895 8.77247 24.6895 11.7033C24.6895 14.6342 27.074 17.0186 30.0047 17.0186C32.9357 17.0186 35.3201 14.6341 35.3201 11.7033C35.3202 8.77235 32.9357 6.38794 30.0047 6.38794ZM30.0047 15.2609C28.0431 15.2609 26.4473 13.665 26.4473 11.7034C26.4473 9.74184 28.0431 8.14575 30.0047 8.14575C31.9663 8.14575 33.5623 9.74172 33.5623 11.7033C33.5623 13.6649 31.9663 15.2609 30.0047 15.2609ZM45.9947 28.9617C48.1754 28.9617 49.9496 27.1875 49.9496 25.0068C49.9496 22.826 48.1754 21.0518 45.9947 21.0518C43.8139 21.0518 42.0396 22.826 42.0396 25.0068C42.0396 27.1875 43.8139 28.9617 45.9947 28.9617ZM45.9947 22.8096C47.2062 22.8096 48.1918 23.7953 48.1918 25.0068C48.1918 26.2183 47.2062 27.2039 45.9947 27.2039C44.7831 27.2039 43.7974 26.2183 43.7974 25.0068C43.7974 23.7953 44.7832 22.8096 45.9947 22.8096Z" fill="white"/>
<path d="M39.8917 19.2384L39.9068 20.1017L38.702 22.1884L37.9472 22.6069C37.7082 22.7394 37.509 22.9334 37.3703 23.1688C37.2316 23.4042 37.1585 23.6724 37.1584 23.9457V26.0659C37.1584 26.622 37.4605 27.135 37.947 27.4047L38.702 27.8233L39.9068 29.9099L39.8917 30.7733C39.887 31.0465 39.9555 31.3159 40.09 31.5537C40.2245 31.7914 40.4202 31.9889 40.6567 32.1256L42.493 33.1856C42.7257 33.32 42.9896 33.3907 43.2583 33.3906C43.5313 33.3906 43.8042 33.3177 44.0466 33.1722L44.7866 32.7274H47.1962L47.9363 33.1722C48.1705 33.3128 48.4381 33.3882 48.7113 33.3905C48.9844 33.3929 49.2533 33.3222 49.4899 33.1856L51.326 32.1256C51.5626 31.9889 51.7583 31.7915 51.8928 31.5537C52.0274 31.3159 52.0958 31.0465 52.0911 30.7733L52.076 29.9099L53.2808 27.8233L54.0362 27.4046C54.275 27.272 54.4741 27.078 54.6127 26.8426C54.7513 26.6072 54.8244 26.3391 54.8245 26.0659V23.9457C54.8245 23.3895 54.5224 22.8766 54.0361 22.607L53.2808 22.1883L52.076 20.1017L52.0911 19.2384C52.0958 18.9652 52.0274 18.6958 51.8929 18.458C51.7583 18.2203 51.5627 18.0228 51.3261 17.8861L49.4898 16.826C49.2532 16.6895 48.9843 16.6188 48.7112 16.6212C48.438 16.6235 48.1705 16.6989 47.9363 16.8395L47.1962 17.2843H44.7866L44.0466 16.8395C43.8123 16.6989 43.5448 16.6235 43.2716 16.6212C42.9984 16.6188 42.7296 16.6895 42.4929 16.826L40.6566 17.8863C40.4201 18.0229 40.2245 18.2204 40.09 18.4581C39.9555 18.6959 39.887 18.9653 39.8917 19.2384ZM41.6515 19.3415L43.2558 18.4152L43.9355 18.8236C44.1735 18.9666 44.446 19.0421 44.7237 19.0421H47.2591C47.5368 19.0421 47.8092 18.9665 48.0475 18.8235L48.727 18.4152L50.3313 19.3415L50.3175 20.1341C50.3126 20.4118 50.3834 20.6856 50.5223 20.9261L51.7898 23.1214C51.9286 23.3621 52.1303 23.5604 52.3733 23.6951L53.0667 24.0795V25.9321L52.3731 26.3165C52.1303 26.4511 51.9287 26.6493 51.79 26.8898L50.5223 29.0853C50.3834 29.3259 50.3125 29.5998 50.3174 29.8776L50.3312 30.6702L48.7269 31.5964L48.0472 31.1881C47.8092 31.0451 47.5367 30.9696 47.259 30.9696H44.7237C44.4459 30.9697 44.1734 31.0452 43.9353 31.1882L43.2558 31.5964L41.6515 30.6702L41.6653 29.8776C41.6702 29.5998 41.5994 29.326 41.4605 29.0855L40.193 26.8902C40.0542 26.6495 39.8525 26.4511 39.6094 26.3165L38.9161 25.9322V24.0796L39.6087 23.6957C39.852 23.5612 40.0539 23.3628 40.1928 23.122L41.4601 20.9268C41.5992 20.6862 41.6702 20.4122 41.6653 20.1343L41.6515 19.3415ZM14.0116 28.9608C16.1923 28.9608 17.9665 27.1866 17.9665 25.0059C17.9665 22.8251 16.1923 21.0509 14.0116 21.0509C11.8309 21.0509 10.0566 22.8251 10.0566 25.0059C10.0566 27.1866 11.8309 28.9608 14.0116 28.9608ZM14.0116 22.8087C15.2231 22.8087 16.2087 23.7944 16.2087 25.0059C16.2087 26.2173 15.2231 27.203 14.0116 27.203C12.8001 27.203 11.8144 26.2173 11.8144 25.0059C11.8144 23.7944 12.8001 22.8087 14.0116 22.8087Z" fill="white"/>
<path d="M5.97019 27.4048L6.72547 27.8234L7.93015 29.91L7.91492 30.7735C7.91026 31.0466 7.97874 31.316 8.11327 31.5538C8.24781 31.7916 8.44349 31.989 8.68003 32.1257L10.5161 33.1857C10.7528 33.3223 11.0216 33.393 11.2948 33.3907C11.5681 33.3884 11.8357 33.3129 12.0699 33.1723L12.8099 32.7276H15.2194L15.9596 33.1723C16.1977 33.3153 16.4703 33.3908 16.748 33.3907C17.0122 33.3907 17.2764 33.3225 17.5131 33.1858L19.3492 32.1257C19.5858 31.989 19.7815 31.7916 19.9161 31.5538C20.0507 31.316 20.1191 31.0465 20.1145 30.7734L20.0992 29.91L21.3039 27.8234L22.0594 27.4047C22.2983 27.2721 22.4973 27.0781 22.6359 26.8427C22.7746 26.6074 22.8477 26.3392 22.8479 26.0661V23.9458C22.8479 23.3896 22.5456 22.8767 22.0593 22.6072L21.304 22.1885L20.0992 20.1018L20.1145 19.2385C20.1191 18.9653 20.0506 18.6959 19.9161 18.4582C19.7816 18.2204 19.5859 18.0229 19.3493 17.8863L17.5133 16.8262C17.2767 16.6896 17.0078 16.6188 16.7346 16.6212C16.4615 16.6235 16.1939 16.699 15.9597 16.8397L15.2194 17.2844H12.8099L12.0697 16.8396C11.8355 16.699 11.5679 16.6236 11.2948 16.6212C11.0216 16.6188 10.7528 16.6896 10.5162 16.8261L8.68015 17.8863C8.44356 18.0229 8.24783 18.2204 8.11328 18.4582C7.97872 18.696 7.91023 18.9654 7.91492 19.2386L7.93015 20.1018L6.72547 22.1885L5.97031 22.607C5.73138 22.7395 5.53224 22.9336 5.39356 23.169C5.25489 23.4044 5.18171 23.6726 5.18164 23.9458V26.0661C5.18164 26.6221 5.48375 27.135 5.97019 27.4048ZM6.93945 24.0797L7.63203 23.6958C7.87528 23.5612 8.07724 23.3629 8.21621 23.1221L9.48405 20.9262C9.62282 20.6857 9.69358 20.4119 9.68878 20.1343L9.67484 19.3419L11.2792 18.4155L11.9586 18.8237C12.1967 18.9668 12.4692 19.0423 12.747 19.0423H15.2826C15.5603 19.0423 15.8329 18.9666 16.0708 18.8238L16.7505 18.4155L18.3548 19.3419L18.3408 20.1344C18.3361 20.4121 18.4069 20.6858 18.5457 20.9263L19.8135 23.1223C19.9525 23.363 20.1544 23.5613 20.3976 23.6959L21.0902 24.0799V25.9325L20.3969 26.3167C20.154 26.4514 19.9523 26.6496 19.8134 26.8901L18.5454 29.0863C18.4068 29.3268 18.336 29.6005 18.3408 29.878L18.3548 30.6705L16.7504 31.5967L16.071 31.1887C15.8329 31.0456 15.5604 30.97 15.2826 30.97H12.747C12.4693 30.97 12.1967 31.0457 11.9588 31.1886L11.2792 31.5967L9.67484 30.6705L9.68878 29.8779C9.69355 29.6002 9.62275 29.3264 9.48394 29.0859L8.21609 26.8899C8.07717 26.6495 7.87548 26.4513 7.63261 26.3167L6.93933 25.9325L6.93945 24.0797Z" fill="white"/>
<path d="M25.496 44.8759C24.8765 44.2567 23.9081 44.1973 23.2193 44.6938L18.4083 37.1786C17.8754 36.3461 16.9042 35.9329 15.9354 36.1278C14.6585 36.3836 13.8335 37.589 14.0576 38.8718L14.8008 43.1292C14.8771 43.5663 14.7109 43.9866 14.356 44.2533C14.0014 44.5199 13.5513 44.5627 13.1526 44.3678C9.75738 42.7078 7.29715 39.6497 6.40289 35.9779L5.46118 32.1113C5.1402 30.7932 3.96552 29.8369 2.60403 29.7857L2.56091 29.7841C1.07099 29.727 -0.128069 31.0011 0.0156022 32.485C0.44468 36.9166 1.94364 41.1778 4.38362 44.902C6.82359 48.6263 10.1316 51.7022 14.0231 53.8654C13.4358 54.5575 13.4672 55.5987 14.1201 56.2518L17.6099 59.7415C17.6914 59.8232 17.7883 59.888 17.895 59.9322C18.0016 59.9763 18.116 59.999 18.2314 59.9988C18.3469 59.999 18.4612 59.9763 18.5678 59.9322C18.6745 59.888 18.7713 59.8232 18.8529 59.7415L22.7531 55.8415C22.9179 55.6766 23.0105 55.4531 23.0105 55.22C23.0105 54.9869 22.9179 54.7633 22.7531 54.5985C22.5883 54.4336 22.3647 54.341 22.1316 54.341C21.8985 54.341 21.6749 54.4336 21.5101 54.5985L18.2321 57.8764L15.3633 55.0011L24.253 46.1192L27.1214 48.9874L23.9948 52.1138C23.8312 52.2788 23.7396 52.502 23.7401 52.7344C23.7406 52.9669 23.8331 53.1896 23.9975 53.354C24.1618 53.5184 24.3846 53.6109 24.617 53.6114C24.8494 53.612 25.0726 53.5204 25.2377 53.3568L28.9856 49.609C29.0672 49.5274 29.132 49.4305 29.1762 49.3238C29.2204 49.2172 29.2431 49.1029 29.2432 48.9875C29.2432 48.872 29.2204 48.7577 29.1763 48.6511C29.1321 48.5444 29.0673 48.4475 28.9857 48.3659L25.496 44.8759ZM1.76521 32.3154C1.72337 31.8836 2.07681 31.5213 2.49529 31.5409L2.53888 31.5426C3.12728 31.5646 3.61536 31.9604 3.75329 32.5273L4.69501 36.3939C5.71325 40.575 8.51461 44.057 12.3806 45.9471C13.37 46.4308 14.5317 46.3204 15.412 45.6586C16.2926 44.997 16.7218 43.9121 16.5324 42.827L15.7892 38.5696C15.7603 38.4093 15.7957 38.2441 15.8876 38.1097C15.9796 37.9753 16.1208 37.8825 16.2806 37.8514C16.4037 37.8261 16.5315 37.839 16.647 37.8881C16.7626 37.9373 16.8605 38.0204 16.9277 38.1265L21.9328 45.945L15.3089 52.5689C15.2025 52.4701 3.17216 46.8229 1.76521 32.3154Z" fill="white"/>
</g>
<defs>
<clipPath id="clip0_135_329">
<rect width="60" height="60" fill="white" transform="translate(0.00390625 -0.00146484)"/>
</clipPath>
</defs>
</svg>
