<svg width="42" height="40" viewBox="0 0 42 40" fill="none" xmlns="http://www.w3.org/2000/svg">
<path d="M17.6833 19.0103L20.9998 10.9958C21.1246 11.0138 21.2495 11.0345 21.3791 11.0345C22.0233 11.0345 22.6081 10.8034 23.0784 10.4324L34.0081 18.2455C33.8702 18.5731 33.7929 18.9331 33.7929 19.3103C33.7929 20.8317 35.0302 22.0689 36.5515 22.0689C38.0729 22.0689 39.3102 20.8317 39.3102 19.3103C39.3102 18.0289 38.4274 16.9579 37.2412 16.6496V11.0345H35.8619V16.6496C35.4874 16.7469 35.1474 16.9207 34.8522 17.1538L23.9233 9.34066C24.0605 9.01307 24.1377 8.65307 24.1377 8.27583C24.1377 6.75445 22.9005 5.51721 21.3791 5.51721C19.8577 5.51721 18.6205 6.75445 18.6205 8.27583C18.6205 9.17376 19.0584 9.96549 19.7253 10.4696L16.4102 18.4807C16.8495 18.6289 17.2729 18.8076 17.6833 19.0103Z" fill="#F84923"/>
<path d="M40.5205 3.61931L40.2122 2.87517L40.5991 2.0469L39.3322 0.78L38.5032 1.16759L37.8005 0.875862L37.6543 0.567586L37.4481 0H35.6556L35.3432 0.85931L34.6005 1.16759L33.7715 0.78L32.5046 2.0469L32.8915 2.87517L32.6005 3.57793L32.2915 3.72552L31.7246 3.93172V5.72414L32.5839 6.03655L32.8922 6.78069L32.5053 7.60897L33.7722 8.87586L34.6005 8.48897L35.3032 8.78L35.4508 9.08897L35.6563 9.65517H37.4487L37.7612 8.79586L38.5053 8.48759L39.3336 8.87448L40.6005 7.60759L40.2136 6.77931L40.5046 6.07655L40.8136 5.92897L41.3798 5.72345V3.93172L40.5205 3.61931ZM36.5522 7.58621C35.0287 7.58621 33.7936 6.35103 33.7936 4.82759C33.7936 3.30414 35.0287 2.06897 36.5522 2.06897C38.0756 2.06897 39.3108 3.30414 39.3108 4.82759C39.3108 6.35103 38.0756 7.58621 36.5522 7.58621Z" fill="#F84923"/>
<path d="M0 4.13794H12.4138V8.27587H0V4.13794Z" fill="#F84923"/>
<path d="M0 9.65515H12.4138V11.0345H0V9.65515Z" fill="#F84923"/>
<path d="M0 12.4138H12.4138V13.7931H0V12.4138Z" fill="#F84923"/>
<path d="M0 15.1724H6.89655V16.5517H0V15.1724Z" fill="#F84923"/>
<path d="M11.0352 15.1724H12.4145V16.5517H11.0352V15.1724Z" fill="#F84923"/>
<path d="M8.27539 15.1724H9.6547V16.5517H8.27539V15.1724Z" fill="#F84923"/>
<path d="M35.1722 28.9655C35.5522 28.9655 35.8619 28.6558 35.8619 28.2758C35.8619 27.8958 35.5522 27.5862 35.1722 27.5862H20.6543C20.675 27.8138 20.6895 28.0427 20.6895 28.2758C20.6895 28.5089 20.675 28.7379 20.6543 28.9655H35.1722Z" fill="#F84923"/>
<path d="M4.13867 28.2758C4.13867 33.2193 8.16074 37.2413 13.1042 37.2413C17.2594 37.2413 20.8711 34.3275 21.8166 30.3448H20.3966C19.4932 33.5241 16.5697 35.862 13.1042 35.862C8.92143 35.862 5.51798 32.4586 5.51798 28.2758C5.51798 24.0931 8.92143 20.6896 13.1042 20.6896C16.569 20.6896 19.4925 23.0275 20.3966 26.2069H21.8166C20.8711 22.2241 17.2594 19.3103 13.1042 19.3103C8.16074 19.3103 4.13867 23.3324 4.13867 28.2758Z" fill="#F84923"/>
<path d="M34.9104 24.8276L34.2207 26.2069H35.1738C36.3145 26.2069 37.2428 27.1352 37.2428 28.2759C37.2428 29.4166 36.3145 30.3449 35.1738 30.3449H34.2207L34.9104 31.7242H40.4242L39.2745 28.2759L40.4242 24.8276H34.9104Z" fill="#F84923"/>
<path d="M13.1034 22.069C9.68131 22.069 6.89648 24.8538 6.89648 28.2759C6.89648 31.6979 9.68131 34.4828 13.1034 34.4828C16.5254 34.4828 19.3103 31.6979 19.3103 28.2759C19.3103 24.8538 16.5254 22.069 13.1034 22.069ZM15.1723 26.8966H13.793V26.7959C13.793 26.471 13.5289 26.2069 13.2041 26.2069H13.0027C12.6779 26.2069 12.4137 26.471 12.4137 26.7959C12.4137 27.0207 12.5386 27.2228 12.7399 27.3235L14.0848 27.9952C14.7558 28.331 15.1723 29.0062 15.1723 29.7559C15.1723 30.6345 14.5896 31.3717 13.793 31.6241V33.1035H12.4137V31.6241C11.6172 31.3717 11.0344 30.6345 11.0344 29.7559V28.9655H12.4137V29.7559C12.4137 30.0807 12.6779 30.3448 13.0027 30.3448H13.2041C13.5289 30.3448 13.793 30.0807 13.793 29.7559C13.793 29.531 13.6682 29.329 13.4668 29.2283L12.122 28.5566C11.451 28.2207 11.0344 27.5455 11.0344 26.7959C11.0344 25.9172 11.6172 25.18 12.4137 24.9276V23.4483H13.793V24.9276C14.5896 25.18 15.1723 25.9172 15.1723 26.7959V26.8966Z" fill="#F84923"/>
<path d="M20.7217 35.2317C18.8134 37.3172 16.0824 38.6207 13.103 38.6207C10.0803 38.6207 7.36442 37.3089 5.47132 35.2351C2.48166 35.9048 1.37891 36.7917 1.37891 37.2413C1.37891 38.1772 5.51684 40 13.103 40C20.6893 40 24.8272 38.1772 24.8272 37.2413C24.8272 36.7903 23.721 35.902 20.7217 35.2317Z" fill="#F84923"/>
</svg>
