<svg width="30" height="30" viewBox="0 0 30 30" fill="none" xmlns="http://www.w3.org/2000/svg">
<g clip-path="url(#clip0_1564_1304)">
<path d="M16.5519 24.8274V25.8619C16.5519 26.4324 16.088 26.8963 15.5175 26.8963H14.483C13.9125 26.8963 13.4485 26.4324 13.4485 25.8619V24.8274H12.4141V29.9997H17.5869L17.5864 24.8274H16.5519Z" fill="white"/>
<path d="M14.4824 24.8274H15.5169V25.8619H14.4824V24.8274Z" fill="white"/>
<path d="M14.4824 0.000244141H15.5169V1.03471H14.4824V0.000244141Z" fill="white"/>
<path d="M17.5864 0.000244141H16.5519V1.03471C16.5519 1.60522 16.088 2.06917 15.5175 2.06917H14.483C13.9125 2.06917 13.4485 1.60522 13.4485 1.03471V0.000244141H12.4141V5.17257H17.5869L17.5864 0.000244141Z" fill="white"/>
<path d="M26.8971 14.4827C26.3265 14.4827 25.8626 14.0188 25.8626 13.4483V12.4138H24.8281V17.5861H30.001L30.0004 12.4138H28.966V13.4483C28.966 14.0188 28.502 14.4827 27.9315 14.4827H26.8971Z" fill="white"/>
<path d="M26.8965 12.4138H27.9309V13.4483H26.8965V12.4138Z" fill="white"/>
<path d="M5.17232 12.4138H4.13786V13.4483C4.13786 14.0188 3.6739 14.4827 3.10339 14.4827H2.06893C1.49842 14.4827 1.03446 14.0188 1.03446 13.4483V12.4138H0V17.5861H5.17284L5.17232 12.4138Z" fill="white"/>
<path d="M2.06836 12.4138H3.10282V13.4483H2.06836V12.4138Z" fill="white"/>
<path d="M17.9669 12.9311C17.594 12.3978 17.0814 11.9706 16.4824 11.7001C16.7695 12.0818 17.0074 12.4935 17.1843 12.9311H17.9669Z" fill="white"/>
<path d="M15.2404 11.834L15.0004 11.5935L14.7604 11.834C14.4325 12.1614 14.164 12.5318 13.9551 12.9311H16.0457C15.8373 12.5318 15.5683 12.1614 15.2404 11.834Z" fill="white"/>
<path d="M14.7604 18.166L15.0004 18.4065L15.2404 18.166C15.5683 17.8386 15.8368 17.4683 16.0457 17.069H13.9551C14.1635 17.4683 14.4325 17.8386 14.7604 18.166Z" fill="white"/>
<path d="M18.467 13.9656H17.4863C17.5505 14.3033 17.5851 14.6488 17.5851 15C17.5851 15.3512 17.5505 15.6968 17.4863 16.0345H18.467C18.5653 15.7066 18.6196 15.3595 18.6196 15C18.6196 14.6406 18.5653 14.2935 18.467 13.9656Z" fill="white"/>
<path d="M19.0224 20.4858L20.4857 19.0231L20.1459 18.6832C19.6933 18.2312 19.5645 17.5831 19.8097 16.9919C20.0538 16.4017 20.6031 16.0345 21.2429 16.0345H21.7234V13.9656H21.2429C20.6036 13.9656 20.0543 13.5983 19.8097 13.0076C19.565 12.4164 19.6938 11.7684 20.1459 11.3163L20.4857 10.9765L19.0224 9.51374L18.6826 9.85304C18.2306 10.3061 17.5825 10.4344 16.9918 10.1898C16.4011 9.94563 16.0339 9.39633 16.0339 8.75651V8.276H13.9649V8.75651C13.9649 9.39633 13.5977 9.94563 13.0065 10.1903C12.4153 10.4349 11.7677 10.3061 11.3157 9.85356L10.9759 9.51426L9.51261 10.977L9.85243 11.3168C10.305 11.7689 10.4338 12.417 10.1886 13.0082C9.94502 13.5983 9.39572 13.9656 8.7559 13.9656H8.27539V16.0345H8.7559C9.39572 16.0345 9.94502 16.4017 10.1897 16.9924C10.4343 17.5836 10.3055 18.2317 9.85347 18.6838L9.51364 19.0236L10.9769 20.4863L11.3167 20.147C11.7693 19.6944 12.4174 19.5667 13.0076 19.8103C13.5977 20.0544 13.9649 20.6037 13.9649 21.2435V21.724H16.0339V21.2435C16.0339 20.6037 16.4011 20.0544 16.9923 19.8098C17.5835 19.5651 18.2311 19.6939 18.6831 20.1465L19.0224 20.4858ZM14.9994 19.6551C12.4329 19.6551 10.3443 17.567 10.3443 15C10.3443 12.433 12.4329 10.3449 14.9994 10.3449C17.5659 10.3449 19.6545 12.433 19.6545 15C19.6545 17.567 17.5659 19.6551 14.9994 19.6551Z" fill="white"/>
<path d="M16.4824 18.3C17.0814 18.0295 17.594 17.6022 17.9669 17.069H17.1843C17.0074 17.5065 16.7695 17.9177 16.4824 18.3Z" fill="white"/>
<path d="M12.4134 15C12.4134 14.6488 12.448 14.3033 12.5122 13.9656H11.5315C11.4332 14.2935 11.3789 14.6406 11.3789 15C11.3789 15.3595 11.4332 15.7066 11.5315 16.0345H12.5122C12.448 15.6968 12.4134 15.3512 12.4134 15Z" fill="white"/>
<path d="M13.5177 11.7001C12.9187 11.9706 12.4061 12.3978 12.0332 12.9311H12.8158C12.9927 12.4935 13.2306 12.0823 13.5177 11.7001Z" fill="white"/>
<path d="M12.0332 17.069C12.4061 17.6022 12.9187 18.0295 13.5177 18.3C13.2306 17.9183 12.9927 17.5065 12.8158 17.069H12.0332Z" fill="white"/>
<path d="M16.426 13.9656H13.5714C13.4928 14.3013 13.4473 14.6468 13.4473 15C13.4473 15.3533 13.4928 15.6988 13.5719 16.0345H16.4265C16.5051 15.6988 16.5507 15.3533 16.5507 15C16.5507 14.6468 16.5051 14.3013 16.426 13.9656Z" fill="white"/>
<path d="M27.414 18.6206C26.9511 20.2075 26.1779 21.7049 25.1491 23.0083C24.9065 22.8516 24.6194 22.7585 24.3101 22.7585C23.4546 22.7585 22.7584 23.4547 22.7584 24.3102C22.7584 24.6195 22.8515 24.9065 23.0083 25.1486C21.7054 26.1769 20.208 26.9501 18.6211 27.4136V28.4847C20.5307 27.9722 22.3276 27.0474 23.8607 25.7874C24.0039 25.8313 24.1529 25.8619 24.3101 25.8619C25.1656 25.8619 25.8618 25.1657 25.8618 24.3102C25.8618 24.1529 25.8313 24.004 25.7879 23.8607C27.0473 22.3266 27.9721 20.5297 28.4842 18.6206H27.414Z" fill="white"/>
<path d="M18.6216 2.58645C20.2085 3.04989 21.7054 3.82367 23.0088 4.85141C22.8521 5.09347 22.759 5.38054 22.759 5.68984C22.759 6.54534 23.4551 7.24154 24.3107 7.24154C24.62 7.24154 24.907 7.14844 25.1496 6.99172C26.1779 8.29566 26.9511 9.79253 27.4146 11.3794H27.9313H28.4847C27.9721 9.47029 27.0478 7.67291 25.7879 6.13932C25.8318 5.99604 25.8623 5.84708 25.8623 5.68984C25.8623 4.83434 25.1662 4.13814 24.3107 4.13814C24.1534 4.13814 24.0044 4.16866 23.8612 4.21263C22.3271 2.95265 20.5302 2.02784 18.6211 1.51526L18.6216 2.58645Z" fill="white"/>
<path d="M2.06906 11.3794H2.58578C3.04922 9.79253 3.82248 8.29566 4.85074 6.99172C5.09332 7.14844 5.38039 7.24154 5.68969 7.24154C6.54519 7.24154 7.24139 6.54534 7.24139 5.68984C7.24139 5.38054 7.14829 5.09347 6.99157 4.85141C8.29499 3.82263 9.79238 3.04989 11.3792 2.58645V1.51526C9.47066 2.02784 7.67328 2.95265 6.13917 4.21263C5.99589 4.16866 5.84693 4.13814 5.68969 4.13814C4.83419 4.13814 4.13799 4.83434 4.13799 5.68984C4.13799 5.84708 4.16851 5.99656 4.21248 6.13983C2.9525 7.67343 2.02769 9.47081 1.51562 11.3794H2.06906Z" fill="white"/>
<path d="M7.24139 24.3102C7.24139 23.4547 6.54519 22.7585 5.68969 22.7585C5.38039 22.7585 5.09332 22.8516 4.85074 23.0083C3.82248 21.7043 3.04922 20.2075 2.58578 18.6206H1.51562C2.02769 20.5292 2.9525 22.3261 4.21248 23.8607C4.16851 24.004 4.13799 24.1529 4.13799 24.3102C4.13799 25.1657 4.83419 25.8619 5.68969 25.8619C5.84693 25.8619 5.99589 25.8313 6.13917 25.7879C7.67276 27.0474 9.47014 27.9722 11.3792 28.4853V27.4141C9.79186 26.9506 8.29499 26.1774 6.99157 25.1491C7.14829 24.9065 7.24139 24.6195 7.24139 24.3102Z" fill="white"/>
</g>
<defs>
<clipPath id="clip0_1564_1304">
<rect width="30" height="30" fill="white"/>
</clipPath>
</defs>
</svg>
