<svg width="44" height="40" viewBox="0 0 44 40" fill="none" xmlns="http://www.w3.org/2000/svg">
<path fill-rule="evenodd" clip-rule="evenodd" d="M33.3679 24.4377H8.21421V25.1944H33.3679V24.4373V24.4377ZM33.8528 32.6964L32.8113 31.962L32.5669 34.5181L34.893 33.4295L33.8528 32.6961V32.6964ZM39.4125 22.0767L41.9876 23.8926L42.888 22.6158C42.9659 22.5039 42.9967 22.3658 42.9736 22.2315C42.9505 22.0971 42.8754 21.9772 42.7645 21.8978L41.0157 20.6654C40.9063 20.5958 40.7749 20.5694 40.6471 20.5914C40.5193 20.6134 40.4043 20.6823 40.3245 20.7845L39.4126 22.077L39.4125 22.0767ZM19.0525 22.0016V14.7903H15.1489V22.0016H19.0525ZM14.3095 22.0016H11.3658V8.66278L20.7911 3.2681L30.2163 8.66278V22.0016H19.8918V14.3705C19.8918 14.2591 19.8476 14.1523 19.7688 14.0736C19.6901 13.9948 19.5833 13.9506 19.4719 13.9506H14.7291C14.6178 13.9506 14.5109 13.9948 14.4322 14.0736C14.3534 14.1523 14.3092 14.2591 14.3092 14.3705V22.0016H14.3095ZM14.731 22.8415H9.13991V23.5987H32.4421V22.8415H14.731ZM14.3725 3.60999V2.40704H12.5416V4.65792L14.3725 3.60999ZM15.0168 4.20758C15.0059 4.21443 14.9947 4.22091 14.9832 4.22684L7.29884 8.62498L8.11133 9.55935L20.5771 2.42411C20.6408 2.38632 20.7135 2.36613 20.7876 2.36558C20.8618 2.36504 20.9347 2.38416 20.999 2.42101L33.4711 9.55944L34.2836 8.62508L20.7911 0.902556L15.0168 4.2073V4.20758ZM23.0924 13.9507C22.981 13.9507 22.8742 13.995 22.7955 14.0737C22.7167 14.1525 22.6725 14.2593 22.6725 14.3707V20.4631C22.6725 20.5745 22.7167 20.6813 22.7955 20.76C22.8742 20.8388 22.981 20.883 23.0924 20.883H27.0881C27.1994 20.883 27.3063 20.8388 27.385 20.76C27.4638 20.6813 27.508 20.5745 27.508 20.4631V14.3705C27.508 14.2591 27.4638 14.1523 27.385 14.0736C27.3063 13.9948 27.1994 13.9506 27.0881 13.9506L23.0924 13.9507ZM24.6705 15.89V14.7903H23.5121V15.89H24.6705ZM24.6705 18.104V16.7294H23.5121V18.104H24.6705ZM24.6705 20.0432V18.9435H23.5121V20.0432H24.6705ZM25.5104 18.9435V20.0432H26.6688V18.9435H25.5104ZM25.5104 16.7294V18.104H26.6688V16.7294H25.5104ZM25.5104 14.7903V15.89H26.6688V14.7903H25.5104ZM19.1565 6.65619C19.0451 6.65619 18.9383 6.70044 18.8595 6.77919C18.7808 6.85795 18.7365 6.96476 18.7365 7.07613V10.3456C18.7365 10.4569 18.7808 10.5637 18.8595 10.6425C18.9383 10.7212 19.0451 10.7655 19.1565 10.7655H22.4257C22.4809 10.7655 22.5355 10.7546 22.5864 10.7335C22.6374 10.7124 22.6837 10.6815 22.7227 10.6425C22.7617 10.6035 22.7926 10.5572 22.8137 10.5063C22.8348 10.4553 22.8457 10.4007 22.8457 10.3456V7.07623C22.8457 7.02108 22.8348 6.96647 22.8137 6.91552C22.7926 6.86457 22.7617 6.81828 22.7227 6.77928C22.6837 6.74029 22.6374 6.70936 22.5864 6.68825C22.5355 6.66715 22.4809 6.65629 22.4257 6.65629L19.1565 6.65619ZM21.2105 8.29086H22.0058V7.49562H21.2105V8.29086ZM19.5759 8.29086H20.3711V7.49562H19.5759V8.29086ZM20.3711 9.13028H19.5759V9.92552H20.3711V9.13028ZM22.0058 9.13028H21.2105V9.92552H22.0058V9.13028ZM0.839881 35.3652C1.25528 34.9717 1.78563 34.7214 2.35344 34.6507C2.92126 34.5801 3.49678 34.6929 3.99591 34.9727V11.7573C3.73851 11.4973 3.4096 11.3196 3.051 11.247C2.6924 11.1744 2.3203 11.21 1.98201 11.3494C1.64371 11.4888 1.3545 11.7256 1.15113 12.0298C0.947757 12.3339 0.839418 12.6917 0.839881 13.0575V35.3652ZM38.0144 24.0595L38.9297 22.7615L39.8749 23.4279L33.9925 31.7695L33.0475 31.1031L37.9851 24.1011C37.9957 24.0878 38.0055 24.0739 38.0145 24.0594L38.0144 24.0595ZM37.2998 30.5404L35.6224 32.919L34.6773 32.2526L40.5597 23.911L41.5047 24.5774L37.329 30.4984C37.3183 30.5117 37.3085 30.5257 37.2995 30.5403L37.2998 30.5404ZM10.5264 13.4772V22.0016H8.72024C8.6651 22.0016 8.61049 22.0125 8.55954 22.0336C8.50859 22.0547 8.46229 22.0856 8.4233 22.1246C8.38431 22.1636 8.35337 22.2099 8.33227 22.2609C8.31116 22.3118 8.3003 22.3664 8.3003 22.4216V23.5985H7.79446C7.68308 23.5985 7.57627 23.6427 7.49751 23.7215C7.41876 23.8003 7.37452 23.9071 7.37452 24.0184V25.6143C7.37452 25.6695 7.38538 25.7241 7.40648 25.775C7.42759 25.826 7.45852 25.8723 7.49751 25.9112C7.53651 25.9502 7.5828 25.9812 7.63375 26.0023C7.6847 26.0234 7.73931 26.0342 7.79446 26.0342H33.7877C33.8428 26.0342 33.8974 26.0234 33.9484 26.0023C33.9993 25.9812 34.0456 25.9502 34.0846 25.9112C34.1236 25.8723 34.1545 25.826 34.1756 25.775C34.1967 25.7241 34.2076 25.6695 34.2076 25.6143V24.018C34.2076 23.9066 34.1634 23.7998 34.0846 23.721C34.0059 23.6423 33.899 23.598 33.7877 23.598H33.2815V22.4214C33.2815 22.31 33.2373 22.2032 33.1585 22.1244C33.0798 22.0457 32.973 22.0015 32.8616 22.0015H31.0557V13.4772H37.2377V23.7074L32.1209 30.9631C32.0743 31.0291 32.0479 31.1073 32.0449 31.1881L31.6643 35.1684C31.6573 35.243 31.6704 35.3182 31.7024 35.386C31.7344 35.4538 31.784 35.5118 31.846 35.5539C31.9081 35.596 31.9803 35.6206 32.0551 35.6252C32.13 35.6299 32.2047 35.6143 32.2714 35.5801L35.8759 33.8932C35.9526 33.8632 36.0188 33.8113 36.0661 33.7439L37.2374 32.0829V39.1604H2.68497C1.04593 39.1604 0.220925 37.1697 1.38014 36.0108C1.56079 35.8302 1.77697 35.689 2.01499 35.5962C2.25301 35.5034 2.5077 35.4611 2.76295 35.4718C3.01819 35.4825 3.26843 35.5461 3.49784 35.6585C3.72725 35.7709 3.93083 35.9297 4.0957 36.1249C4.15126 36.19 4.22546 36.2367 4.3083 36.2584C4.39114 36.2802 4.47866 36.2761 4.55909 36.2466C4.63952 36.2171 4.709 36.1638 4.75819 36.0936C4.80738 36.0235 4.83392 35.94 4.83424 35.8544H4.83516V13.4772H10.5264ZM4.83516 12.6378H10.5264V9.14324L8.22937 10.4578C8.14101 10.5084 8.03727 10.5251 7.93751 10.5048C7.83776 10.4845 7.74878 10.4286 7.68719 10.3476L6.3317 8.78812C6.29151 8.74129 6.26214 8.68619 6.24567 8.62672C6.2292 8.56725 6.22604 8.50488 6.23641 8.44405C6.24678 8.38322 6.27043 8.32543 6.30568 8.27477C6.34092 8.22412 6.3869 8.18186 6.44033 8.151V8.15036L11.7026 5.13838V1.98737C11.7026 1.876 11.7469 1.76918 11.8256 1.69043C11.9044 1.61168 12.0112 1.56743 12.1226 1.56743H14.7928C14.9041 1.56743 15.0109 1.61168 15.0897 1.69043C15.1685 1.76918 15.2127 1.876 15.2127 1.98737V3.12924L20.5828 0.0554637C20.6471 0.0186014 20.7201 -0.000533982 20.7942 1.13376e-05C20.8683 0.000556657 20.9409 0.0207632 21.0047 0.0585677L35.1422 8.15027C35.1981 8.18213 35.246 8.22649 35.2821 8.27988C35.3181 8.33327 35.3414 8.39426 35.35 8.4581C35.3586 8.52194 35.3524 8.58691 35.3318 8.64795C35.3112 8.70899 35.2768 8.76446 35.2313 8.81003L33.8773 10.3678C33.8138 10.4412 33.7268 10.4902 33.6312 10.5065C33.5356 10.5228 33.4372 10.5054 33.353 10.4573V10.4579L31.056 9.14334V12.6378H37.6575C37.7689 12.6378 37.8757 12.682 37.9544 12.7608C38.0332 12.8395 38.0774 12.9464 38.0774 13.0577V22.517L39.6294 20.3162C39.8367 20.0236 40.1514 19.8251 40.5047 19.7641C40.8581 19.7031 41.2212 19.7845 41.5146 19.9907L43.2472 21.2124C43.54 21.4195 43.7388 21.7342 43.8001 22.0876C43.8613 22.441 43.78 22.8043 43.5739 23.0979L38.0775 30.8924V39.5801C38.0775 39.6914 38.0333 39.7983 37.9545 39.877C37.8758 39.9558 37.769 40 37.6576 40H2.68497C2.33238 40 1.98323 39.9306 1.65747 39.7957C1.33171 39.6608 1.03571 39.463 0.786388 39.2137C0.537062 38.9644 0.339288 38.6684 0.204359 38.3426C0.0694293 38.0169 -1.19538e-05 37.6677 3.63111e-08 37.3151V13.0575C-9.00242e-05 12.5099 0.167351 11.9753 0.479848 11.5256C0.792344 11.0759 1.23494 10.7325 1.74823 10.5415C2.26151 10.3506 2.82092 10.3213 3.35137 10.4574C3.88182 10.5936 4.35791 10.8888 4.71575 11.3034C4.79208 11.3817 4.83468 11.4869 4.83443 11.5962V12.6378H4.83516ZM21.7921 34.7878H8.57226C8.01967 34.7878 8.01967 35.6277 8.57226 35.6277H21.7921C22.3447 35.6277 22.3447 34.7878 21.7921 34.7878ZM30.123 34.7878H24.3474C23.7948 34.7878 23.7948 35.6277 24.3474 35.6277H30.123C30.6755 35.6277 30.6755 34.7878 30.123 34.7878ZM30.123 31.5782H8.57226C8.01967 31.5782 8.01967 32.4181 8.57226 32.4181H30.123C30.6755 32.4181 30.6755 31.5782 30.123 31.5782ZM11.7103 28.3685H8.57226C8.01967 28.3685 8.01967 29.2079 8.57226 29.2079H11.7105C12.2632 29.2079 12.2632 28.3685 11.7105 28.3685H11.7103ZM30.123 28.3685H14.2656C13.7131 28.3685 13.7131 29.2079 14.2656 29.2079H30.123C30.6755 29.2079 30.6755 28.3685 30.123 28.3685Z" fill="#F84923"/>
</svg>
