<svg width="40" height="40" viewBox="0 0 40 40" fill="none" xmlns="http://www.w3.org/2000/svg">
<path d="M24.9619 14.8003H15.2017C14.4073 14.8003 13.7617 15.4467 13.7617 16.2403V17.2003C13.7617 17.994 14.4073 18.6404 15.2017 18.6404H24.9619C25.7564 18.6404 26.402 17.994 26.402 17.2003V16.2403C26.402 15.4467 25.7564 14.8003 24.9619 14.8003ZM25.442 17.2003C25.442 17.4651 25.2267 17.6804 24.9619 17.6804H15.2017C14.9369 17.6804 14.7217 17.4651 14.7217 17.2003V16.2403C14.7217 15.9755 14.9369 15.7603 15.2017 15.7603H24.9619C25.2267 15.7603 25.442 15.9755 25.442 16.2403V17.2003Z" fill="#F84923"/>
<path d="M24.9628 20.5604H20.1627C19.3683 20.5604 18.7227 21.2068 18.7227 22.0005V22.9605C18.7227 23.7541 19.3683 24.4005 20.1627 24.4005H24.9628C25.7572 24.4005 26.4028 23.7541 26.4028 22.9605V22.0005C26.4028 21.2068 25.7572 20.5604 24.9628 20.5604ZM25.4428 22.9605C25.4428 23.2253 25.2276 23.4405 24.9628 23.4405H20.1627C19.8979 23.4405 19.6827 23.2253 19.6827 22.9605V22.0005C19.6827 21.7356 19.8979 21.5204 20.1627 21.5204H24.9628C25.2276 21.5204 25.4428 21.7356 25.4428 22.0005V22.9605Z" fill="#F84923"/>
<path d="M24.9628 26.3206H20.1627C19.3683 26.3206 18.7227 26.967 18.7227 27.7606V28.7206C18.7227 29.5142 19.3683 30.1606 20.1627 30.1606H24.9628C25.7572 30.1606 26.4028 29.5142 26.4028 28.7206V27.7606C26.4028 26.967 25.7572 26.3206 24.9628 26.3206ZM25.4428 28.7206C25.4428 28.9854 25.2276 29.2006 24.9628 29.2006H20.1627C19.8979 29.2006 19.6827 28.9854 19.6827 28.7206V27.7606C19.6827 27.4958 19.8979 27.2806 20.1627 27.2806H24.9628C25.2276 27.2806 25.4428 27.4958 25.4428 27.7606V28.7206Z" fill="#F84923"/>
<path d="M15.9535 11.4355C16.2199 11.4355 16.4351 11.2187 16.4335 10.9523C16.4335 10.9355 16.4279 10.049 16.4255 9.07142H19.0279C19.0255 10.049 19.0199 10.9355 19.0199 10.9523C19.0183 11.2171 19.2319 11.4339 19.4967 11.4355C19.7696 11.4355 19.9784 11.2179 19.98 10.9587C19.9808 10.8315 20 7.8378 19.98 6.80898C19.9512 5.34175 18.8247 4.57373 17.7271 4.57373C16.5383 4.57373 15.5023 5.42495 15.4743 6.80898C15.4535 7.8378 15.4735 10.8315 15.4743 10.9587C15.4759 11.2227 15.6903 11.4355 15.9543 11.4355H15.9535ZM16.4335 6.82818C16.4511 5.93376 17.0951 5.53375 17.7263 5.53375C18.4311 5.53375 19.0031 6.00096 19.0199 6.82818C19.0255 7.12338 19.0279 7.59379 19.0287 8.1114H16.4247C16.4247 7.59299 16.4279 7.12338 16.4335 6.82818Z" fill="#F84923"/>
<path d="M13.2659 4.56494H9.72024C9.45544 4.56494 9.24023 4.78015 9.24023 5.04495C9.24023 5.30976 9.45544 5.52496 9.72024 5.52496H11.0131V10.9547C11.0131 11.2195 11.2283 11.4347 11.4931 11.4347C11.7579 11.4347 11.9731 11.2195 11.9731 10.9547V5.52496H13.2659C13.5307 5.52496 13.7459 5.30976 13.7459 5.04495C13.7459 4.78015 13.5307 4.56494 13.2659 4.56494Z" fill="#F84923"/>
<path d="M26.211 4.63365C25.9838 4.49685 25.6886 4.57125 25.5526 4.79846L24.1909 7.0673L22.8293 4.79846C22.6925 4.57125 22.3981 4.49765 22.1709 4.63365C21.9437 4.76965 21.8701 5.06486 22.0061 5.29207L23.6309 8.00012L22.0061 10.7082C21.8693 10.9354 21.9437 11.2306 22.1709 11.3666C22.3989 11.5034 22.6933 11.4282 22.8293 11.2018L24.1909 8.93294L25.5526 11.2018C25.6886 11.4282 25.983 11.5034 26.211 11.3666C26.4382 11.2306 26.5118 10.9354 26.3758 10.7082L24.7509 8.00012L26.3758 5.29207C26.5118 5.06486 26.4382 4.76965 26.211 4.63365Z" fill="#F84923"/>
<path d="M32.4267 18.078V5.95692H38.4268C39.3061 5.95692 39.9709 5.1633 39.8237 4.29369C39.3965 1.76564 37.6988 0 35.694 0H7.58543C5.25419 0 3.35735 2.45685 3.35735 5.47691V13.0291C2.37333 13.1483 1.46531 13.6507 0.836499 14.4331C-0.379525 15.9459 -0.245123 18.1372 1.14771 19.5308L3.35735 21.7404V34.0431H1.41731C0.538093 34.0431 -0.12672 34.8367 0.0204827 35.7063C0.447691 38.2344 2.14532 40 4.15017 40H28.1994C30.5307 40 32.4275 37.5432 32.4275 34.5231V30.0022C36.2628 30.887 39.9237 27.9646 39.9237 24.0397C39.9237 20.1148 36.2676 17.1915 32.4275 18.0772L32.4267 18.078ZM35.6948 0.960019C37.1972 0.960019 38.5357 2.42965 38.8781 4.45369C38.9253 4.73369 38.7165 4.9969 38.4277 4.9969H32.4459C32.6195 2.73125 34.0108 0.960019 35.6956 0.960019H35.6948ZM1.82692 18.8524C0.780498 17.806 0.676496 16.1651 1.58531 15.0355C2.68774 13.6635 4.66378 13.6299 5.8294 14.7955L6.51501 15.4811L2.48533 19.5108L1.82692 18.8524ZM3.16375 20.1892L7.19343 16.1595L14.96 23.9261L10.9303 27.9558L3.16455 20.19L3.16375 20.1892ZM15.4176 24.8253L16.1352 28.2078C16.2512 28.7566 15.7672 29.2486 15.212 29.131L11.8295 28.4134L15.4176 24.8253ZM4.15017 39.0408C2.64773 39.0408 1.30931 37.5712 0.966902 35.5471C0.919701 35.2663 1.1285 35.0039 1.41731 35.0039H23.5746C23.8026 35.0039 23.9962 35.1751 24.0242 35.4023C24.213 36.9327 24.873 38.2208 25.7962 39.0408H4.15017ZM31.4675 34.5239C31.4675 37.0143 30.0019 39.0408 28.1994 39.0408C26.6274 39.0408 25.2426 37.4255 24.9778 35.2839C24.8906 34.5767 24.2874 34.0431 23.5754 34.0431H4.31737V22.7005L10.3695 28.7526C10.6455 29.0286 10.9935 29.2174 11.3751 29.2982L15.0128 30.0702C16.2432 30.3318 17.3344 29.2382 17.0744 28.0094L16.3024 24.3717C16.2216 23.9901 16.0328 23.6421 15.7568 23.3661L6.50781 14.1171C5.9126 13.5219 5.13978 13.1467 4.31737 13.0363V5.47771C4.31737 2.98726 5.783 0.960819 7.58543 0.960819H33.3075C32.0779 2.05524 31.4675 3.79368 31.4675 5.47771V18.3852C29.2483 19.3052 27.6834 21.4932 27.6834 24.0413C27.6834 26.5893 29.2491 28.7774 31.4675 29.6974V34.5247V34.5239ZM33.8036 29.2006C30.9579 29.2006 28.6435 26.8861 28.6435 24.0405C28.6435 21.1948 30.9579 18.8804 33.8036 18.8804C36.6492 18.8804 38.9637 21.1948 38.9637 24.0405C38.9637 26.8861 36.6492 29.2006 33.8036 29.2006Z" fill="#F84923"/>
<path d="M34.0345 23.5604H33.5705C33.2049 23.5604 32.9065 23.2628 32.9065 22.8964C32.9065 22.5004 33.2169 22.2204 33.5705 22.2204H34.2601C34.5001 22.2204 34.6953 22.4156 34.6953 22.6556C34.6953 22.9204 34.9105 23.1356 35.1753 23.1356C35.4401 23.1356 35.6553 22.9204 35.6553 22.6556C35.6553 21.8948 35.0433 21.2756 34.2857 21.262V20.8347C34.2857 20.5699 34.0705 20.3547 33.8057 20.3547C33.5409 20.3547 33.3257 20.5699 33.3257 20.8347V21.2812C32.5465 21.4004 31.9473 22.0724 31.9473 22.8844C31.9473 23.814 32.6929 24.5204 33.5713 24.5204H34.0353C34.4009 24.5204 34.6993 24.818 34.6993 25.1844C34.6993 25.5804 34.3889 25.8604 34.0353 25.8604H33.3457C33.1057 25.8604 32.9105 25.6652 32.9105 25.4252C32.9105 25.1604 32.6953 24.9452 32.4305 24.9452C32.1657 24.9452 31.9505 25.1604 31.9505 25.4252C31.9505 26.1877 32.5657 26.8085 33.3257 26.8189V27.2461C33.3257 27.5109 33.5409 27.7261 33.8057 27.7261C34.0705 27.7261 34.2857 27.5109 34.2857 27.2461V26.7989C35.0617 26.6773 35.6585 26.0061 35.6585 25.1964C35.6585 24.2668 34.9129 23.5604 34.0345 23.5604Z" fill="#F84923"/>
</svg>
