<svg width="28" height="31" viewBox="0 0 28 31" fill="none" xmlns="http://www.w3.org/2000/svg">
<path d="M12.7777 21.5447C11.8638 21.5447 11.1111 22.2975 11.1111 23.2114C11.1111 23.4674 11.1752 23.7076 11.2803 23.9253L7.38061 27.825C7.1629 27.7198 6.92263 27.6558 6.66664 27.6558C6.41116 27.6558 6.17112 27.7192 5.95375 27.824L3.16514 25.0354C3.26986 24.8181 3.33332 24.578 3.33332 24.3225C3.33329 23.4086 2.58054 22.6559 1.66666 22.6559C0.752796 22.6559 0 23.4086 0 24.3225C0 25.2364 0.752774 25.9891 1.66666 25.9892C1.92232 25.9892 2.16206 25.9247 2.37954 25.8199L5.17033 28.6075C5.0648 28.8255 4.99998 29.066 4.99998 29.3225C4.99998 30.2364 5.75275 30.9892 6.66663 30.9892C7.58054 30.9892 8.33329 30.2364 8.33329 29.3225C8.33329 29.0665 8.26915 28.8263 8.16402 28.6086L12.0637 24.7088C12.2815 24.814 12.5217 24.878 12.7777 24.878C13.0337 24.878 13.274 24.8138 13.4917 24.7088L16.2803 27.4975C16.1752 27.7152 16.111 27.9554 16.111 28.2114C16.111 29.1253 16.8638 29.8781 17.7777 29.8781C18.6916 29.8781 19.4443 29.1253 19.4444 28.2114C19.4444 27.2975 18.6916 26.5448 17.7777 26.5447C17.5217 26.5447 17.2814 26.609 17.0637 26.714L14.2751 23.9254C14.3802 23.7077 14.4444 23.4674 14.4444 23.2114C14.4444 22.2975 13.6916 21.5447 12.7777 21.5447Z" fill="white"/>
<path d="M23.3327 3.76709C22.4188 3.76711 21.666 4.51982 21.666 5.43371C21.666 6.3476 22.4188 7.10039 23.3327 7.10039C24.2466 7.10039 24.9993 6.3476 24.9993 5.43371C24.9993 4.51982 24.2466 3.76709 23.3327 3.76709Z" fill="white"/>
<path d="M27.7771 30.4336C27.7771 30.581 27.7186 30.7223 27.6144 30.8265C27.5102 30.9307 27.3689 30.9892 27.2216 30.9892C27.1486 30.9892 27.0764 30.9748 27.009 30.9469C26.9416 30.919 26.8803 30.8781 26.8287 30.8265C26.7772 30.7749 26.7362 30.7136 26.7083 30.6462C26.6804 30.5788 26.666 30.5066 26.666 30.4336C26.666 30.3607 26.6804 30.2884 26.7083 30.221C26.7362 30.1536 26.7771 30.0923 26.8287 30.0407C26.8803 29.9892 26.9416 29.9483 27.009 29.9203C27.0764 29.8924 27.1486 29.878 27.2216 29.8781C27.2945 29.8781 27.3668 29.8924 27.4342 29.9203C27.5016 29.9483 27.5628 29.9892 27.6144 30.0408C27.666 30.0924 27.7069 30.1536 27.7348 30.221C27.7628 30.2884 27.7771 30.3607 27.7771 30.4336Z" fill="white"/>
<path d="M27.7771 28.2114C27.7771 28.3588 27.7186 28.5001 27.6144 28.6043C27.5102 28.7085 27.3689 28.767 27.2216 28.767C27.1486 28.767 27.0764 28.7526 27.009 28.7247C26.9416 28.6968 26.8803 28.6559 26.8287 28.6043C26.7772 28.5527 26.7362 28.4915 26.7083 28.4241C26.6804 28.3567 26.666 28.2844 26.666 28.2114C26.666 28.1385 26.6804 28.0663 26.7083 27.9989C26.7362 27.9315 26.7771 27.8702 26.8287 27.8186C26.8803 27.7671 26.9416 27.7261 27.009 27.6982C27.0764 27.6703 27.1486 27.6559 27.2216 27.6559C27.2945 27.6559 27.3668 27.6703 27.4342 27.6982C27.5016 27.7261 27.5628 27.7671 27.6144 27.8186C27.666 27.8702 27.7069 27.9315 27.7348 27.9989C27.7628 28.0663 27.7771 28.1385 27.7771 28.2114Z" fill="white"/>
<path d="M25.5545 30.4336C25.5545 30.5066 25.5401 30.5788 25.5122 30.6462C25.4843 30.7136 25.4433 30.7749 25.3917 30.8265C25.3402 30.8781 25.2789 30.919 25.2115 30.9469C25.1441 30.9748 25.0719 30.9892 24.9989 30.9892C24.8516 30.9892 24.7103 30.9307 24.6061 30.8265C24.5019 30.7223 24.4434 30.581 24.4434 30.4336C24.4434 30.3607 24.4577 30.2884 24.4856 30.221C24.5136 30.1536 24.5545 30.0924 24.6061 30.0408C24.6577 29.9892 24.7189 29.9483 24.7863 29.9203C24.8537 29.8924 24.9259 29.8781 24.9989 29.8781C25.0719 29.878 25.1441 29.8924 25.2115 29.9203C25.2789 29.9483 25.3402 29.9892 25.3918 30.0407C25.4433 30.0923 25.4843 30.1536 25.5122 30.221C25.5401 30.2884 25.5545 30.3607 25.5545 30.4336Z" fill="white"/>
<path d="M1.64583e-10 1.54482C1.98262e-06 1.39748 0.0585332 1.25614 0.162718 1.15195C0.266902 1.04777 0.408206 0.98926 0.555546 0.989258C0.628502 0.989256 0.700745 1.00363 0.768149 1.03155C0.835553 1.05947 0.896798 1.10037 0.948387 1.15195C0.999977 1.20354 1.0409 1.2648 1.06882 1.33221C1.09674 1.39961 1.11111 1.47186 1.11111 1.54482C1.11111 1.61778 1.09675 1.69003 1.06883 1.75743C1.04091 1.82484 0.999984 1.8861 0.948395 1.93769C0.896805 1.98927 0.83556 2.03017 0.768154 2.05809C0.700749 2.08601 0.628504 2.10038 0.555546 2.10038C0.482589 2.10038 0.410347 2.08601 0.342944 2.05809C0.275541 2.03017 0.214298 1.98921 0.16271 1.93762C0.111123 1.88603 0.0702023 1.82484 0.0422844 1.75743C0.0143664 1.69003 -1.77562e-06 1.61778 1.64583e-10 1.54482Z" fill="white"/>
<path d="M1.64583e-10 3.76711C1.98262e-06 3.61977 0.0585332 3.47843 0.162718 3.37424C0.266902 3.27006 0.408206 3.21155 0.555546 3.21155C0.628502 3.21155 0.700745 3.22592 0.768149 3.25384C0.835553 3.28176 0.896798 3.32266 0.948387 3.37424C0.999977 3.42583 1.0409 3.48709 1.06882 3.5545C1.09674 3.6219 1.11111 3.69415 1.11111 3.76711C1.11111 3.84007 1.09675 3.91225 1.06883 3.97966C1.04091 4.04706 0.999984 4.10832 0.948395 4.15991C0.896805 4.2115 0.83556 4.25246 0.768154 4.28038C0.700749 4.3083 0.628504 4.32267 0.555546 4.32267C0.482589 4.32267 0.410347 4.3083 0.342944 4.28038C0.275541 4.25246 0.214298 4.2115 0.16271 4.15991C0.111123 4.10832 0.0702023 4.04706 0.0422844 3.97966C0.0143664 3.91225 -1.77562e-06 3.84007 1.64583e-10 3.76711Z" fill="white"/>
<path d="M2.22266 1.54482C2.22266 1.47186 2.23703 1.39961 2.26495 1.33221C2.29287 1.2648 2.33379 1.20354 2.38538 1.15195C2.43697 1.10037 2.49822 1.05947 2.56562 1.03155C2.63302 1.00363 2.70527 0.989256 2.77822 0.989258C2.92556 0.98926 3.06687 1.04777 3.17105 1.15195C3.27524 1.25614 3.33377 1.39748 3.33377 1.54482C3.33377 1.61778 3.3194 1.69003 3.29148 1.75743C3.26357 1.82484 3.22265 1.88603 3.17106 1.93762C3.11947 1.98921 3.05823 2.03017 2.99082 2.05809C2.92342 2.08601 2.85118 2.10038 2.77822 2.10038C2.70526 2.10038 2.63302 2.08601 2.56561 2.05809C2.49821 2.03017 2.43696 1.98927 2.38537 1.93769C2.33378 1.8861 2.29286 1.82484 2.26494 1.75743C2.23702 1.69003 2.22265 1.61778 2.22266 1.54482Z" fill="white"/>
<path d="M13.334 1.54494C13.334 1.69228 13.3925 1.83356 13.4967 1.93774C13.6009 2.04193 13.7422 2.1005 13.8895 2.1005C14.0369 2.1005 14.1782 2.04193 14.2824 1.93774C14.3865 1.83356 14.4451 1.69228 14.4451 1.54494C14.4451 1.47198 14.4307 1.39973 14.4028 1.33233C14.3749 1.26492 14.334 1.20366 14.2824 1.15208C14.2308 1.10049 14.1695 1.05959 14.1021 1.03167C14.0347 1.00375 13.9625 0.989381 13.8895 0.98938C13.8166 0.989381 13.7443 1.00375 13.6769 1.03167C13.6095 1.05959 13.5483 1.10049 13.4967 1.15208C13.4451 1.20366 13.4042 1.26492 13.3763 1.33233C13.3484 1.39973 13.334 1.47198 13.334 1.54494Z" fill="white"/>
<path d="M12.2213 1.54494C12.2213 2.10051 11.6658 2.1005 11.6658 2.1005H6.11023C5.73978 2.1005 5.55469 1.8228 5.55469 1.54494C5.55469 1.26711 5.73967 0.98938 6.11023 0.98938H11.6658C11.6658 0.98938 12.2213 0.989395 12.2213 1.54494Z" fill="white"/>
<path d="M4.44531 3.76711C4.44531 3.84007 4.45968 3.91232 4.4876 3.97972C4.51553 4.04712 4.55645 4.10839 4.60804 4.15998C4.65963 4.21156 4.72087 4.25246 4.78828 4.28038C4.85568 4.3083 4.92792 4.32267 5.00088 4.32267C5.14822 4.32267 5.28952 4.26416 5.39371 4.15998C5.49789 4.05579 5.55642 3.91445 5.55643 3.76711C5.55643 3.69415 5.54206 3.6219 5.51414 3.5545C5.48622 3.48709 5.4453 3.4259 5.39371 3.37431C5.34213 3.32272 5.28088 3.28176 5.21348 3.25384C5.14608 3.22592 5.07384 3.21155 5.00088 3.21155C4.92792 3.21155 4.85568 3.22592 4.78827 3.25384C4.72087 3.28176 4.65962 3.32265 4.60803 3.37424C4.55644 3.42583 4.51552 3.48709 4.4876 3.5545C4.45968 3.6219 4.44531 3.69415 4.44531 3.76711Z" fill="white"/>
<path d="M9.99933 3.76711C9.99933 4.32268 9.44377 4.32267 9.44377 4.32267H7.22156C6.85111 4.32267 6.66602 4.04497 6.66602 3.76711C6.66602 3.48927 6.851 3.21155 7.22156 3.21155H9.44377C9.44377 3.21155 9.99933 3.21156 9.99933 3.76711Z" fill="white"/>
<path d="M27.2216 16.5448C27.1486 16.5448 27.0764 16.5305 27.009 16.5025C26.9416 16.4746 26.8803 16.4337 26.8287 16.3821C26.7771 16.3305 26.7362 16.2693 26.7083 16.2019C26.6804 16.1345 26.666 16.0622 26.666 15.9893C26.666 15.8419 26.7245 15.7006 26.8287 15.5964C26.9329 15.4922 27.0742 15.4337 27.2216 15.4337C27.2945 15.4337 27.3668 15.4481 27.4342 15.476C27.5016 15.5039 27.5628 15.5448 27.6144 15.5964C27.666 15.648 27.7069 15.7093 27.7348 15.7767C27.7628 15.8441 27.7771 15.9163 27.7771 15.9893C27.7771 16.0622 27.7628 16.1345 27.7348 16.2019C27.7069 16.2693 27.666 16.3306 27.6144 16.3821C27.5628 16.4337 27.5016 16.4746 27.4342 16.5025C27.3668 16.5305 27.2945 16.5448 27.2216 16.5448Z" fill="white"/>
<path d="M27.2216 17.6559C26.666 17.6559 26.666 18.2115 26.666 18.2115V23.767C26.666 24.1375 26.9437 24.3226 27.2216 24.3226C27.4994 24.3226 27.7771 24.1373 27.7771 23.767V18.2115C27.7771 18.2115 27.7771 17.6559 27.2216 17.6559Z" fill="white"/>
<path d="M9.44531 30.4335C9.44531 30.3606 9.45968 30.2884 9.48761 30.221C9.51553 30.1536 9.55645 30.0923 9.60804 30.0407C9.65963 29.9892 9.72087 29.9483 9.78828 29.9203C9.85568 29.8924 9.92792 29.878 10.0009 29.8781C10.1482 29.8781 10.2895 29.9366 10.3937 30.0407C10.4979 30.1449 10.5564 30.2862 10.5564 30.4335C10.5564 30.5065 10.5421 30.5788 10.5141 30.6462C10.4862 30.7136 10.4453 30.7748 10.3937 30.8264C10.3421 30.878 10.2809 30.919 10.2135 30.9469C10.1461 30.9748 10.0738 30.9892 10.0009 30.9892C9.92792 30.9892 9.85568 30.9748 9.78827 30.9469C9.72087 30.919 9.65962 30.878 9.60803 30.8264C9.55644 30.7748 9.51552 30.7136 9.4876 30.6462C9.45968 30.5788 9.44531 30.5065 9.44531 30.4335Z" fill="white"/>
<path d="M14.9993 30.4336C14.9993 29.878 14.4438 29.8781 14.4438 29.8781H12.2216C11.8511 29.8781 11.666 30.1558 11.666 30.4336C11.666 30.7114 11.8512 30.9892 12.2216 30.9892H14.4438C14.4438 30.9892 14.9993 30.9892 14.9993 30.4336Z" fill="white"/>
<path d="M0.555567 13.2114C1.11111 13.2114 1.11111 12.6559 1.11111 12.6559V7.10036C1.11111 6.72991 0.833403 6.5448 0.555567 6.5448C0.27771 6.5448 0 6.72999 0 7.10036V12.6559C0 12.6559 -1.8773e-07 13.2114 0.555567 13.2114Z" fill="white"/>
<path d="M0.555567 16.5448C1.11111 16.5448 1.11111 15.9892 1.11111 15.9892V14.8781C1.11111 14.5076 0.833403 14.3225 0.555567 14.3225C0.27771 14.3225 0 14.5077 0 14.8781V15.9892C0 15.9892 -1.8773e-07 16.5448 0.555567 16.5448Z" fill="white"/>
<path d="M23.3332 0.989258C20.8852 0.989258 18.8888 2.98568 18.8888 5.43369C18.8888 5.65745 18.9249 5.88848 18.9756 6.12272C18.0405 5.63697 17.0302 5.27677 15.9624 5.07459C16.4317 5.7229 16.8306 6.55841 17.1657 7.56366C17.8545 9.62989 18.2787 12.3842 18.3257 15.4337H24.9749C24.9194 14.3172 24.6886 13.2488 24.325 12.2436C24.7033 11.7188 25.2002 11.0069 25.7453 10.1451C26.2393 9.36417 26.7388 8.51697 27.119 7.70585C27.4993 6.89472 27.7777 6.13829 27.7777 5.43369C27.7777 2.98568 25.7812 0.989258 23.3332 0.989258ZM23.3332 2.10038C25.1808 2.10038 26.6666 3.58616 26.6666 5.43369C26.6666 5.80299 26.4601 6.48941 26.111 7.23378C25.7621 7.97818 25.2851 8.7986 24.8068 9.55477C24.0699 10.7198 23.6336 11.309 23.3332 11.7118C23.0323 11.3083 22.5938 10.7187 21.8575 9.55477C21.3793 8.7986 20.9023 7.97818 20.5533 7.23378C20.2044 6.48941 19.9999 5.80299 19.9999 5.43369C19.9999 3.58616 21.4857 2.10038 23.3332 2.10038ZM13.8888 4.87812C13.5773 4.87854 13.2142 5.07089 12.8103 5.58344C12.4059 6.09653 12.0051 6.90094 11.6666 7.91635C11.0297 9.82727 10.6129 12.4846 10.5653 15.4337H17.2135C17.1659 12.4846 16.7491 9.82727 16.1121 7.91635C15.7737 6.90094 15.3728 6.09653 14.9685 5.58344C14.5641 5.07039 14.2006 4.87812 13.8888 4.87812ZM11.8109 5.07555C6.84991 6.01707 3.05956 10.2645 2.80273 15.4335H9.45418C9.50101 12.3841 9.92428 9.62983 10.613 7.56359C10.9479 6.55896 11.3426 5.72374 11.8109 5.07555ZM2.80273 16.5447C2.99122 20.3378 5.08637 23.6292 8.14668 25.4877L10.0803 23.5541C10.0633 23.4336 9.99997 23.3379 9.99997 23.2113C9.99997 22.9696 10.0407 22.7388 10.0998 22.5147C9.7181 20.7731 9.48795 18.7372 9.45418 16.5447H2.80273ZM10.5653 16.5447C10.592 18.1906 10.7371 19.7403 10.9678 21.1258C11.4564 20.7007 12.0855 20.4335 12.7777 20.4335C14.3018 20.4335 15.5555 21.6872 15.5555 23.2113C15.5555 23.3377 15.492 23.4336 15.4752 23.5541L16.0774 24.1564C16.0886 24.1236 16.101 24.0953 16.1121 24.0619C16.749 22.1515 17.1657 19.493 17.2135 16.5446L10.5653 16.5447ZM18.3257 16.5447C18.2786 19.5937 17.8543 22.3487 17.1657 24.4146C17.0952 24.6263 17.0196 24.8259 16.9433 25.0223L17.4348 25.5138C17.5553 25.497 17.6511 25.4336 17.7777 25.4336C18.2575 25.4336 18.7038 25.5694 19.0993 25.7873C22.4467 23.9993 24.7759 20.5535 24.9749 16.5447L18.3257 16.5447Z" fill="white"/>
</svg>
