<svg width="43" height="40" viewBox="0 0 43 40" fill="none" xmlns="http://www.w3.org/2000/svg">
<path d="M39.8022 23.5565H13.8636C12.3637 23.5565 11.2168 22.4095 11.2168 20.9097V19.4981C11.2168 19.3216 11.305 19.1452 11.4815 19.1452C11.6579 19.0569 11.8344 19.0569 11.9226 19.2334C12.0108 19.3216 12.1873 19.4098 12.3637 19.5863C13.0696 20.2039 14.04 20.9979 14.8341 20.9979C15.0988 20.9979 15.2752 20.9097 15.4517 20.645C15.7163 20.2921 15.5399 19.6745 15.0988 19.4098C13.8636 18.704 12.5402 17.4689 11.305 15.8808C11.2168 15.7926 11.2168 15.7043 11.2168 15.6161V5.20539C11.2168 3.70554 12.3637 2.55859 13.8636 2.55859H39.8022C41.302 2.55859 42.4489 3.70554 42.4489 5.20539V20.9097C42.4489 22.4095 41.302 23.5565 39.8022 23.5565ZM12.0991 20.3803V20.9097C12.0991 21.8802 12.8931 22.6742 13.8636 22.6742H39.8022C40.7726 22.6742 41.5667 21.8802 41.5667 20.9097V5.20539C41.5667 4.2349 40.7726 3.44086 39.8022 3.44086H13.8636C12.8931 3.44086 12.0991 4.2349 12.0991 5.20539V15.2632C13.246 16.6748 14.4812 17.8218 15.6281 18.4393C16.4222 19.0569 16.6868 20.0274 16.2457 20.9097C15.8928 21.439 15.3634 21.7037 14.8341 21.7037C13.8636 21.7037 12.8931 21.0861 12.0991 20.3803Z" fill="#F84923"/>
<path d="M13.4196 5.64639C13.155 5.64639 12.9785 5.46994 12.9785 5.20526C12.9785 4.6759 13.3314 4.323 13.8608 4.323H19.6837C19.9484 4.323 20.1249 4.49945 20.1249 4.76413C20.1249 5.02881 19.9484 5.20526 19.6837 5.20526H13.8608C13.8608 5.46994 13.6843 5.64639 13.4196 5.64639Z" fill="#F84923"/>
<path d="M23.3903 5.20526H21.3611C21.0964 5.20526 20.9199 5.02881 20.9199 4.76413C20.9199 4.49945 21.0964 4.323 21.3611 4.323H23.3903C23.6549 4.323 23.8314 4.49945 23.8314 4.76413C23.8314 5.02881 23.6549 5.20526 23.3903 5.20526Z" fill="#F84923"/>
<path d="M15.1873 11.3812C14.3933 11.3812 13.6875 10.6754 13.6875 9.88132C13.6875 9.08728 14.3933 8.38147 15.1873 8.38147C15.9814 8.38147 16.6872 9.08728 16.6872 9.88132C16.6872 10.6754 15.9814 11.3812 15.1873 11.3812ZM15.1873 9.26373C14.8344 9.26373 14.5698 9.52841 14.5698 9.88132C14.5698 10.2342 14.8344 10.4989 15.1873 10.4989C15.5403 10.4989 15.8049 10.2342 15.8049 9.88132C15.8049 9.52841 15.5403 9.26373 15.1873 9.26373Z" fill="#F84923"/>
<path d="M25.0685 14.7338C24.1863 14.7338 23.4805 14.028 23.4805 13.1457C23.4805 12.2634 24.1863 11.5576 25.0685 11.5576C25.9508 11.5576 26.6566 12.2634 26.6566 13.1457C26.6566 14.028 25.9508 14.7338 25.0685 14.7338ZM25.0685 12.4399C24.7156 12.4399 24.3627 12.7928 24.3627 13.1457C24.3627 13.4986 24.7156 13.8515 25.0685 13.8515C25.4214 13.8515 25.7744 13.4986 25.7744 13.1457C25.7744 12.7928 25.4214 12.4399 25.0685 12.4399Z" fill="#F84923"/>
<path d="M18.8026 19.4097C18.0085 19.4097 17.3027 18.7039 17.3027 17.9099C17.3027 17.1158 18.0085 16.41 18.8026 16.41C19.5966 16.41 20.3024 17.1158 20.3024 17.9099C20.3024 18.7039 19.5966 19.4097 18.8026 19.4097ZM18.8026 17.2923C18.4497 17.2923 18.185 17.557 18.185 17.9099C18.185 18.2628 18.4497 18.5275 18.8026 18.5275C19.1555 18.5275 19.4202 18.2628 19.4202 17.9099C19.4202 17.557 19.1555 17.2923 18.8026 17.2923Z" fill="#F84923"/>
<path d="M14.2157 15.8808C14.1275 15.8808 13.951 15.8808 13.8628 15.7925C13.6864 15.6161 13.6864 15.3514 13.8628 15.1749L15.2744 13.7633C15.4509 13.5869 15.7156 13.5869 15.892 13.7633C16.0685 13.9398 16.0685 14.2045 15.892 14.3809L14.4804 15.7925C14.4804 15.8808 14.3039 15.8808 14.2157 15.8808Z" fill="#F84923"/>
<path d="M15.6273 15.8808C15.5391 15.8808 15.3627 15.8808 15.2744 15.7925L13.8628 14.3809C13.6864 14.2045 13.6864 13.9398 13.8628 13.7633C14.0393 13.5869 14.3039 13.5869 14.4804 13.7633L15.892 15.1749C16.0685 15.3514 16.0685 15.6161 15.892 15.7925C15.892 15.8808 15.7156 15.8808 15.6273 15.8808Z" fill="#F84923"/>
<path d="M25.245 19.4098C25.1568 19.4098 24.9803 19.4098 24.8921 19.3216C24.7157 19.1451 24.7157 18.8804 24.8921 18.704L26.3037 17.2924C26.4802 17.1159 26.7449 17.1159 26.9213 17.2924C27.0978 17.4688 27.0978 17.7335 26.9213 17.91L25.5097 19.3216C25.5097 19.4098 25.3332 19.4098 25.245 19.4098Z" fill="#F84923"/>
<path d="M26.6566 19.4098C26.5684 19.4098 26.392 19.4098 26.3037 19.3216L24.8921 17.91C24.7157 17.7335 24.7157 17.4688 24.8921 17.2924C25.0686 17.1159 25.3332 17.1159 25.5097 17.2924L26.9213 18.704C27.0978 18.8804 27.0978 19.1451 26.9213 19.3216C26.9213 19.4098 26.7449 19.4098 26.6566 19.4098Z" fill="#F84923"/>
<path d="M24.1864 9.52834C24.0982 9.52834 23.9217 9.52834 23.8335 9.44011C23.6571 9.26366 23.6571 8.99898 23.8335 8.82253L25.2451 7.4109C25.4216 7.23445 25.6863 7.23445 25.8627 7.4109C26.0392 7.58736 26.0392 7.85204 25.8627 8.02849L24.4511 9.44011C24.4511 9.52834 24.2746 9.52834 24.1864 9.52834Z" fill="#F84923"/>
<path d="M25.598 9.52834C25.5098 9.52834 25.3334 9.52834 25.2451 9.44011L23.8335 8.02849C23.6571 7.85204 23.6571 7.58736 23.8335 7.4109C24.01 7.23445 24.2746 7.23445 24.4511 7.4109L25.8627 8.82253C26.0392 8.99898 26.0392 9.26366 25.8627 9.44011C25.8627 9.52834 25.6863 9.52834 25.598 9.52834Z" fill="#F84923"/>
<path d="M19.5956 17.7336C19.5073 17.7336 19.3309 17.6454 19.2427 17.5572C19.0662 17.3807 19.1544 17.116 19.3309 16.9396L23.9187 13.4105C24.0951 13.2341 24.3598 13.3223 24.5363 13.4987C24.7127 13.6752 24.6245 13.9399 24.448 14.1163L19.8603 17.6454C19.772 17.7336 19.6838 17.7336 19.5956 17.7336Z" fill="#F84923"/>
<path d="M16.2458 9.96954C16.0694 9.96954 15.8929 9.88132 15.8047 9.70487C15.7165 9.44019 15.8929 9.26373 16.0694 9.17551L20.7454 7.58743C21.0101 7.49921 21.1865 7.67566 21.2748 7.85211C21.363 8.11679 21.1865 8.29324 21.0101 8.38147L16.3341 9.96954C16.3341 9.96954 16.3341 9.96954 16.2458 9.96954Z" fill="#F84923"/>
<path d="M24.0096 13.234C23.9214 13.234 23.9214 13.234 23.8332 13.234L16.0692 10.6754C15.8046 10.5872 15.7163 10.3225 15.8046 10.146C15.8928 9.88135 16.1575 9.79313 16.3339 9.88135L24.0979 12.4399C24.3625 12.5281 24.4508 12.7928 24.3625 12.9693C24.3625 13.1457 24.1861 13.234 24.0096 13.234Z" fill="#F84923"/>
<path d="M19.9512 9.61671C19.863 9.61671 19.7747 9.61671 19.6865 9.52848C19.51 9.35203 19.4218 9.08735 19.5983 8.91089L20.1276 8.20508L19.1571 7.9404C18.8925 7.85218 18.8042 7.67572 18.8925 7.41105C18.9807 7.14637 19.2454 7.05814 19.4218 7.14637L21.0099 7.5875C21.1863 7.5875 21.2746 7.76395 21.2746 7.85218C21.3628 8.02863 21.2746 8.11686 21.1863 8.29331L20.2159 9.52848C20.2159 9.52848 20.0394 9.61671 19.9512 9.61671Z" fill="#F84923"/>
<path d="M34.5951 8.46967H32.1247C31.86 8.46967 31.6836 8.29322 31.6836 8.02854V5.5582C31.6836 5.29352 31.86 5.11707 32.1247 5.11707H34.5951C34.8597 5.11707 35.0362 5.29352 35.0362 5.5582V8.02854C35.0362 8.29322 34.8597 8.46967 34.5951 8.46967ZM32.5659 7.5874H34.1539V5.99933H32.5659V7.5874Z" fill="#F84923"/>
<path d="M39.5379 6.61701H36.1853C35.9206 6.61701 35.7441 6.44055 35.7441 6.17587C35.7441 5.91119 35.9206 5.73474 36.1853 5.73474H39.5379C39.8026 5.73474 39.979 5.91119 39.979 6.17587C39.979 6.44055 39.8026 6.61701 39.5379 6.61701Z" fill="#F84923"/>
<path d="M37.6851 7.94049H36.1853C35.9206 7.94049 35.7441 7.76404 35.7441 7.49936C35.7441 7.23468 35.9206 7.05823 36.1853 7.05823H37.6851C37.9498 7.05823 38.1263 7.23468 38.1263 7.49936C38.1263 7.76404 37.9498 7.94049 37.6851 7.94049Z" fill="#F84923"/>
<path d="M34.5951 12.7047H32.1247C31.86 12.7047 31.6836 12.5282 31.6836 12.2635V9.79318C31.6836 9.5285 31.86 9.35205 32.1247 9.35205H34.5951C34.8597 9.35205 35.0362 9.5285 35.0362 9.79318V12.2635C35.0362 12.5282 34.8597 12.7047 34.5951 12.7047ZM32.5659 11.8224H34.1539V10.2343H32.5659V11.8224Z" fill="#F84923"/>
<path d="M39.5379 10.7637H36.1853C35.9206 10.7637 35.7441 10.5873 35.7441 10.3226C35.7441 10.0579 35.9206 9.88147 36.1853 9.88147H39.5379C39.8026 9.88147 39.979 10.0579 39.979 10.3226C39.979 10.5873 39.8026 10.7637 39.5379 10.7637Z" fill="#F84923"/>
<path d="M37.6851 12.087H36.1853C35.9206 12.087 35.7441 11.9105 35.7441 11.6458C35.7441 11.3812 35.9206 11.2047 36.1853 11.2047H37.6851C37.9498 11.2047 38.1263 11.3812 38.1263 11.6458C38.1263 11.9105 37.9498 12.087 37.6851 12.087Z" fill="#F84923"/>
<path d="M34.5951 16.8513H32.1247C31.86 16.8513 31.6836 16.6748 31.6836 16.4101V13.9398C31.6836 13.6751 31.86 13.4987 32.1247 13.4987H34.5951C34.8597 13.4987 35.0362 13.6751 35.0362 13.9398V16.4101C35.0362 16.6748 34.8597 16.8513 34.5951 16.8513ZM32.5659 15.969H34.1539V14.3809H32.5659V15.969Z" fill="#F84923"/>
<path d="M39.5379 14.9102H36.1853C35.9206 14.9102 35.7441 14.7338 35.7441 14.4691C35.7441 14.2044 35.9206 14.028 36.1853 14.028H39.5379C39.8026 14.028 39.979 14.2044 39.979 14.4691C39.979 14.7338 39.8026 14.9102 39.5379 14.9102Z" fill="#F84923"/>
<path d="M37.6851 16.322H36.1853C35.9206 16.322 35.7441 16.1455 35.7441 15.8808C35.7441 15.6162 35.9206 15.4397 36.1853 15.4397H37.6851C37.9498 15.4397 38.1263 15.6162 38.1263 15.8808C38.1263 16.1455 37.9498 16.322 37.6851 16.322Z" fill="#F84923"/>
<path d="M34.5951 20.9979H32.1247C31.86 20.9979 31.6836 20.8214 31.6836 20.5567V18.0864C31.6836 17.8217 31.86 17.6453 32.1247 17.6453H34.5951C34.8597 17.6453 35.0362 17.8217 35.0362 18.0864V20.5567C35.0362 20.8214 34.8597 20.9979 34.5951 20.9979ZM32.5659 20.1156H34.1539V18.5275H32.5659V20.1156Z" fill="#F84923"/>
<path d="M39.5379 19.0569H36.1853C35.9206 19.0569 35.7441 18.8805 35.7441 18.6158C35.7441 18.3511 35.9206 18.1747 36.1853 18.1747H39.5379C39.8026 18.1747 39.979 18.3511 39.979 18.6158C39.979 18.8805 39.8026 19.0569 39.5379 19.0569Z" fill="#F84923"/>
<path d="M37.6851 20.4684H36.1853C35.9206 20.4684 35.7441 20.292 35.7441 20.0273C35.7441 19.7626 35.9206 19.5862 36.1853 19.5862H37.6851C37.9498 19.5862 38.1263 19.7626 38.1263 20.0273C38.1263 20.292 37.9498 20.4684 37.6851 20.4684Z" fill="#F84923"/>
<path d="M29.3904 20.9979C29.1257 20.9979 28.9492 20.8215 28.9492 20.5568V5.55832C28.9492 5.29364 29.1257 5.11719 29.3904 5.11719C29.655 5.11719 29.8315 5.29364 29.8315 5.55832V20.5568C29.8315 20.8215 29.655 20.9979 29.3904 20.9979Z" fill="#F84923"/>
<path d="M14.7432 21.792C13.6845 21.792 12.4493 20.8215 11.6553 20.1157C11.4788 19.9392 11.2141 19.7628 11.1259 19.6745C10.0672 18.704 8.92024 17.6453 8.03798 16.5866C7.94975 16.4984 7.94975 16.4101 7.94975 16.3219C7.86153 14.8221 7.86153 13.234 7.94975 11.4695C8.03798 11.0283 7.94975 10.7637 7.86153 10.499C7.86153 10.4108 7.7733 10.4108 7.7733 10.3225L7.68507 10.2343C7.50862 10.0578 7.50862 9.79317 7.68507 9.61671C7.86153 9.44026 8.12621 9.44026 8.30266 9.61671C8.39088 9.70494 8.56734 9.88139 8.65556 10.0578V10.1461C9.4496 11.8224 10.5965 13.4104 11.7435 14.9103C12.714 16.1455 14.1256 17.6453 15.6254 18.6158C16.0666 18.8805 16.4195 19.2334 16.5077 19.7627C16.5959 20.2039 16.5077 20.7332 16.243 21.0861C15.8019 21.5273 15.2725 21.792 14.7432 21.792ZM8.74379 16.0572C9.62605 17.0277 10.5965 17.9982 11.567 18.8805C11.7435 18.9687 11.9199 19.1452 12.1846 19.3216C13.2433 20.2039 14.7432 21.4391 15.449 20.3803C15.5372 20.2039 15.6254 20.0274 15.5372 19.7627C15.449 19.4981 15.2725 19.3216 15.0961 19.1452C13.4198 18.1747 11.9199 16.4984 10.8612 15.2632C10.1554 14.2045 9.36137 13.1458 8.65556 12.0871C8.65556 13.4987 8.65556 14.8221 8.74379 16.0572Z" fill="#F84923"/>
<path d="M8.92185 39.9667H8.83363C7.95136 39.9667 6.89265 39.2609 6.89265 37.9375V37.2316C6.89265 35.026 6.89265 32.8203 6.53974 30.7029C6.36329 32.2027 6.18683 33.5261 5.7457 34.7613C5.3928 35.9965 5.03989 37.2316 4.68699 38.555C4.33408 39.6138 3.36359 40.1431 2.30487 39.9667C1.33438 39.5255 0.805023 38.555 0.981476 37.5845L1.24616 36.4376C1.86374 33.1732 2.48133 30.0853 1.86374 26.9092C1.77551 26.468 1.77551 25.9387 1.68729 25.4975C1.59906 25.0564 1.51083 24.527 1.51083 24.0859C1.51083 23.8212 1.68729 23.6448 1.86374 23.6448C2.12842 23.6448 2.30487 23.8212 2.30487 23.9977C2.30487 24.4388 2.3931 24.8799 2.48133 25.3211C2.56955 25.7622 2.65778 26.2916 2.65778 26.7327C3.27536 30.0853 2.65778 33.3497 2.04019 36.5258L1.86374 37.761C1.77551 38.3786 2.04019 38.8197 2.65778 38.9962C3.18714 39.0844 3.80472 38.8197 3.98117 38.2021C4.33408 36.8787 4.68698 35.6436 5.03989 34.4084C5.65748 32.4674 5.92215 30.2618 5.92215 27.3503C5.92215 27.1738 6.09861 26.9092 6.27506 26.9092C6.45151 26.9092 6.71619 26.9974 6.80442 27.1738C7.86314 30.5264 7.86314 33.7026 7.86314 37.0552V37.761C7.86314 38.555 8.48072 38.9079 8.92185 38.9079C9.45121 38.9079 10.0688 38.6433 10.157 37.8492C10.157 37.3199 10.2452 36.8787 10.2452 36.3494C10.4217 34.1437 10.5099 32.0263 10.4217 29.8206C10.0688 27.7032 9.62766 25.7622 9.18653 23.733C9.09831 23.2036 8.92185 22.5861 8.83363 22.0567C8.7454 21.9685 8.7454 21.8802 8.7454 21.7038C8.12782 18.4394 7.86314 14.9104 8.12782 11.2931C8.21604 10.6755 8.03959 10.2344 7.77491 9.88146C7.33378 9.3521 6.36329 9.08742 5.03989 8.99919C2.65778 8.91097 1.68729 9.44033 1.59906 10.8519C1.59906 11.1166 1.42261 11.2931 1.15793 11.2931C0.89325 11.2931 0.716797 11.1166 0.716797 10.8519C0.805023 7.94048 3.89295 8.11693 5.03989 8.11693C6.62797 8.20516 7.77491 8.55806 8.39249 9.26387C8.83363 9.79323 9.01008 10.499 9.01008 11.2931C8.7454 14.8221 9.01008 18.3512 9.62766 21.6156C9.62766 21.7038 9.71589 21.7038 9.71589 21.792C9.89234 22.4096 9.98057 23.0272 10.157 23.6448C10.5982 25.674 11.0393 27.615 11.3922 29.8206C11.5686 32.1145 11.3922 34.2319 11.2157 36.4376C11.2157 36.967 11.1275 37.4081 11.1275 37.9375C10.8628 39.3491 9.89234 39.9667 8.92185 39.9667Z" fill="#F84923"/>
<path d="M9.09898 22.4094C8.92252 22.4094 8.74607 22.2329 8.65784 22.0565C8.65784 21.9683 8.56962 21.9683 8.56962 21.88C7.95203 18.8803 7.77558 15.3513 7.95203 11.3811C8.04026 9.96947 7.158 9.26366 4.86411 9.08721C2.57022 8.99898 1.59973 9.52834 1.42328 10.94C1.42328 11.2046 1.1586 11.3811 0.982148 11.3811C0.717468 11.3811 0.541016 11.1164 0.541016 10.94C0.805695 8.02849 3.80539 8.20494 4.86411 8.20494C6.09928 8.29317 8.92252 8.55785 8.8343 11.3811C8.65784 15.2631 8.8343 18.7039 9.45188 21.5271C9.54011 21.6154 9.54011 21.7036 9.54011 21.88C9.54011 22.2329 9.36366 22.4094 9.09898 22.4094Z" fill="#F84923"/>
<path d="M2.74605 24.7916C2.39314 24.7916 2.04024 24.7034 1.77556 24.5269C0.805066 23.8211 0.540387 22.233 0.363934 21.0861C0.363934 20.8214 0.275708 20.5567 0.275708 20.3803C-0.165424 17.3806 -0.0771981 14.2044 0.540387 10.5872C0.540387 10.3225 0.805066 10.146 1.06974 10.2343C1.33442 10.2343 1.51088 10.4989 1.42265 10.7636C0.805066 14.2927 0.805066 17.2924 1.15797 20.2921C1.15797 20.4685 1.2462 20.7332 1.2462 20.9979C1.42265 21.9684 1.5991 23.38 2.21669 23.8211C2.39314 23.9976 2.65782 23.9976 2.9225 23.9093C3.09895 23.8211 3.36363 23.6447 3.45186 23.4682C3.62831 23.2918 3.62831 23.1153 3.54008 22.8506C3.09895 21.2626 3.01073 19.4098 3.09895 17.1159L3.36363 14.3809C3.36363 14.1162 3.62831 13.9398 3.80476 14.028C4.06944 14.028 4.2459 14.2927 4.15767 14.4691L3.89299 17.2041C3.80476 19.3216 3.98122 21.1743 4.33412 22.586C4.51058 23.0271 4.42235 23.4682 4.2459 23.9093C4.06944 24.2623 3.62831 24.6152 3.18718 24.7916C3.09895 24.7916 2.9225 24.7916 2.74605 24.7916Z" fill="#F84923"/>
<path d="M5.3064 7.05811C3.36542 7.05811 1.77734 5.47004 1.77734 3.52906C1.77734 1.58808 3.36542 0 5.3064 0C7.24738 0 8.83546 1.58808 8.83546 3.52906C8.83546 5.47004 7.24738 7.05811 5.3064 7.05811ZM5.3064 0.882264C3.80655 0.882264 2.65961 2.02921 2.65961 3.52906C2.65961 5.02891 3.80655 6.17585 5.3064 6.17585C6.80625 6.17585 7.95319 5.02891 7.95319 3.52906C7.95319 2.02921 6.80625 0.882264 5.3064 0.882264Z" fill="#F84923"/>
<path d="M3.89426 3.97019C3.62958 3.97019 3.45312 3.79373 3.45312 3.52905C3.45312 2.55856 4.24716 1.76453 5.21765 1.76453C5.48233 1.76453 5.65879 1.94098 5.65879 2.20566C5.65879 2.47034 5.48233 2.64679 5.21765 2.64679C4.77652 2.64679 4.33539 3.08792 4.33539 3.52905C4.33539 3.79373 4.15894 3.97019 3.89426 3.97019Z" fill="#F84923"/>
<path d="M6.27437 27.8795C6.09792 27.8795 5.92146 27.703 5.83324 27.5266C5.74501 27.2619 5.56856 26.8208 5.39211 26.6443C5.21565 26.4679 5.21565 26.2032 5.39211 26.0267C5.56856 25.8503 5.83324 25.8503 6.00969 26.0267C6.45082 26.4679 6.62727 27.1737 6.62727 27.2619C6.7155 27.5266 6.53905 27.7031 6.27437 27.7913C6.3626 27.8795 6.27437 27.8795 6.27437 27.8795Z" fill="#F84923"/>
<path d="M4.06809 23.1154C3.89163 23.1154 3.62695 22.939 3.62695 22.7625C3.62695 22.4978 3.80341 22.3214 3.97986 22.2332L9.00876 21.5273C9.27344 21.5273 9.4499 21.7038 9.53812 21.8803C9.62635 22.0567 9.36167 22.3214 9.18522 22.4096L4.06809 23.1154Z" fill="#F84923"/>
<path d="M37.9496 39.7902H32.3031C30.8033 39.7902 29.4799 38.7315 29.2152 37.2316C29.127 36.7905 29.127 36.2611 29.127 35.9082C29.127 32.9085 31.3326 32.2027 32.9207 32.0262C33.0089 32.0262 33.1854 32.0262 33.2736 32.1145L35.2146 33.7025L37.1556 32.1145C37.2438 32.0262 37.4202 32.0262 37.5085 32.0262C39.0965 32.2909 41.1257 33.085 41.1257 35.9082C41.1257 36.2611 41.1257 36.7905 41.0375 37.2316C40.6846 38.7315 39.4494 39.7902 37.9496 39.7902ZM32.8325 32.9085C30.8033 33.1732 30.0092 34.0555 30.0092 35.9082C30.0092 36.2611 30.0092 36.7022 30.0974 37.0552C30.2739 38.1139 31.2444 38.9079 32.3031 38.9079H37.9496C39.0083 38.9079 39.8906 38.1139 40.1553 37.0552C40.2435 36.7022 40.2435 36.2611 40.2435 35.9082C40.2435 34.2319 39.4494 33.3496 37.5085 32.9085L35.4793 34.5848C35.3028 34.7613 35.0381 34.7613 34.9499 34.5848L32.8325 32.9085Z" fill="#F84923"/>
<path d="M37.8608 37.9373H32.2144C31.5968 37.9373 31.0674 37.4961 30.891 36.8785C30.8027 36.5256 30.8027 36.1727 30.8027 35.9081C30.8027 35.6434 30.9792 35.4669 31.2439 35.4669C31.5085 35.4669 31.685 35.6434 31.685 35.9081C31.685 36.1727 31.685 36.3492 31.7732 36.7021C31.8615 36.9668 31.9497 37.055 32.2144 37.055H37.8608C38.1255 37.055 38.302 36.8785 38.302 36.7021C38.3902 36.4374 38.3902 36.1727 38.3902 35.9081C38.3902 35.6434 38.5667 35.4669 38.8313 35.4669C39.096 35.4669 39.2725 35.6434 39.2725 35.9081C39.2725 36.1727 39.2725 36.6139 39.1842 36.9668C39.0078 37.4079 38.5667 37.9373 37.8608 37.9373Z" fill="#F84923"/>
<path d="M33.9796 39.7901C33.2738 39.7901 32.6562 39.1725 32.6562 38.4667C32.6562 37.7609 33.2738 37.1433 33.9796 37.1433C34.2443 37.1433 34.4208 37.3198 34.4208 37.5844C34.4208 37.8491 34.2443 38.0256 33.9796 38.0256C33.715 38.0256 33.5385 38.2903 33.5385 38.4667C33.5385 38.7314 33.8032 38.9078 33.9796 38.9078C34.2443 38.9078 34.4208 39.0843 34.4208 39.349C34.4208 39.6137 34.2443 39.7901 33.9796 39.7901Z" fill="#F84923"/>
<path d="M35.0352 32.2909C33.3589 32.2909 31.9473 30.8793 31.9473 29.1148C31.9473 27.3502 33.3589 25.9386 35.0352 25.9386C36.7115 25.9386 38.1231 27.3502 38.1231 29.1148C38.1231 30.8793 36.7115 32.2909 35.0352 32.2909ZM35.0352 26.8209C33.8 26.8209 32.8295 27.8796 32.8295 29.1148C32.8295 30.3499 33.8 31.4086 35.0352 31.4086C36.2704 31.4086 37.2408 30.3499 37.2408 29.1148C37.2408 27.8796 36.2704 26.8209 35.0352 26.8209Z" fill="#F84923"/>
<path d="M25.2429 39.7902H19.5082C18.0083 39.7902 16.6849 38.7315 16.4203 37.2316C16.332 36.7905 16.332 36.2611 16.332 35.9082C16.332 32.9085 18.5377 32.2027 20.1258 32.0262C20.214 32.0262 20.3904 32.0262 20.4787 32.1145L22.4197 33.7025L24.3606 32.1145C24.4489 32.0262 24.6253 32.0262 24.7135 32.0262C26.4781 32.3792 28.419 33.085 28.419 35.9082C28.419 36.2611 28.419 36.7905 28.3308 37.2316C27.9779 38.7315 26.7427 39.7902 25.2429 39.7902ZM20.0375 32.9085C18.0083 33.1732 17.2143 34.0555 17.2143 35.9082C17.2143 36.2611 17.2143 36.7022 17.3025 37.0552C17.479 38.1139 18.4495 38.9079 19.5082 38.9079H25.2429C26.3016 38.9079 27.1839 38.1139 27.4486 37.0552C27.5368 36.7022 27.5368 36.2611 27.5368 35.9082C27.5368 34.2319 26.7427 33.3496 24.7135 32.9085L22.6843 34.5848C22.5079 34.7613 22.2432 34.7613 22.155 34.5848L20.0375 32.9085Z" fill="#F84923"/>
<path d="M25.244 37.9374H19.5093C18.8917 37.9374 18.3623 37.4963 18.1859 36.8787C18.0977 36.5258 18.0977 36.1729 18.0977 35.9082C18.0977 35.6435 18.2741 35.467 18.5388 35.467C18.8035 35.467 18.9799 35.6435 18.9799 35.9082C18.9799 36.1729 18.9799 36.3493 19.0681 36.7022C19.1564 36.9669 19.2446 37.0551 19.5093 37.0551H25.244C25.5087 37.0551 25.6851 36.8787 25.6851 36.7022C25.7734 36.4375 25.7734 36.1729 25.7734 35.9082C25.7734 35.6435 25.9498 35.467 26.2145 35.467C26.4792 35.467 26.6556 35.6435 26.6556 35.9082C26.6556 36.1729 26.6556 36.614 26.5674 36.9669C26.3909 37.408 25.9498 37.9374 25.244 37.9374Z" fill="#F84923"/>
<path d="M21.2746 39.7901C20.5688 39.7901 19.9512 39.1725 19.9512 38.4667C19.9512 37.7609 20.5688 37.1433 21.2746 37.1433C21.5392 37.1433 21.7157 37.3198 21.7157 37.5844C21.7157 37.8491 21.5392 38.0256 21.2746 38.0256C21.0099 38.0256 20.8334 38.2903 20.8334 38.4667C20.8334 38.7314 21.0981 38.9078 21.2746 38.9078C21.5392 38.9078 21.7157 39.0843 21.7157 39.349C21.7157 39.6137 21.5392 39.7901 21.2746 39.7901Z" fill="#F84923"/>
<path d="M22.3321 32.2909C20.6558 32.2909 19.2441 30.8793 19.2441 29.1148C19.2441 27.3502 20.6558 25.9386 22.3321 25.9386C24.0084 25.9386 25.42 27.3502 25.42 29.1148C25.42 30.8793 24.0084 32.2909 22.3321 32.2909ZM22.3321 26.8209C21.0969 26.8209 20.1264 27.8796 20.1264 29.1148C20.1264 30.3499 21.0969 31.4086 22.3321 31.4086C23.5672 31.4086 24.5377 30.3499 24.5377 29.1148C24.5377 27.8796 23.5672 26.8209 22.3321 26.8209Z" fill="#F84923"/>
</svg>
