<svg width="60" height="60" viewBox="0 0 60 60" fill="none" xmlns="http://www.w3.org/2000/svg">
<path d="M56.1508 36.1363C55.7945 35.4238 55.7102 35.6206 44.0664 35.6206C44.0664 11.855 44.1695 12.1831 43.9727 11.7988C43.8602 11.555 44.4414 12.1738 36.2945 4.01751C35.8633 3.59563 36.932 3.74563 9.37891 3.74563C9.13027 3.74563 8.89181 3.84441 8.71599 4.02022C8.54018 4.19604 8.44141 4.43449 8.44141 4.68313V16.8706H4.69141C4.44277 16.8706 4.20431 16.9694 4.02849 17.1452C3.85268 17.321 3.75391 17.5595 3.75391 17.8081V30.9331C3.75391 31.1818 3.85268 31.4202 4.02849 31.596C4.20431 31.7719 4.44277 31.8706 4.69141 31.8706H8.44141V51.5581C8.44141 51.8068 8.54018 52.0452 8.71599 52.221C8.89181 52.3969 9.13027 52.4956 9.37891 52.4956H24.3789V55.3081C24.3789 55.5568 24.4777 55.7952 24.6535 55.971C24.8293 56.1469 25.0678 56.2456 25.3164 56.2456H55.3164C55.565 56.2456 55.8035 56.1469 55.9793 55.971C56.1551 55.7952 56.2539 55.5568 56.2539 55.3081C56.2539 35.7144 56.3008 36.4269 56.1508 36.1363ZM51.3414 37.4956L40.3164 43.0081L29.2914 37.4956H51.3414ZM40.8695 11.2456H36.5664V6.94251L40.8695 11.2456ZM5.62891 18.7456H22.5039V29.9956H5.62891V18.7456ZM10.3164 50.6206V31.8706H23.4414C23.69 31.8706 23.9285 31.7719 24.1043 31.596C24.2801 31.4202 24.3789 31.1818 24.3789 30.9331V17.8081C24.3789 17.5595 24.2801 17.321 24.1043 17.1452C23.9285 16.9694 23.69 16.8706 23.4414 16.8706H10.3164V5.62063H34.6914V12.1831C34.6914 12.4318 34.7902 12.6702 34.966 12.846C35.1418 13.0219 35.3803 13.1206 35.6289 13.1206H42.1914V35.6206C25.007 35.6206 24.8477 35.405 24.482 36.1363C24.3227 36.4456 24.3789 35.8269 24.3789 50.6206H10.3164ZM26.2539 54.3706V38.0769C41.1227 45.5113 39.9883 44.9956 40.3164 44.9956C40.6445 44.9956 39.5945 45.4644 54.3789 38.0769V54.3706H26.2539Z" fill="white"/>
<path d="M50.732 34.3017C50.8193 34.4211 50.9336 34.5182 51.0656 34.585C51.1976 34.6518 51.3435 34.6864 51.4914 34.686C52.1008 34.686 51.9789 34.686 55.1195 30.5704C55.4008 30.2048 55.3164 31.7329 55.3164 10.311C55.3144 9.98382 55.2269 9.66282 55.0624 9.37994C54.8979 9.09706 54.6623 8.86214 54.3789 8.69853V6.56104C54.3789 5.81511 54.0826 5.09974 53.5551 4.5723C53.0277 4.04485 52.3123 3.74854 51.5664 3.74854C50.8205 3.74854 50.1051 4.04485 49.5777 4.5723C49.0502 5.09974 48.7539 5.81511 48.7539 6.56104V8.69853C48.4705 8.86214 48.2349 9.09706 48.0704 9.37994C47.906 9.66282 47.8184 9.98382 47.8164 10.311C47.8164 31.8735 47.7414 30.1954 47.9945 30.5517L50.732 34.3017ZM53.4414 29.6798L51.5102 32.1829L49.6914 29.6892V10.311H53.4414V29.6798ZM50.6289 6.56104C50.6289 6.31239 50.7277 6.07394 50.9035 5.89812C51.0793 5.72231 51.3178 5.62354 51.5664 5.62354C51.815 5.62354 52.0535 5.72231 52.2293 5.89812C52.4051 6.07394 52.5039 6.31239 52.5039 6.56104V8.43604H50.6289V6.56104ZM13.1289 23.436C13.1289 22.8798 12.964 22.336 12.6549 21.8735C12.3459 21.411 11.9066 21.0505 11.3927 20.8376C10.8788 20.6248 10.3133 20.5691 9.76772 20.6776C9.22214 20.7861 8.721 21.054 8.32767 21.4473C7.93433 21.8406 7.66647 22.3418 7.55795 22.8873C7.44943 23.4329 7.50512 23.9984 7.718 24.5123C7.93087 25.0262 8.29135 25.4655 8.75387 25.7745C9.21638 26.0836 9.76015 26.2485 10.3164 26.2485C11.0623 26.2485 11.7777 25.9522 12.3051 25.4248C12.8326 24.8973 13.1289 24.182 13.1289 23.436ZM9.37891 23.436C9.37891 23.1874 9.47768 22.9489 9.6535 22.7731C9.82931 22.5973 10.0678 22.4985 10.3164 22.4985C10.565 22.4985 10.8035 22.5973 10.9793 22.7731C11.1551 22.9489 11.2539 23.1874 11.2539 23.436C11.2539 23.6847 11.1551 23.9231 10.9793 24.0989C10.8035 24.2748 10.565 24.3735 10.3164 24.3735C10.0678 24.3735 9.82931 24.2748 9.6535 24.0989C9.47768 23.9231 9.37891 23.6847 9.37891 23.436ZM15.9414 25.311H19.6914C19.94 25.311 20.1785 25.2123 20.3543 25.0364C20.5301 24.8606 20.6289 24.6222 20.6289 24.3735C20.6289 24.1249 20.5301 23.8864 20.3543 23.7106C20.1785 23.5348 19.94 23.436 19.6914 23.436H15.9414C15.6928 23.436 15.4543 23.5348 15.2785 23.7106C15.1027 23.8864 15.0039 24.1249 15.0039 24.3735C15.0039 24.6222 15.1027 24.8606 15.2785 25.0364C15.4543 25.2123 15.6928 25.311 15.9414 25.311ZM15.9414 28.1235H19.6914C19.94 28.1235 20.1785 28.0248 20.3543 27.8489C20.5301 27.6731 20.6289 27.4347 20.6289 27.186C20.6289 26.9374 20.5301 26.6989 20.3543 26.5231C20.1785 26.3473 19.94 26.2485 19.6914 26.2485H15.9414C15.6928 26.2485 15.4543 26.3473 15.2785 26.5231C15.1027 26.6989 15.0039 26.9374 15.0039 27.186C15.0039 27.4347 15.1027 27.6731 15.2785 27.8489C15.4543 28.0248 15.6928 28.1235 15.9414 28.1235ZM16.8789 7.49854C16.1372 7.49854 15.4122 7.71847 14.7955 8.13052C14.1788 8.54258 13.6982 9.12825 13.4144 9.81347C13.1305 10.4987 13.0563 11.2527 13.201 11.9801C13.3457 12.7076 13.7028 13.3757 14.2273 13.9002C14.7517 14.4246 15.4199 14.7818 16.1473 14.9265C16.8747 15.0712 17.6287 14.9969 18.314 14.7131C18.9992 14.4293 19.5849 13.9486 19.9969 13.3319C20.409 12.7152 20.6289 11.9902 20.6289 11.2485C20.6289 10.254 20.2338 9.30015 19.5306 8.59688C18.8273 7.89362 17.8735 7.49854 16.8789 7.49854ZM16.8789 13.1235C16.5081 13.1235 16.1456 13.0136 15.8372 12.8075C15.5289 12.6015 15.2885 12.3087 15.1466 11.9661C15.0047 11.6235 14.9676 11.2465 15.0399 10.8827C15.1123 10.519 15.2909 10.1849 15.5531 9.92271C15.8153 9.66049 16.1494 9.48191 16.5131 9.40956C16.8768 9.33722 17.2538 9.37435 17.5964 9.51626C17.9391 9.65817 18.2319 9.8985 18.4379 10.2068C18.6439 10.5152 18.7539 10.8777 18.7539 11.2485C18.7539 11.7458 18.5564 12.2227 18.2047 12.5744C17.8531 12.926 17.3762 13.1235 16.8789 13.1235ZM23.4414 10.311H31.8789C32.1275 10.311 32.366 10.2123 32.5418 10.0364C32.7176 9.86063 32.8164 9.62218 32.8164 9.37354C32.8164 9.12489 32.7176 8.88644 32.5418 8.71062C32.366 8.53481 32.1275 8.43604 31.8789 8.43604H23.4414C23.1928 8.43604 22.9543 8.53481 22.7785 8.71062C22.6027 8.88644 22.5039 9.12489 22.5039 9.37354C22.5039 9.62218 22.6027 9.86063 22.7785 10.0364C22.9543 10.2123 23.1928 10.311 23.4414 10.311ZM28.1289 12.186H23.4414C23.1928 12.186 22.9543 12.2848 22.7785 12.4606C22.6027 12.6364 22.5039 12.8749 22.5039 13.1235C22.5039 13.3722 22.6027 13.6106 22.7785 13.7864C22.9543 13.9623 23.1928 14.061 23.4414 14.061H28.1289C28.3775 14.061 28.616 13.9623 28.7918 13.7864C28.9676 13.6106 29.0664 13.3722 29.0664 13.1235C29.0664 12.8749 28.9676 12.6364 28.7918 12.4606C28.616 12.2848 28.3775 12.186 28.1289 12.186ZM31.4102 45.936C30.7612 45.936 30.1268 46.1285 29.5872 46.489C29.0476 46.8496 28.627 47.362 28.3787 47.9616C28.1303 48.5612 28.0653 49.2209 28.192 49.8574C28.3186 50.4939 28.6311 51.0786 29.09 51.5375C29.5489 51.9964 30.1335 52.3089 30.77 52.4355C31.4065 52.5621 32.0663 52.4971 32.6658 52.2488C33.2654 52.0004 33.7779 51.5798 34.1384 51.0402C34.499 50.5007 34.6914 49.8663 34.6914 49.2173C34.6914 48.347 34.3457 47.5124 33.7304 46.8971C33.115 46.2817 32.2804 45.936 31.4102 45.936ZM31.4102 50.6235C31.0372 50.6235 30.6795 50.4754 30.4158 50.2117C30.1521 49.9479 30.0039 49.5902 30.0039 49.2173C30.0039 48.8443 30.1521 48.4866 30.4158 48.2229C30.6795 47.9592 31.0372 47.811 31.4102 47.811C31.7831 47.811 32.1408 47.9592 32.4045 48.2229C32.6683 48.4866 32.8164 48.8443 32.8164 49.2173C32.8164 49.5902 32.6683 49.9479 32.4045 50.2117C32.1408 50.4754 31.7831 50.6235 31.4102 50.6235ZM45.9414 46.8735H37.5039C37.2553 46.8735 37.0168 46.9723 36.841 47.1481C36.6652 47.3239 36.5664 47.5624 36.5664 47.811C36.5664 48.0597 36.6652 48.2981 36.841 48.4739C37.0168 48.6498 37.2553 48.7485 37.5039 48.7485H45.9414C46.19 48.7485 46.4285 48.6498 46.6043 48.4739C46.7801 48.2981 46.8789 48.0597 46.8789 47.811C46.8789 47.5624 46.7801 47.3239 46.6043 47.1481C46.4285 46.9723 46.19 46.8735 45.9414 46.8735ZM42.1914 50.6235H37.5039C37.2553 50.6235 37.0168 50.7223 36.841 50.8981C36.6652 51.0739 36.5664 51.3124 36.5664 51.561C36.5664 51.8097 36.6652 52.0481 36.841 52.2239C37.0168 52.3998 37.2553 52.4985 37.5039 52.4985H42.1914C42.44 52.4985 42.6785 52.3998 42.8543 52.2239C43.0301 52.0481 43.1289 51.8097 43.1289 51.561C43.1289 51.3124 43.0301 51.0739 42.8543 50.8981C42.6785 50.7223 42.44 50.6235 42.1914 50.6235Z" fill="white"/>
</svg>
