<svg width="30" height="30" viewBox="0 0 30 30" fill="none" xmlns="http://www.w3.org/2000/svg">
<path d="M11.4844 26.9531H28.3594V28.3594H11.4844V26.9531Z" fill="white"/>
<path d="M6.79688 19.1569V19.6875C6.79688 20.3334 7.32281 20.8594 7.96875 20.8594C8.61469 20.8594 9.14062 20.3334 9.14062 19.6875V19.1569C8.78672 19.3411 8.39062 19.4531 7.96875 19.4531C7.54688 19.4531 7.15078 19.3411 6.79688 19.1569Z" fill="white"/>
<path d="M1.64062 26.9531H3.04688V28.3594H1.64062V26.9531Z" fill="white"/>
<path d="M13.3477 25.5108L15.1809 24.9L14.6869 23.5824L13.6744 23.9199C13.5567 23.9597 13.4288 23.8997 13.3823 23.7844L12.4406 21.4238C12.1903 20.7966 11.5922 20.3911 10.9167 20.3911H9.44484C9.18047 20.9433 8.62078 21.3286 7.96875 21.3286C7.31672 21.3286 6.75703 20.9433 6.49266 20.3911H5.15625C4.25156 20.3911 3.51562 21.1271 3.51562 22.0317V28.3599H4.92188V23.4375C4.92188 23.3081 5.02688 23.2031 5.15625 23.2031C5.28563 23.2031 5.39063 23.3081 5.39063 23.4375V28.3594H11.0156V23.1905C11.0156 23.0817 11.0906 22.9875 11.1961 22.9622C11.3006 22.9378 11.4108 22.9885 11.4595 23.0855L12.4959 25.1583C12.6492 25.4653 13.0163 25.6219 13.3477 25.5108Z" fill="white"/>
<path d="M9.96898 17.506C9.77773 17.5515 9.57898 17.5782 9.37414 17.5782H6.56164C6.3568 17.5782 6.15805 17.5515 5.9668 17.506C6.23727 18.3704 7.03977 18.9844 7.96789 18.9844C8.89602 18.9844 9.69852 18.3704 9.96898 17.506Z" fill="white"/>
<path d="M2.8125 9.60938H11.7188C11.8481 9.60938 11.9531 9.71437 11.9531 9.84375V11.7188V11.8823L13.3988 9.71391C13.4423 9.64828 13.5155 9.60938 13.5938 9.60938H14.0625C14.7084 9.60938 15.2344 9.08344 15.2344 8.4375V2.8125C15.2344 2.16656 14.7084 1.64062 14.0625 1.64062H2.8125C2.16656 1.64062 1.64062 2.16656 1.64062 2.8125V8.4375C1.64062 9.08344 2.16656 9.60938 2.8125 9.60938ZM10.7812 3.51562H13.5938C13.7231 3.51562 13.8281 3.62063 13.8281 3.75C13.8281 3.87937 13.7231 3.98438 13.5938 3.98438H10.7812C10.6519 3.98438 10.5469 3.87937 10.5469 3.75C10.5469 3.62063 10.6519 3.51562 10.7812 3.51562ZM9.375 5.39062H13.5938C13.7231 5.39062 13.8281 5.49563 13.8281 5.625C13.8281 5.75437 13.7231 5.85938 13.5938 5.85938H9.375C9.24563 5.85938 9.14062 5.75437 9.14062 5.625C9.14062 5.49563 9.24563 5.39062 9.375 5.39062ZM9.375 7.26562H13.5938C13.7231 7.26562 13.8281 7.37063 13.8281 7.5C13.8281 7.62937 13.7231 7.73438 13.5938 7.73438H9.375C9.24563 7.73438 9.14062 7.62937 9.14062 7.5C9.14062 7.37063 9.24563 7.26562 9.375 7.26562ZM3.11531 4.38469C3.02391 4.29328 3.02391 4.14469 3.11531 4.05328C3.20672 3.96188 3.35531 3.96188 3.44672 4.05328L3.60328 4.20937C3.98953 3.78609 4.53984 3.51562 5.15625 3.51562C5.83969 3.51562 6.44156 3.8475 6.82734 4.35281L8.28469 3.10359C8.38312 3.01922 8.53125 3.03094 8.61516 3.12891C8.69953 3.22688 8.68828 3.375 8.58984 3.45938L7.07438 4.75828C7.19484 5.02312 7.26562 5.31516 7.26562 5.625C7.26562 6.78797 6.31922 7.73438 5.15625 7.73438C3.99328 7.73438 3.04688 6.78797 3.04688 5.625C3.04688 5.24953 3.15375 4.90125 3.32672 4.59562L3.11531 4.38469Z" fill="white"/>
<path d="M6.4743 4.65609C6.17523 4.25109 5.69805 3.98438 5.15711 3.98438C4.67008 3.98438 4.23648 4.20234 3.93555 4.54078L5.1693 5.77453L6.4743 4.65609Z" fill="white"/>
<path d="M15.6254 24.7514L16.1073 24.5906C16.4752 24.4678 16.7021 24.1003 16.6234 23.7534C16.5788 23.5561 16.4579 23.3929 16.283 23.2945C16.1101 23.197 15.9029 23.1764 15.7145 23.2392L15.1309 23.4337L15.6254 24.7514Z" fill="white"/>
<path d="M5.15625 7.26563C6.06094 7.26563 6.79688 6.5297 6.79688 5.62501C6.79688 5.43376 6.7575 5.25235 6.69703 5.08173L5.30859 6.27188C5.26453 6.30938 5.21063 6.32813 5.15625 6.32813C5.09625 6.32813 5.03625 6.30517 4.99031 6.2597L3.67031 4.9397C3.57375 5.14876 3.51562 5.37938 3.51562 5.62501C3.51562 6.5297 4.25156 7.26563 5.15625 7.26563Z" fill="white"/>
<path d="M11.4844 15V12.6562V11.9531H6.5625C5.39953 11.9531 4.45312 12.8995 4.45312 14.0625V15C4.45312 16.163 5.39953 17.1094 6.5625 17.1094H9.375C10.538 17.1094 11.4844 16.163 11.4844 15Z" fill="white"/>
<path d="M24.6094 17.3438V16.1719H24.0169C23.3344 16.1719 22.6509 16.0195 22.0327 15.7299L21.3281 16.0824V17.3438C21.3281 18.2485 22.0641 18.9844 22.9688 18.9844C23.8734 18.9844 24.6094 18.2485 24.6094 17.3438Z" fill="white"/>
<path d="M18.9844 22.0312V26.4844H20.3906V22.0312C20.3906 21.9019 20.4956 21.7969 20.625 21.7969C20.7544 21.7969 20.8594 21.9019 20.8594 22.0312V26.4844H25.0781V22.0312C25.0781 21.9019 25.1831 21.7969 25.3125 21.7969C25.4419 21.7969 25.5469 21.9019 25.5469 22.0312V26.4844H26.9531V22.0312C26.9531 20.6095 25.7967 19.4531 24.375 19.4531H24.1406V20.1305C24.1406 20.1933 24.1153 20.2537 24.0708 20.2973L23.5097 20.8486C23.6283 20.9625 23.7169 21.1097 23.7459 21.2831L24.1373 23.6334C24.1467 23.6902 24.135 23.7487 24.1045 23.797L23.2158 25.2033C23.1741 25.2698 23.1014 25.3106 23.0231 25.3125C23.0213 25.3125 23.0194 25.3125 23.0175 25.3125C22.9411 25.3125 22.8698 25.2755 22.8258 25.2127L21.8395 23.8064C21.8039 23.7562 21.7903 23.6939 21.8002 23.6334L22.1916 21.2831C22.2197 21.1144 22.3055 20.9723 22.4184 20.8594L21.8634 20.2945C21.8203 20.2505 21.7964 20.1914 21.7964 20.13V19.4531H21.5625C20.1408 19.4531 18.9844 20.6095 18.9844 22.0312Z" fill="white"/>
<path d="M23.6719 19.3237C23.4511 19.4025 23.2167 19.4531 22.9688 19.4531C22.7208 19.4531 22.4864 19.4025 22.2656 19.3237V20.0348L22.8642 20.6442C22.8994 20.639 22.9322 20.625 22.9688 20.625C22.9983 20.625 23.0245 20.6367 23.0531 20.64L23.6719 20.032V19.3237Z" fill="white"/>
<path d="M22.6533 21.3605L22.2773 23.6161L23.0063 24.6558L23.6597 23.6227L23.2828 21.3605C23.2566 21.2058 23.1244 21.0938 22.9678 21.0938C22.8112 21.0938 22.6791 21.2058 22.6533 21.3605Z" fill="white"/>
<path d="M25.5469 15.4688C25.5469 14.5641 24.8109 13.8281 23.9062 13.8281H22.0312C21.1266 13.8281 20.3906 14.5641 20.3906 15.4688C20.3906 15.9042 20.5608 16.3073 20.8594 16.6087V15.9375C20.8594 15.8489 20.9095 15.7678 20.9888 15.728L21.9263 15.2592C21.9923 15.2264 22.0702 15.2264 22.1358 15.2592C22.7166 15.5498 23.3672 15.7031 24.0169 15.7031H24.8438C24.9731 15.7031 25.0781 15.8081 25.0781 15.9375V16.6087C25.3767 16.3073 25.5469 15.9042 25.5469 15.4688Z" fill="white"/>
<path d="M27.6562 1.64062H19.2188C18.8311 1.64062 18.5156 1.95609 18.5156 2.34375V9.84375C18.5156 10.2314 18.8311 10.5469 19.2188 10.5469H24.8438C24.9731 10.5469 25.0781 10.6519 25.0781 10.7813V12.1683L27.0408 10.598C27.0825 10.5652 27.1341 10.5469 27.1875 10.5469H27.6562C28.0439 10.5469 28.3594 10.2314 28.3594 9.84375V2.34375C28.3594 1.95609 28.0439 1.64062 27.6562 1.64062ZM21.2611 8.22422C21.3516 8.31656 21.3497 8.46516 21.2573 8.55563C21.2119 8.60016 21.1523 8.62266 21.0933 8.62266C21.0323 8.62266 20.9719 8.59922 20.9259 8.55234C20.2786 7.89047 19.9219 7.01766 19.9219 6.09375C19.9219 5.16984 20.2786 4.29703 20.9264 3.63563C21.0173 3.54328 21.1655 3.54188 21.2578 3.63188C21.3502 3.72234 21.352 3.87094 21.2616 3.96328C20.7 4.53703 20.3906 5.29313 20.3906 6.09375C20.3906 6.89438 20.7 7.65047 21.2611 8.22422ZM23.4375 5.85938C24.0834 5.85938 24.6094 6.38531 24.6094 7.03125C24.6094 7.59703 24.2063 8.07047 23.6719 8.17922V8.90625C23.6719 9.03563 23.5669 9.14063 23.4375 9.14063C23.3081 9.14063 23.2031 9.03563 23.2031 8.90625V8.17922C22.6687 8.07047 22.2656 7.59703 22.2656 7.03125C22.2656 6.90188 22.3706 6.79688 22.5 6.79688C22.6294 6.79688 22.7344 6.90188 22.7344 7.03125C22.7344 7.41891 23.0498 7.73438 23.4375 7.73438C23.8252 7.73438 24.1406 7.41891 24.1406 7.03125C24.1406 6.64359 23.8252 6.32813 23.4375 6.32813C22.7916 6.32813 22.2656 5.80219 22.2656 5.15625C22.2656 4.59047 22.6687 4.11703 23.2031 4.00828V3.28125C23.2031 3.15188 23.3081 3.04688 23.4375 3.04688C23.5669 3.04688 23.6719 3.15188 23.6719 3.28125V4.00828C24.2063 4.11703 24.6094 4.59047 24.6094 5.15625C24.6094 5.28563 24.5044 5.39063 24.375 5.39063C24.2456 5.39063 24.1406 5.28563 24.1406 5.15625C24.1406 4.76859 23.8252 4.45313 23.4375 4.45313C23.0498 4.45313 22.7344 4.76859 22.7344 5.15625C22.7344 5.54391 23.0498 5.85938 23.4375 5.85938ZM25.9486 8.55188C25.9027 8.59875 25.8417 8.62219 25.7812 8.62219C25.7222 8.62219 25.6631 8.60016 25.6172 8.55516C25.5248 8.46469 25.523 8.31609 25.6134 8.22375C26.175 7.65047 26.4844 6.89438 26.4844 6.09375C26.4844 5.29313 26.175 4.53703 25.6139 3.96328C25.5234 3.87094 25.5253 3.72234 25.6177 3.63188C25.71 3.54141 25.8586 3.54328 25.9491 3.63563C26.5964 4.29703 26.9531 5.16984 26.9531 6.09375C26.9531 7.01766 26.5964 7.89047 25.9486 8.55188Z" fill="white"/>
</svg>
