<svg width="37" height="40" viewBox="0 0 37 40" fill="none" xmlns="http://www.w3.org/2000/svg">
<path d="M11.5906 5.79524C11.5906 2.59976 8.99079 0 5.79524 0C2.59968 0 0 2.59976 0 5.79524C0 8.99071 2.59976 11.5906 5.79532 11.5906C8.99087 11.5906 11.5906 8.99079 11.5906 5.79524H11.5906ZM1.11111 5.79524C1.11111 3.21238 3.21246 1.11111 5.79532 1.11111C8.37817 1.11111 10.4795 3.21238 10.4795 5.79524C10.4795 8.3781 8.37817 10.4794 5.79532 10.4794C3.21246 10.4794 1.11111 8.3781 1.11111 5.79524ZM5.79532 9.50222C5.48849 9.50222 5.23976 9.25349 5.23976 8.94667V8.52175C4.60651 8.39651 4.02944 8.07746 3.74825 7.56365C3.60095 7.29452 3.69968 6.95691 3.96881 6.8096C4.23786 6.6623 4.57556 6.76103 4.72286 7.03016C4.94706 7.43968 5.9854 7.61413 6.54421 7.33603C6.68413 7.26643 6.77579 7.14603 6.79579 7.00564C6.80516 6.93984 6.80444 6.81429 6.69436 6.71286C6.60262 6.62825 6.41119 6.50413 6.02056 6.3931C5.90841 6.36127 5.78309 6.33159 5.6504 6.30024C5.20516 6.19492 4.70048 6.07548 4.32151 5.78143C3.96198 5.50246 3.74746 5.12286 3.71746 4.71238C3.6881 4.31048 3.83524 3.91889 4.13198 3.60984C4.39571 3.33516 4.79135 3.14492 5.23976 3.05937V2.64365C5.23976 2.33683 5.48849 2.0881 5.79532 2.0881C6.10214 2.0881 6.35087 2.33683 6.35087 2.64365V3.0623C6.99556 3.18659 7.5 3.51365 7.74849 3.97484C7.89397 4.245 7.79302 4.5819 7.52286 4.72746C7.2527 4.87294 6.91579 4.7719 6.77032 4.5019C6.67635 4.32746 6.39016 4.18405 6.04119 4.13651C5.59286 4.07524 5.12714 4.17754 4.93349 4.37929C4.85778 4.45817 4.81944 4.5477 4.82556 4.63127C4.83421 4.74944 4.92659 4.8446 5.00262 4.90357C5.19103 5.04976 5.57095 5.1396 5.90619 5.21889C6.04492 5.25175 6.18833 5.28563 6.32437 5.32437C6.80698 5.46159 7.18476 5.65381 7.4473 5.89579C7.80056 6.22135 7.96405 6.68294 7.89571 7.1623C7.82444 7.66254 7.50421 8.09937 7.03905 8.33079C6.83333 8.4331 6.59865 8.50389 6.35079 8.54381V8.94659C6.35079 9.25341 6.10206 9.50214 5.79524 9.50214L5.79532 9.50222ZM20.4255 7.0081C20.2381 6.76516 20.2831 6.41627 20.526 6.22889L24.2634 3.34571C24.4108 3.23206 24.6055 3.19968 24.7814 3.2596L28.977 4.68532L33.1175 1.49111H32.9644C32.6576 1.49111 32.4089 1.24238 32.4089 0.935556C32.4089 0.62873 32.6576 0.38 32.9644 0.38H34.7473C34.9167 0.38 35.0768 0.457302 35.1822 0.589921C35.2876 0.72254 35.3267 0.895952 35.2885 1.06103L34.9033 2.72278C34.8437 2.97944 34.6152 3.15302 34.3626 3.15302C34.321 3.15302 34.2789 3.14833 34.2367 3.13849C33.9378 3.06921 33.7517 2.77079 33.8209 2.4719L33.8548 2.32571L29.4198 5.74714C29.2725 5.86087 29.0779 5.89325 28.9017 5.83325L24.7062 4.40754L21.2047 7.10873C21.1037 7.18667 20.9842 7.22444 20.8657 7.22444C20.6994 7.22444 20.5349 7.15 20.4255 7.0081ZM20.2667 12.2296H22.4676C22.7744 12.2296 23.0232 11.9809 23.0232 11.674V8.85659C23.0232 8.54976 22.7744 8.30103 22.4676 8.30103H20.2667C19.9598 8.30103 19.7111 8.54976 19.7111 8.85659V11.674C19.7111 11.9809 19.9598 12.2296 20.2667 12.2296ZM20.8222 9.41214H21.9121V11.1185H20.8222V9.41214ZM27.3813 11.674V6.41333C27.3813 6.10651 27.1325 5.85778 26.8257 5.85778H24.6248C24.3179 5.85778 24.0692 6.10651 24.0692 6.41333V11.674C24.0692 11.9809 24.3179 12.2296 24.6248 12.2296H26.8257C27.1325 12.2296 27.3813 11.9809 27.3813 11.674ZM26.2702 11.1185H25.1803V6.96889H26.2702V11.1185ZM28.9829 7.09032C28.676 7.09032 28.4273 7.33905 28.4273 7.64587V11.674C28.4273 11.9809 28.676 12.2296 28.9829 12.2296H31.1838C31.4906 12.2296 31.7394 11.9809 31.7394 11.674V7.64587C31.7394 7.33905 31.4906 7.09032 31.1838 7.09032H28.9829ZM30.6283 11.1185H29.5384V8.20143H30.6283V11.1185ZM35.5419 3.78881H33.3409C33.034 3.78881 32.7853 4.03754 32.7853 4.34437V11.674C32.7853 11.9809 33.034 12.2296 33.3409 12.2296H35.5419C35.8487 12.2296 36.0975 11.9809 36.0975 11.674V4.34444C36.0975 4.03762 35.8487 3.78889 35.5419 3.78889V3.78881ZM34.9863 11.1185H33.8964V4.9H34.9863V11.1185ZM12.7278 5.79532C12.7278 5.48849 12.9765 5.23976 13.2833 5.23976H16.6171L16.5083 5.15905C16.2618 4.97635 16.2102 4.62833 16.3929 4.38191C16.5756 4.13548 16.9236 4.08381 17.17 4.26651L18.6302 5.34905C18.7715 5.45381 18.8548 5.61937 18.8548 5.79532C18.8548 5.97127 18.7715 6.13683 18.6302 6.24159L17.17 7.32413C17.0706 7.39786 16.9545 7.43341 16.8395 7.43341C16.6695 7.43341 16.5018 7.35571 16.3929 7.20865C16.2102 6.96222 16.2618 6.61421 16.5083 6.43151L16.6171 6.35079H13.2833C12.9764 6.35079 12.7277 6.10206 12.7277 5.79524L12.7278 5.79532ZM23.4411 13.8291H19.7731C19.6844 13.6093 19.5439 13.4119 19.3535 13.2519C19.0133 12.966 18.5848 12.8507 18.1469 12.9272L16.9139 13.1428C16.7232 11.9957 15.724 11.1186 14.5237 11.1186C13.3235 11.1186 12.3242 11.9957 12.1335 13.1428L10.9005 12.9272C10.4625 12.8507 10.0341 12.966 9.69381 13.252C9.50341 13.412 9.36286 13.6093 9.27421 13.8291H5.60619C4.42444 13.8291 3.4631 14.7906 3.4631 15.9722V37.8569C3.4631 39.0386 4.42452 40 5.60619 40H23.441C24.6227 40 25.5841 39.0386 25.5841 37.8569V15.9722C25.5841 14.7906 24.6228 13.8291 23.441 13.8291H23.4411ZM19.862 16.5374H22.876V37.2917H6.17135V16.5373H9.1854C9.24857 16.7747 9.46444 16.9499 9.72167 16.9499H19.3256C19.5829 16.9499 19.7987 16.7748 19.8619 16.5373L19.862 16.5374ZM10.2772 14.3847C10.2772 14.266 10.3178 14.179 10.4086 14.1026C10.4995 14.0263 10.5921 14.0013 10.7091 14.0217L12.5606 14.3454C12.7221 14.3735 12.8879 14.3289 13.0136 14.2234C13.1392 14.1179 13.2117 13.9621 13.2117 13.7981V13.5416C13.2117 12.8182 13.8003 12.2297 14.5237 12.2297C15.247 12.2297 15.8356 12.8183 15.8356 13.5416V13.7981C15.8356 13.9621 15.9081 14.1179 16.0337 14.2234C16.1594 14.3289 16.3251 14.3734 16.4867 14.3454L18.3382 14.0217C18.4552 14.0012 18.5479 14.0263 18.6387 14.1026C18.7296 14.179 18.7702 14.266 18.7702 14.3847V15.8389H10.2773V14.3847H10.2772ZM24.4731 37.857C24.4731 38.426 24.0102 38.889 23.4411 38.889H5.60627C5.03722 38.889 4.57429 38.426 4.57429 37.857V15.9722C4.57429 15.4032 5.03722 14.9402 5.60627 14.9402H9.16611V15.4263H5.61579C5.30897 15.4263 5.06024 15.675 5.06024 15.9818V37.8473C5.06024 38.1541 5.30897 38.4029 5.61579 38.4029H23.4316C23.7384 38.4029 23.9871 38.1541 23.9871 37.8473V15.9817C23.9871 15.8344 23.9286 15.6931 23.8244 15.5889C23.7202 15.4848 23.579 15.4262 23.4316 15.4262H19.8813V14.9402H23.4411C24.0102 14.9402 24.4731 15.4031 24.4731 15.9721V37.857ZM12.1752 25.3867C12.3921 25.6037 12.3921 25.9555 12.1752 26.1724L9.90516 28.4425C9.80032 28.5473 9.65873 28.6052 9.51238 28.6052C9.48825 28.6052 9.46405 28.6036 9.43984 28.6004C9.26857 28.5779 9.11762 28.477 9.03127 28.3274L8.42579 27.2787C8.27238 27.0129 8.36341 26.6732 8.62913 26.5198C8.89484 26.3664 9.2346 26.4575 9.38802 26.7231L9.63151 27.1448L11.3896 25.3867C11.6065 25.1698 11.9583 25.1698 12.1752 25.3867ZM12.1752 31.6262C12.3921 31.8432 12.3921 32.1949 12.1752 32.4118L9.90516 34.6819C9.80032 34.7867 9.65873 34.8446 9.51238 34.8446C9.48825 34.8446 9.46405 34.843 9.43984 34.8398C9.26857 34.8173 9.11762 34.7164 9.03127 34.5668L8.42579 33.5181C8.27238 33.2524 8.36341 32.9126 8.62913 32.7592C8.89484 32.6059 9.2346 32.6968 9.38802 32.9625L9.63151 33.3843L11.3896 31.6262C11.6065 31.4093 11.9583 31.4093 12.1752 31.6262ZM13.7499 21.8052C13.7499 21.4983 13.9987 21.2496 14.3055 21.2496H20.1018C20.4086 21.2496 20.6574 21.4983 20.6574 21.8052C20.6574 22.112 20.4086 22.3607 20.1018 22.3607H14.3055C13.9987 22.3607 13.7499 22.112 13.7499 21.8052ZM13.7499 19.5453C13.7499 19.2385 13.9987 18.9898 14.3055 18.9898H20.1405C20.4473 18.9898 20.696 19.2385 20.696 19.5453C20.696 19.8521 20.4473 20.1009 20.1405 20.1009H14.3055C13.9987 20.1009 13.7499 19.8521 13.7499 19.5453ZM13.7499 28.0445C13.7499 27.7377 13.9987 27.489 14.3055 27.489H20.1018C20.4086 27.489 20.6574 27.7377 20.6574 28.0445C20.6574 28.3513 20.4086 28.6001 20.1018 28.6001H14.3055C13.9987 28.6001 13.7499 28.3513 13.7499 28.0445ZM13.7499 25.7847C13.7499 25.4779 13.9987 25.2291 14.3055 25.2291H20.1018C20.4086 25.2291 20.6574 25.4779 20.6574 25.7847C20.6574 26.0915 20.4086 26.3402 20.1018 26.3402H14.3055C13.9987 26.3402 13.7499 26.0915 13.7499 25.7847ZM13.7499 32.024C13.7499 31.7172 13.9987 31.4685 14.3055 31.4685H20.1018C20.4086 31.4685 20.6574 31.7172 20.6574 32.024C20.6574 32.3309 20.4086 32.5796 20.1018 32.5796H14.3055C13.9987 32.5796 13.7499 32.3309 13.7499 32.024ZM13.7499 34.2839C13.7499 33.9771 13.9987 33.7283 14.3055 33.7283H20.1018C20.4086 33.7283 20.6574 33.9771 20.6574 34.2839C20.6574 34.5907 20.4086 34.8394 20.1018 34.8394H14.3055C13.9987 34.8394 13.7499 34.5907 13.7499 34.2839ZM9.63143 20.9055L11.3895 19.1474C11.6064 18.9305 11.9583 18.9305 12.1752 19.1474C12.3921 19.3644 12.3921 19.7161 12.1752 19.933L9.90508 22.2031C9.80024 22.3079 9.65865 22.3658 9.5123 22.3658C9.48817 22.3658 9.46397 22.3642 9.43976 22.361C9.26849 22.3385 9.11754 22.2376 9.03119 22.088L8.42571 21.0394C8.2723 20.7737 8.36333 20.4339 8.62905 20.2805C8.89476 20.1271 9.23452 20.2181 9.38794 20.4838L9.63143 20.9055ZM31.8342 14.9918C31.3183 14.476 30.6348 14.1918 29.9094 14.1918H29.9093C29.1838 14.1918 28.5002 14.476 27.9844 14.9918C27.4686 15.5077 27.1845 16.1913 27.1845 16.9167V33.7513C27.1845 33.8231 27.1985 33.8942 27.2256 33.9607L29.3949 39.2913C29.4801 39.5006 29.6835 39.6374 29.9094 39.6374C30.1354 39.6374 30.3388 39.5005 30.424 39.2913L32.5933 33.9607C32.6203 33.8942 32.6343 33.8231 32.6343 33.7513V16.9167C32.6343 16.1913 32.3501 15.5077 31.8342 14.9918ZM28.5659 34.3068H31.2528L30.4622 36.2494H29.3564L28.5659 34.3068ZM28.2956 33.1957V20.0583H31.5231V33.1958H28.2956V33.1957ZM31.5231 18.9471H28.2956V18.2737H31.5231V18.9471ZM28.7701 15.7774C29.076 15.4714 29.4807 15.3029 29.9094 15.3029C30.338 15.3029 30.7426 15.4713 31.0486 15.7774C31.3545 16.0834 31.5231 16.488 31.5231 16.9167V17.1625H28.2956V16.9167C28.2956 16.4879 28.464 16.0833 28.7701 15.7774ZM29.8087 37.3604H30.0102L29.9094 37.6079L29.8087 37.3604Z" fill="#F84923"/>
</svg>
