<svg width="30" height="30" viewBox="0 0 30 30" fill="none" xmlns="http://www.w3.org/2000/svg">
<g clip-path="url(#clip0_1518_4167)">
<path d="M14.8085 3.20633C14.6317 3.20633 14.4883 3.06295 14.4883 2.88613V0.324588C14.4883 0.147777 14.6317 0.00439453 14.8085 0.00439453C14.9853 0.00439453 15.1287 0.147777 15.1287 0.324588V2.88613C15.1287 3.06295 14.9853 3.20633 14.8085 3.20633Z" fill="#3843C1"/>
<path d="M11.2324 3.99397C11.1068 3.99397 10.9875 3.91949 10.9364 3.79622L10.4463 2.61291C10.3786 2.44955 10.4563 2.26224 10.6196 2.19455C10.7831 2.12705 10.9703 2.20447 11.038 2.36784L11.5281 3.55114C11.6183 3.756 11.4545 3.9982 11.2324 3.99397Z" fill="#3843C1"/>
<path d="M6.25936 9.17533C6.2185 9.17533 6.177 9.16745 6.13692 9.15086L4.95361 8.66071C4.79025 8.59302 4.71263 8.40577 4.78032 8.24235C4.84801 8.07899 5.03532 8.00156 5.19869 8.06906L6.38199 8.55921C6.70359 8.68056 6.59607 9.18724 6.25936 9.17533Z" fill="#3843C1"/>
<path d="M5.22185 16.846C4.885 16.858 4.77774 16.3512 5.09915 16.2299L6.28246 15.7397C6.44595 15.6722 6.63313 15.7497 6.70082 15.913C6.76851 16.0764 6.69096 16.2637 6.52753 16.3314C6.52753 16.3314 5.64015 16.6991 5.34423 16.8215C5.3042 16.8382 5.2627 16.846 5.22185 16.846Z" fill="#3843C1"/>
<path d="M24.9234 16.491C24.8826 16.491 24.8411 16.4832 24.801 16.4666L23.6177 15.9764C23.4543 15.9087 23.3767 15.7215 23.4444 15.558C23.5121 15.3947 23.6994 15.3172 23.8627 15.3848L25.0461 15.8749C25.3677 15.9963 25.2601 16.503 24.9234 16.491Z" fill="#3843C1"/>
<path d="M23.5929 8.82037C23.2561 8.83235 23.1488 8.32555 23.4702 8.20426L24.6535 7.71411C24.8169 7.64654 25.0042 7.72403 25.0719 7.88739C25.1396 8.05076 25.0621 8.23807 24.8986 8.30576L23.7153 8.79591C23.6752 8.8125 23.6338 8.82037 23.5929 8.82037Z" fill="#3843C1"/>
<path d="M18.4128 3.84702C18.1906 3.85119 18.0269 3.60906 18.117 3.4042L18.6072 2.22089C18.6749 2.05753 18.8622 1.98004 19.0256 2.0476C19.1889 2.11529 19.2665 2.30254 19.1988 2.46597L18.7087 3.64927C18.6577 3.77255 18.5384 3.84702 18.4128 3.84702Z" fill="#3843C1"/>
<path d="M8.22917 6.09002C8.1472 6.09002 8.06529 6.05877 8.00273 5.99627L6.19146 4.185C6.06639 4.05993 6.06639 3.85718 6.19146 3.73218C6.31652 3.60718 6.51921 3.60718 6.64427 3.73218L8.45554 5.54345C8.65976 5.73371 8.50312 6.09975 8.22917 6.09002Z" fill="#3843C1"/>
<path d="M5.61807 12.78H3.05652C2.87971 12.78 2.73633 12.6367 2.73633 12.4598C2.73633 12.283 2.87971 12.1396 3.05652 12.1396H5.61807C5.79488 12.1396 5.93826 12.283 5.93826 12.4598C5.93826 12.6367 5.79488 12.78 5.61807 12.78Z" fill="#3843C1"/>
<path d="M26.9423 12.3958H24.3807C24.2039 12.3958 24.0605 12.2524 24.0605 12.0756C24.0605 11.8988 24.2039 11.7554 24.3807 11.7554H26.9423C27.1191 11.7554 27.2625 11.8988 27.2625 12.0756C27.2625 12.2524 27.1191 12.3958 26.9423 12.3958Z" fill="#3843C1"/>
<path d="M21.4973 5.81836C21.2233 5.82809 21.0668 5.46198 21.2708 5.27172L23.0821 3.46045C23.2072 3.33545 23.4099 3.33545 23.5349 3.46045C23.66 3.58552 23.66 3.78827 23.5349 3.91327L21.7237 5.72454C21.6612 5.7871 21.5793 5.81836 21.4973 5.81836Z" fill="#3843C1"/>
<path d="M18.6623 19.7151C18.8922 19.7151 19.0786 19.5287 19.0786 19.2988C19.0786 19.0689 18.8922 18.8826 18.6623 18.8826C18.4325 18.8826 18.2461 19.0689 18.2461 19.2988C18.2461 19.5287 18.4325 19.7151 18.6623 19.7151Z" fill="#3843C1"/>
<path d="M15.0006 4.55493C10.8004 4.55493 7.25195 8.067 7.25195 12.2241C7.25195 14.3854 8.28823 16.5023 10.0949 18.032C10.8828 18.6991 11.3347 19.6766 11.3347 20.7138V21.0061C11.3347 21.0074 11.3339 21.0085 11.3328 21.009C10.8493 21.2133 10.509 21.6921 10.509 22.2491C10.509 22.6585 10.6933 23.0252 10.9827 23.2722C10.9841 23.2735 10.9841 23.2757 10.9827 23.277C10.7041 23.5147 10.523 23.8634 10.5098 24.2542C10.4839 25.0208 11.1255 25.6456 11.8926 25.6456H12.3118C12.3134 25.6456 12.3147 25.6468 12.3149 25.6483C12.5192 26.899 13.6417 27.8389 15.0006 27.8389C16.3595 27.8389 17.4819 26.899 17.6862 25.6483C17.6865 25.6468 17.6878 25.6456 17.6894 25.6456H18.1086C18.8756 25.6456 19.5172 25.0208 19.4913 24.2542C19.4782 23.8634 19.297 23.5147 19.0185 23.277C19.017 23.2757 19.017 23.2735 19.0185 23.2722C19.297 23.0344 19.4782 22.6858 19.4913 22.295C19.5172 21.5284 18.8756 20.9036 18.1086 20.9036H16.6048C16.603 20.9036 16.6015 20.9021 16.6015 20.9003V16.1095C16.6015 16.1082 16.6023 16.1071 16.6035 16.1065C18.0522 15.486 19.0693 14.0516 19.0693 12.3848C19.0693 10.1517 17.2441 8.33501 15.0006 8.33501C12.757 8.33501 10.9319 10.1518 10.9319 12.3848C10.9319 14.0516 11.9489 15.486 13.3976 16.1065C13.3988 16.1071 13.3996 16.1082 13.3996 16.1095V20.9003C13.3996 20.9021 13.3981 20.9036 13.3963 20.9036H11.9783C11.9765 20.9036 11.9751 20.9021 11.9751 20.9003V20.7139C11.9751 19.4879 11.4406 18.3323 10.5088 17.5433C8.846 16.1355 7.89234 14.1967 7.89234 12.2241C7.89234 8.41409 11.1476 5.19532 15.0006 5.19532C18.8537 5.19532 22.1089 8.41409 22.1089 12.2241C22.1089 14.191 21.1608 16.1241 19.5071 17.5309C19.3779 17.6407 19.3392 17.8325 19.4368 17.9712C19.5466 18.1274 19.7637 18.1527 19.9062 18.0321C21.713 16.5024 22.7493 14.3854 22.7493 12.2241C22.7493 8.067 19.2009 4.55493 15.0006 4.55493ZM18.1465 25.0053H11.8782C11.5095 25.0053 11.1855 24.7324 11.1523 24.3652C11.1146 23.9472 11.4442 23.5948 11.8546 23.5948H18.123C18.4916 23.5948 18.8157 23.8678 18.8488 24.2349C18.8866 24.653 18.557 25.0053 18.1465 25.0053ZM13.0147 12.2916C13.1374 12.1755 13.333 12.1844 13.4592 12.2966L14.4233 13.1538C14.4246 13.1549 14.4266 13.1549 14.4278 13.1536L16.5356 10.9478C16.6643 10.8131 16.8825 10.8153 17.0082 10.9584C17.1197 11.0851 17.1039 11.2802 16.9872 11.4023L14.6752 13.8216C14.5559 13.9464 14.3595 13.9539 14.231 13.8396L13.0213 12.7642C12.8821 12.6404 12.8763 12.4224 13.0147 12.2916ZM14.0401 16.3236C14.0401 16.3215 14.042 16.32 14.044 16.3205C14.351 16.3945 14.6712 16.4346 15.0006 16.4346C15.3301 16.4346 15.6502 16.3944 15.9572 16.3205C15.9593 16.32 15.9612 16.3215 15.9612 16.3236V20.9003C15.9612 20.9021 15.9597 20.9036 15.9579 20.9036H14.0433C14.0415 20.9036 14.0401 20.9021 14.0401 20.9003V16.3236Z" fill="#3843C1"/>
<path d="M27.5008 22.8115C27.512 22.7601 27.5368 22.713 27.567 22.67C27.7118 22.4639 27.7912 22.2086 27.7733 21.9336C27.7375 21.382 27.302 20.9241 26.7526 20.8642C26.058 20.7886 25.4704 21.3306 25.4704 22.0099C25.4704 22.2356 25.536 22.4456 25.6482 22.6231C25.8094 22.8772 25.6605 23.2807 25.3321 23.2736H23.7585C23.4756 23.2736 23.2462 23.503 23.2462 23.7859V25.3103C23.2391 25.6386 23.6424 25.7877 23.8965 25.6267C24.1077 25.4931 24.3646 25.4256 24.6393 25.4559C25.1695 25.5142 25.5979 25.9421 25.6555 26.4723C25.731 27.1667 25.189 27.7541 24.5099 27.7541C24.264 27.7541 24.0366 27.6766 23.8496 27.5451C23.6055 27.3554 23.2369 27.55 23.2463 27.8475V29.4831C23.2463 29.7661 23.4757 29.9955 23.7586 29.9955H29.4878C29.7707 29.9955 30.0001 29.7661 30.0001 29.4831V23.7859C30.0001 23.503 29.7707 23.2736 29.4878 23.2736H27.8692C27.633 23.2735 27.4476 23.0568 27.5008 22.8115Z" fill="#3843C1"/>
<path d="M2.49924 22.8115C2.48809 22.7601 2.46325 22.713 2.43308 22.67C2.28829 22.4639 2.20889 22.2086 2.22675 21.9336C2.26255 21.382 2.69801 20.9241 3.24746 20.8642C3.94209 20.7886 4.52965 21.3306 4.52965 22.0099C4.52965 22.2356 4.46407 22.4456 4.35181 22.6231C4.19063 22.8772 4.33958 23.2807 4.66797 23.2736H6.11345C6.46714 23.2736 6.75384 23.5603 6.75384 23.914V25.3103C6.76095 25.6386 6.35769 25.7877 6.10359 25.6267C5.89239 25.4931 5.63547 25.4256 5.36074 25.4559C4.83056 25.5142 4.40215 25.9421 4.34451 26.4723C4.26907 27.1667 4.81103 27.7541 5.49016 27.7541C5.73607 27.7541 5.96347 27.6766 6.15047 27.5451C6.39458 27.3554 6.76319 27.55 6.75377 27.8475V29.3551C6.75377 29.7088 6.46707 29.9955 6.11339 29.9955H0.640387C0.286701 29.9955 0 29.7088 0 29.3551V23.914C0 23.5603 0.286701 23.2736 0.640387 23.2736H2.13095C2.36706 23.2735 2.55252 23.0568 2.49924 22.8115Z" fill="#3843C1"/>
</g>
<defs>
<clipPath id="clip0_1518_4167">
<rect width="30" height="30" fill="white"/>
</clipPath>
</defs>
</svg>
