<svg width="30" height="30" viewBox="0 0 30 30" fill="none" xmlns="http://www.w3.org/2000/svg">
<g clip-path="url(#clip0_1518_4237)">
<path d="M23.7326 18.75H18.1738C17.8282 18.75 17.5488 18.47 17.5488 18.125V8.125C17.5488 8.05 17.562 7.97563 17.5882 7.90563L19.1038 3.86375C19.4101 3.04813 20.2007 2.5 21.0726 2.5C22.2313 2.5 23.1738 3.4425 23.1738 4.60187V7.5H25.607C26.5545 7.5 27.3788 8.1725 27.5238 9.06437C27.6132 9.61313 27.4595 10.1694 27.1026 10.5887C26.9807 10.7325 26.8382 10.8556 26.6832 10.955C26.8901 11.3237 26.9682 11.7563 26.8988 12.185C26.8132 12.71 26.4926 13.1594 26.0495 13.44C26.2638 13.8125 26.3451 14.2506 26.2738 14.685C26.1882 15.21 25.8676 15.6594 25.4245 15.94C25.6388 16.3125 25.7201 16.7506 25.6488 17.185C25.5038 18.0775 24.6795 18.75 23.7326 18.75ZM18.7988 17.5H23.7326C24.0682 17.5 24.3682 17.2737 24.4151 16.9844C24.4463 16.795 24.397 16.6125 24.2757 16.4706C24.1563 16.33 23.9826 16.25 23.7988 16.25C23.4532 16.25 23.1738 15.97 23.1738 15.625C23.1738 15.28 23.4532 15 23.7988 15H24.3576C24.6932 15 24.9932 14.7737 25.0401 14.4844C25.0713 14.295 25.022 14.1125 24.9007 13.9706C24.7813 13.83 24.6076 13.75 24.4238 13.75C24.0782 13.75 23.7988 13.47 23.7988 13.125C23.7988 12.78 24.0782 12.5 24.4238 12.5H24.9826C25.3182 12.5 25.6182 12.2737 25.6651 11.9844C25.6963 11.795 25.647 11.6125 25.5257 11.4706C25.4063 11.33 25.2326 11.25 25.0488 11.25C24.7032 11.25 24.4238 10.97 24.4238 10.625C24.4238 10.28 24.7032 10 25.0488 10H25.6738C25.8576 10 26.0313 9.92 26.1507 9.77938C26.2713 9.6375 26.3207 9.455 26.2901 9.26562C26.2426 8.97625 25.9432 8.75 25.607 8.75H22.5488C22.2032 8.75 21.9238 8.47 21.9238 8.125V4.60187C21.9238 4.13187 21.542 3.75 21.0726 3.75C20.7195 3.75 20.3988 3.97187 20.2751 4.3025L18.7995 8.23812V17.5H18.7988Z" fill="#3843C1"/>
<path d="M18.1738 18.75H15.6738C15.3282 18.75 15.0488 18.47 15.0488 18.125V8.125C15.0488 7.78 15.3282 7.5 15.6738 7.5H18.1738C18.5195 7.5 18.7988 7.78 18.7988 8.125V18.125C18.7988 18.47 18.5195 18.75 18.1738 18.75ZM16.2988 17.5H17.5488V8.75H16.2988V17.5Z" fill="#3843C1"/>
<path d="M25.0488 11.25H22.5488C22.2032 11.25 21.9238 10.97 21.9238 10.625C21.9238 10.28 22.2032 10 22.5488 10H25.0488C25.3945 10 25.6738 10.28 25.6738 10.625C25.6738 10.97 25.3945 11.25 25.0488 11.25Z" fill="#3843C1"/>
<path d="M24.4238 13.75H22.5488C22.2032 13.75 21.9238 13.47 21.9238 13.125C21.9238 12.78 22.2032 12.5 22.5488 12.5H24.4238C24.7695 12.5 25.0488 12.78 25.0488 13.125C25.0488 13.47 24.7695 13.75 24.4238 13.75Z" fill="#3843C1"/>
<path d="M23.7988 16.25H22.5488C22.2032 16.25 21.9238 15.97 21.9238 15.625C21.9238 15.28 22.2032 15 22.5488 15H23.7988C24.1445 15 24.4238 15.28 24.4238 15.625C24.4238 15.97 24.1445 16.25 23.7988 16.25Z" fill="#3843C1"/>
<path d="M29.4238 21.25H13.1738C12.8282 21.25 12.5488 20.97 12.5488 20.625V0.625C12.5488 0.28 12.8282 0 13.1738 0H29.4238C29.7695 0 30.0488 0.28 30.0488 0.625V20.625C30.0488 20.97 29.7695 21.25 29.4238 21.25ZM13.7988 20H28.7988V1.25H13.7988V20Z" fill="#3843C1"/>
<path d="M6.20117 22.5C5.44555 22.5 4.72367 22.3363 4.05367 22.0125C2.29617 21.1825 1.20117 19.4525 1.20117 17.5V16.25C1.20117 15.9681 1.22117 15.7256 1.26242 15.5087C1.6018 13.0931 3.72742 11.25 6.20117 11.25C6.48117 11.25 6.72305 11.27 6.9418 11.3106C7.98492 11.4525 8.9618 11.9388 9.73742 12.7144C10.5124 13.49 10.9999 14.4669 11.1462 15.5406C11.1818 15.7256 11.2018 15.9681 11.2018 16.25V17.5C11.2018 19.4525 10.1068 21.1825 8.34367 22.015C7.67867 22.3362 6.9568 22.5 6.20117 22.5ZM6.20117 12.5C4.3468 12.5 2.75305 13.8806 2.49492 15.7125C2.46367 15.8806 2.45117 16.0469 2.45117 16.25V17.5C2.45117 18.9637 3.2718 20.2606 4.59305 20.885C5.59992 21.3713 6.80805 21.3687 7.8043 20.8875C9.13055 20.2612 9.9518 18.9637 9.9518 17.5006V16.2506C9.9518 16.0475 9.93867 15.8813 9.91242 15.7419C9.79805 14.9094 9.43305 14.1794 8.85367 13.5987C8.27305 13.0187 7.54305 12.6544 6.74242 12.545C6.56992 12.5131 6.40305 12.5 6.20117 12.5Z" fill="#3843C1"/>
<path d="M3.07671 16.25H1.87671C1.69546 16.25 1.52421 16.1719 1.40484 16.035C1.28671 15.8988 1.23296 15.7169 1.25796 15.5381C1.60234 13.0931 3.72796 11.25 6.20171 11.25H6.82671C7.17234 11.25 7.45171 11.53 7.45171 11.875V11.925C7.43796 13.0831 6.98171 14.1613 6.16671 14.9688C5.34984 15.7938 4.25109 16.25 3.07671 16.25ZM2.66984 15H3.07671C3.91484 15 4.69859 14.675 5.28296 14.085C5.72609 13.6456 6.01984 13.0975 6.13984 12.5006C4.56109 12.5262 3.18046 13.5531 2.66984 15Z" fill="#3843C1"/>
<path d="M10.5262 16.25C10.5237 16.25 10.5212 16.25 10.5181 16.25C9.36746 16.2363 8.28933 15.7794 7.48246 14.965C6.67121 14.1613 6.21558 13.0825 6.20121 11.9325C6.19933 11.7506 6.27621 11.5769 6.41246 11.4563C6.54871 11.3363 6.73121 11.28 6.91058 11.3056C7.98496 11.4519 8.96183 11.9388 9.73683 12.7138C10.5118 13.4894 10.9993 14.4663 11.1456 15.54C11.17 15.7206 11.115 15.9025 10.9943 16.0381C10.8756 16.1731 10.705 16.25 10.5262 16.25ZM7.57621 12.76C7.72183 13.2556 7.99058 13.7094 8.36621 14.0813C8.74121 14.4588 9.19496 14.7288 9.69121 14.8744C9.50683 14.4019 9.22433 13.9694 8.85308 13.5981C8.48183 13.2269 8.04933 12.9444 7.57621 12.76Z" fill="#3843C1"/>
<path d="M4.95117 18.75C4.60555 18.75 4.32617 18.47 4.32617 18.125V17.5C4.32617 17.155 4.60555 16.875 4.95117 16.875C5.2968 16.875 5.57617 17.155 5.57617 17.5V18.125C5.57617 18.47 5.2968 18.75 4.95117 18.75Z" fill="#3843C1"/>
<path d="M7.45117 18.75C7.10555 18.75 6.82617 18.47 6.82617 18.125V17.5C6.82617 17.155 7.10555 16.875 7.45117 16.875C7.7968 16.875 8.07617 17.155 8.07617 17.5V18.125C8.07617 18.47 7.7968 18.75 7.45117 18.75Z" fill="#3843C1"/>
<path d="M4.32984 24.4624C4.03484 24.4624 3.77422 24.2543 3.71734 23.9562C3.70234 23.8824 3.69922 23.8237 3.69922 23.7499V23.6499C3.69922 23.3049 3.97859 23.0249 4.32422 23.0249C4.66984 23.0249 4.94922 23.3049 4.94922 23.6499V23.7112C4.94922 23.733 4.95047 23.7549 4.95234 23.7768C4.98484 24.1087 4.75109 24.408 4.41984 24.4562C4.38984 24.4605 4.35984 24.4624 4.32984 24.4624Z" fill="#3843C1"/>
<path d="M6.19297 26.2501C6.11609 26.2501 6.03984 26.2439 5.96359 26.237C5.91484 26.2345 5.86359 26.2282 5.81172 26.2207C5.78609 26.217 5.73359 26.2076 5.69109 26.1982C5.67359 26.1957 5.65609 26.192 5.63984 26.1876C5.56547 26.1689 5.49422 26.1495 5.42234 26.1226C5.42172 26.1232 5.38297 26.1095 5.33922 26.0926C4.37359 25.7264 3.74734 24.857 3.70609 23.8645C3.70047 23.8157 3.69922 23.7326 3.69922 23.6501V21.4501C3.69922 21.2351 3.80984 21.0351 3.99234 20.9207C4.17547 20.807 4.40172 20.7939 4.59672 20.8876C5.59297 21.3695 6.80609 21.3695 7.80234 20.8876C7.99734 20.7939 8.22422 20.8064 8.40672 20.9207C8.58922 21.0351 8.69984 21.2351 8.69984 21.4501V23.7501C8.69984 23.9232 8.68422 24.0882 8.65047 24.2545C8.61422 24.4251 8.56234 24.5851 8.49547 24.7364C8.44859 24.8614 8.36922 25.0114 8.27297 25.1532C8.18297 25.2832 8.08672 25.3976 7.96797 25.517C7.85047 25.6345 7.73172 25.7345 7.60484 25.8214C7.42234 25.9426 7.24922 26.0301 7.07984 26.087C7.00672 26.1207 6.87734 26.1601 6.73422 26.1889C6.60922 26.2257 6.41609 26.2501 6.19297 26.2501ZM5.95859 24.9789L5.99547 24.9839C6.01672 24.9839 6.04859 24.9889 6.06984 24.9907C6.21297 25.0051 6.35609 24.9982 6.43984 24.9739C6.54797 24.9501 6.59234 24.937 6.63359 24.9195C6.74672 24.8795 6.82109 24.8407 6.90359 24.7857C6.96359 24.7445 7.02297 24.6926 7.08297 24.6326C7.14234 24.5732 7.19484 24.5132 7.24234 24.4445C7.28234 24.3851 7.31609 24.3214 7.34109 24.2564C7.38422 24.157 7.40922 24.0795 7.42609 24.002C7.44172 23.9232 7.44984 23.8382 7.44984 23.7495V22.342C6.64297 22.5514 5.75672 22.5514 4.94984 22.342V23.6495C4.94984 23.692 4.94859 23.7339 4.95297 23.7764C4.97609 24.3032 5.28672 24.7345 5.74734 24.9089C5.75047 24.9101 5.80234 24.9301 5.80547 24.9314C5.82234 24.9364 5.84859 24.9464 5.86547 24.9526C5.89172 24.9626 5.91797 24.9676 5.94359 24.9745C5.94797 24.9757 5.95297 24.9776 5.95859 24.9789Z" fill="#3843C1"/>
<path d="M11.8242 30H0.574219C0.228594 30 -0.0507812 29.72 -0.0507812 29.375V25C-0.0507812 23.6212 1.07047 22.5 2.44922 22.5H4.32422C4.66984 22.5 4.94922 22.78 4.94922 23.125V23.65C4.94922 23.6925 4.94797 23.7344 4.95234 23.7769C4.97547 24.3037 5.28609 24.735 5.74672 24.9094C5.74984 24.9106 5.80172 24.9306 5.80484 24.9319C5.82172 24.9369 5.84797 24.9469 5.86484 24.9531C5.89109 24.9631 5.91734 24.9681 5.94297 24.975C5.94984 24.9762 5.95609 24.9781 5.96234 24.98L5.98609 24.9831C6.02797 24.9831 6.09109 24.9919 6.13172 25.0006H6.19359C6.29734 25.0006 6.38047 24.9919 6.44047 24.9744C6.54859 24.9506 6.59297 24.9375 6.63422 24.92C6.74734 24.88 6.82172 24.8413 6.90422 24.7863C6.96984 24.7406 7.02672 24.6937 7.06797 24.6494C7.14422 24.5762 7.19109 24.5194 7.24297 24.445C7.28297 24.3856 7.31672 24.3219 7.34172 24.2569C7.38484 24.1575 7.40984 24.08 7.42672 24.0025C7.44234 23.9237 7.45047 23.8388 7.45047 23.75V23.125C7.45047 22.78 7.72984 22.5 8.07547 22.5H9.95047C11.3292 22.5 12.4505 23.6212 12.4505 25V29.375C12.4492 29.72 12.1698 30 11.8242 30ZM1.19922 28.75H11.1992V25C11.1992 24.3106 10.6386 23.75 9.94922 23.75H8.69922C8.69922 23.9231 8.68359 24.0881 8.64984 24.2544C8.61359 24.425 8.56172 24.585 8.49484 24.7362C8.44797 24.8612 8.36859 25.0112 8.27234 25.1531C8.16609 25.3062 8.06172 25.4294 7.94984 25.5331C7.87797 25.6125 7.75422 25.7175 7.60359 25.8212C7.42109 25.9425 7.24797 26.03 7.07859 26.0869C7.00547 26.1206 6.87609 26.16 6.73297 26.1888C6.60922 26.2256 6.41609 26.25 6.19297 26.25H6.10547C6.05234 26.25 5.99609 26.245 5.93547 26.235C5.88734 26.2319 5.83984 26.225 5.79422 26.2181C5.76922 26.2144 5.72297 26.2056 5.68422 26.1969C5.66922 26.1944 5.65422 26.1912 5.63984 26.1869C5.56547 26.1681 5.49422 26.1487 5.42234 26.1219C5.42172 26.1225 5.38297 26.1088 5.33922 26.0919C4.37359 25.7256 3.74734 24.8562 3.70609 23.8637C3.70234 23.8356 3.70109 23.795 3.69984 23.75H2.44922C1.75984 23.75 1.19922 24.3106 1.19922 25V28.75ZM5.79172 26.2063H5.79297C5.79234 26.2063 5.79234 26.2063 5.79172 26.2063Z" fill="#3843C1"/>
<path d="M6.25 10C5.1675 10 4.13063 9.60063 3.33 8.87563C2.4075 8.05813 1.875 6.87187 1.875 5.625C1.875 4.77063 2.12063 3.94688 2.58438 3.24313C3.385 1.9975 4.75688 1.25 6.25 1.25C8.66187 1.25 10.625 3.2125 10.625 5.625C10.625 8.0375 8.66187 10 6.25 10ZM6.25 2.5C5.18438 2.5 4.20562 3.03313 3.63187 3.92563C3.29875 4.43 3.125 5.01562 3.125 5.625C3.125 6.51375 3.50375 7.35938 4.16438 7.94438C4.73938 8.46563 5.47875 8.75 6.25 8.75C7.97312 8.75 9.375 7.34812 9.375 5.625C9.375 3.90188 7.97312 2.5 6.25 2.5Z" fill="#3843C1"/>
<path d="M6.25 7.5C5.21625 7.5 4.375 6.65875 4.375 5.625C4.375 5.28 4.65438 5 5 5C5.34562 5 5.625 5.28 5.625 5.625C5.625 5.96938 5.905 6.25 6.25 6.25C6.595 6.25 6.875 5.96938 6.875 5.625C6.875 5.28 7.15438 5 7.5 5C7.84562 5 8.125 5.28 8.125 5.625C8.125 6.65875 7.28375 7.5 6.25 7.5Z" fill="#3843C1"/>
<path d="M19.4308 30C19.3271 30 19.2227 29.9738 19.129 29.9219L17.4996 29.0219L15.8708 29.9219C15.6627 30.0375 15.4046 30.0244 15.2083 29.8856C15.0127 29.7481 14.9127 29.51 14.9515 29.2738L15.2696 27.3237L13.9277 25.9481C13.764 25.7806 13.7077 25.5356 13.7827 25.3131C13.8577 25.0906 14.0496 24.9288 14.2808 24.8938L16.1108 24.6144L16.9346 22.8588C17.0371 22.64 17.2571 22.5 17.4996 22.5C17.7421 22.5 17.9621 22.64 18.0652 22.8594L18.889 24.615L20.719 24.8944C20.9502 24.93 21.1427 25.0919 21.2171 25.3137C21.2915 25.5356 21.2352 25.7813 21.0721 25.9488L19.7302 27.3244L20.0483 29.2744C20.0871 29.5106 19.9865 29.7481 19.7915 29.8863C19.6833 29.9613 19.5571 30 19.4308 30ZM17.4996 27.6825C17.604 27.6825 17.7077 27.7087 17.8015 27.7606L18.6065 28.2056L18.4446 27.2144C18.4127 27.0187 18.4758 26.8194 18.614 26.6775L19.3271 25.9469L18.3702 25.8006C18.1646 25.7687 17.9877 25.6369 17.899 25.4481L17.4996 24.5963L17.0996 25.4481C17.0108 25.6369 16.834 25.7687 16.6283 25.8006L15.6715 25.9469L16.3846 26.6775C16.5233 26.8194 16.5858 27.0187 16.554 27.2144L16.3921 28.2056L17.1971 27.7606C17.2915 27.7081 17.3952 27.6825 17.4996 27.6825Z" fill="#3843C1"/>
<path d="M28.1808 30C28.0771 30 27.9727 29.9738 27.879 29.9219L26.2496 29.0219L24.6208 29.9219C24.4127 30.0375 24.1546 30.0244 23.9583 29.8856C23.7627 29.7481 23.6627 29.51 23.7015 29.2738L24.0196 27.3237L22.6777 25.9481C22.514 25.7806 22.4577 25.5356 22.5327 25.3131C22.6077 25.0906 22.7996 24.9288 23.0308 24.8938L24.8608 24.6144L25.6846 22.8588C25.7871 22.64 26.0071 22.5 26.2496 22.5C26.4921 22.5 26.7121 22.64 26.8152 22.8594L27.639 24.615L29.469 24.8944C29.7002 24.93 29.8927 25.0919 29.9671 25.3137C30.0415 25.5356 29.9852 25.7813 29.8221 25.9488L28.4802 27.3244L28.7983 29.2744C28.8371 29.5106 28.7365 29.7481 28.5415 29.8863C28.4333 29.9613 28.3071 30 28.1808 30ZM26.2496 27.6825C26.354 27.6825 26.4577 27.7087 26.5515 27.7606L27.3565 28.2056L27.1946 27.2144C27.1627 27.0187 27.2258 26.8194 27.364 26.6775L28.0771 25.9469L27.1202 25.8006C26.9146 25.7687 26.7377 25.6369 26.649 25.4481L26.2496 24.5963L25.8496 25.4481C25.7608 25.6369 25.584 25.7687 25.3783 25.8006L24.4215 25.9469L25.1346 26.6775C25.2733 26.8194 25.3358 27.0187 25.304 27.2144L25.1421 28.2056L25.9471 27.7606C26.0415 27.7081 26.1452 27.6825 26.2496 27.6825Z" fill="#3843C1"/>
</g>
<defs>
<clipPath id="clip0_1518_4237">
<rect width="30" height="30" fill="white"/>
</clipPath>
</defs>
</svg>
