<svg width="30" height="30" viewBox="0 0 30 30" fill="none" xmlns="http://www.w3.org/2000/svg">
<path fill-rule="evenodd" clip-rule="evenodd" d="M11.6703 12.8723C11.6703 11.8895 12.0607 10.9469 12.7556 10.252C13.4506 9.55706 14.3931 9.16664 15.3759 9.16664C16.3587 9.16664 17.3012 9.55706 17.9962 10.252C18.6911 10.9469 19.0815 11.8895 19.0815 12.8723C19.0815 19.6192 11.6703 19.6192 11.6703 12.8723ZM16.0351 20.8949C16.0982 20.4339 16.1626 19.9734 16.228 19.5134H14.5238L14.7184 20.8914C15.1492 21.0095 15.6037 21.0107 16.0351 20.8949ZM15.3759 26.6617L16.3067 25.357L15.7125 21.8153C15.6087 21.8276 15.5044 21.8339 15.4 21.8341C15.2796 21.8356 15.1592 21.8293 15.0396 21.8153L14.4471 25.357L15.3759 26.6617ZM17.4934 19.5132H17.0785L17.0699 19.5696V19.5713C17.0033 20.0494 16.9351 20.5276 16.8684 21.0057C16.8541 21.1164 16.8156 21.2226 16.7557 21.3168C16.6958 21.4109 16.6159 21.4908 16.5218 21.5507L17.1655 25.3895H17.1638C17.1736 25.4437 17.1723 25.4994 17.16 25.5531C17.1476 25.6068 17.1245 25.6574 17.0921 25.702L15.7242 27.6231C15.6953 27.6637 15.6602 27.6995 15.6201 27.729C15.5752 27.7611 15.5244 27.7841 15.4705 27.7965C15.4167 27.8089 15.361 27.8105 15.3065 27.8013C15.2521 27.7921 15.2 27.7722 15.1532 27.7428C15.1065 27.7134 15.066 27.675 15.0342 27.6299L13.67 25.7156C13.6342 25.67 13.6084 25.6174 13.5943 25.5612C13.5802 25.505 13.578 25.4465 13.588 25.3894L14.2317 21.5457C14.1395 21.4869 14.0609 21.4091 14.0011 21.3175C13.9414 21.2259 13.9018 21.1227 13.8851 21.0146L13.675 19.5135H13.2584C10.2905 19.5135 7.86043 21.9418 7.86043 24.9115V29.0508H10.772V25.9683C10.772 25.8565 10.8165 25.7491 10.8956 25.67C10.9747 25.5909 11.082 25.5465 11.1939 25.5465C11.3058 25.5465 11.4131 25.5909 11.4922 25.67C11.5713 25.7491 11.6158 25.8565 11.6158 25.9683V29.0508H19.1363V25.9683C19.1363 25.9129 19.1472 25.8581 19.1684 25.8069C19.1896 25.7557 19.2207 25.7092 19.2598 25.67C19.299 25.6309 19.3455 25.5998 19.3967 25.5786C19.4479 25.5574 19.5027 25.5465 19.5581 25.5465C19.6135 25.5465 19.6684 25.5574 19.7196 25.5786C19.7708 25.5998 19.8173 25.6309 19.8565 25.67C19.8956 25.7092 19.9267 25.7557 19.9479 25.8069C19.9691 25.8581 19.98 25.9129 19.98 25.9683V29.0508H22.8933V24.9113C22.893 21.9417 20.463 19.5134 17.4934 19.5134V19.5132ZM27.8384 16.9863L27.374 16.9249C27.3515 16.9192 27.3278 16.9215 27.3069 16.9315C27.286 16.9414 27.2692 16.9584 27.2595 16.9795L27.0134 17.3808C26.8964 17.5747 26.744 17.745 26.5643 17.8828L27.7307 19.6776L28.2105 18.2159L29.7389 18.3713L28.7637 16.8699C28.4709 16.9892 28.1517 17.0294 27.8384 16.9863ZM23.7588 17.1639C23.7464 17.1446 23.728 17.1299 23.7063 17.1221C23.6847 17.1144 23.6611 17.1141 23.6393 17.1212L23.1833 17.2322C22.936 17.294 22.6784 17.3021 22.4277 17.2558C22.177 17.2096 21.9392 17.1101 21.7302 16.9641L20.8149 18.3713L22.345 18.2159L22.8231 19.6776L24.1398 17.6523C24.1073 17.6147 24.0765 17.5772 24.046 17.5379L23.7588 17.1639ZM26.6156 11.1925C26.2499 10.8618 25.7743 10.679 25.2812 10.6798C25.2447 10.6798 25.2081 10.6808 25.1714 10.6828H25.1709C24.7091 10.7077 24.2702 10.892 23.9289 11.2042C23.5877 11.5164 23.3653 11.9373 23.2995 12.3951C23.2338 12.8529 23.3288 13.3193 23.5683 13.7149C23.8079 14.1106 24.1772 14.4109 24.6134 14.5648C25.0495 14.7187 25.5255 14.7166 25.9603 14.559C26.3951 14.4013 26.7618 14.0978 26.9979 13.7001C27.2341 13.3024 27.325 12.8351 27.2553 12.3779C27.1856 11.9207 26.9595 11.5018 26.6156 11.1925ZM26.5406 16.5389L26.2945 16.9419C26.2133 17.0748 26.1009 17.1859 25.9672 17.2656C25.8334 17.3454 25.6822 17.3913 25.5267 17.3996C25.3712 17.4078 25.216 17.3781 25.0746 17.3129C24.9332 17.2477 24.8097 17.1491 24.7149 17.0256L24.4278 16.6516C24.3161 16.5021 24.1624 16.3891 23.9864 16.3271C23.8103 16.2651 23.6198 16.2568 23.439 16.3032L22.9831 16.4142C22.8315 16.4509 22.6733 16.4502 22.522 16.412C22.3708 16.3739 22.2311 16.2995 22.1151 16.1952C21.9991 16.091 21.9102 15.96 21.8562 15.8137C21.8021 15.6674 21.7845 15.5101 21.8049 15.3555L21.8663 14.891C21.8932 14.7065 21.8645 14.5181 21.7839 14.3499C21.7034 14.1817 21.5745 14.0413 21.4138 13.9467L21.0142 13.7025C20.881 13.6214 20.7695 13.5091 20.6895 13.3752C20.6095 13.2414 20.5632 13.0901 20.5548 12.9343C20.5464 12.7786 20.5761 12.6232 20.6412 12.4815C20.7064 12.3398 20.8051 12.2161 20.9288 12.1212L21.3015 11.8359C21.4506 11.7243 21.5631 11.5709 21.6248 11.3951C21.6865 11.2194 21.6946 11.0293 21.6481 10.8489L21.5388 10.393C21.5017 10.2415 21.5022 10.0832 21.5401 9.93194C21.578 9.78066 21.6522 9.64091 21.7564 9.52482C21.8605 9.40873 21.9914 9.3198 22.1377 9.26576C22.284 9.21171 22.4413 9.19418 22.5959 9.21469L23.0655 9.27615C23.2488 9.3028 23.4359 9.27471 23.6033 9.19542C23.7707 9.11612 23.9109 8.98915 24.0064 8.83043L24.2626 8.41717C24.3438 8.28527 24.4557 8.17504 24.5889 8.09593C24.722 8.01682 24.8724 7.9712 25.027 7.96297C25.1817 7.95474 25.336 7.98416 25.4768 8.04869C25.6176 8.11323 25.7406 8.21096 25.8353 8.3335L26.1342 8.71775C26.2456 8.86566 26.3983 8.97731 26.573 9.03869C26.7477 9.10007 26.9366 9.10842 27.1161 9.0627L27.5772 8.95172C27.7287 8.91484 27.8869 8.91549 28.0381 8.95362C28.1894 8.99174 28.329 9.06619 28.4449 9.17051C28.5608 9.27483 28.6496 9.40585 28.7034 9.55222C28.7572 9.6986 28.7745 9.85589 28.7537 10.0105L28.6906 10.4749C28.6635 10.6595 28.6919 10.848 28.7722 11.0165C28.8525 11.1849 28.981 11.3257 29.1414 11.421L29.541 11.6652C29.674 11.7466 29.7852 11.8591 29.8649 11.9931C29.9446 12.1271 29.9905 12.2785 29.9986 12.4342C30.0067 12.5899 29.9767 12.7453 29.9113 12.8868C29.8458 13.0283 29.7469 13.1518 29.623 13.2465L29.2508 13.5316C29.1016 13.6433 28.9888 13.7966 28.9265 13.9722C28.8642 14.1478 28.8552 14.338 28.9007 14.5187L29.0117 14.9746C29.0482 15.1263 29.0472 15.2845 29.0088 15.4357C28.9704 15.5868 28.8957 15.7264 28.7913 15.8422C28.6869 15.9581 28.5558 16.0467 28.4094 16.1006C28.2631 16.1544 28.1058 16.1718 27.9512 16.1512L27.4867 16.088C27.3021 16.0611 27.1137 16.0896 26.9453 16.1698C26.7769 16.25 26.636 16.3784 26.5406 16.5386V16.5389ZM27.3929 14.584C27.8292 14.0994 28.0859 13.4797 28.1202 12.8285C28.1544 12.1773 27.9641 11.5341 27.581 11.0064C27.198 10.4787 26.6454 10.0985 26.0157 9.92927C25.3859 9.76007 24.7172 9.81215 24.1212 10.0768C23.5253 10.3415 23.0382 10.8027 22.7415 11.3833C22.4448 11.964 22.3563 12.6289 22.491 13.2669C22.6256 13.9049 22.9752 14.4774 23.4813 14.8887C23.9873 15.2999 24.6192 15.5249 25.2713 15.5262C25.3229 15.5262 25.375 15.5248 25.4271 15.5221C25.8005 15.5036 26.1666 15.4111 26.504 15.2501C26.8415 15.0891 27.1436 14.8627 27.3929 14.584ZM0.515701 13.5879C0.357907 13.5025 0.226467 13.3755 0.135588 13.2208C0.0447098 13.0661 -0.00214963 12.8895 7.57272e-05 12.71V11.4327C7.57272e-05 10.9153 0.331365 10.7461 0.759978 10.7461H1.99121V9.90094C1.99073 9.63712 2.0909 9.38305 2.27129 9.19055C2.36146 9.09352 2.47059 9.01603 2.59191 8.96287C2.71324 8.9097 2.84418 8.882 2.97664 8.88147H7.21168C7.34412 8.88201 7.47504 8.90973 7.59634 8.96289C7.71764 9.01605 7.82675 9.09354 7.91691 9.19055C8.0973 9.38305 8.19747 9.63712 8.19699 9.90094V10.7461H9.42822C9.85683 10.7461 10.1881 10.9151 10.1881 11.4326V12.7082C10.1906 12.8881 10.1436 13.0652 10.0524 13.2203C9.96113 13.3753 9.82911 13.5024 9.67068 13.5877C8.6717 14.1427 7.67271 14.5166 6.67373 14.7096V13.084H3.51617V14.7114C2.51547 14.5184 1.51531 14.1439 0.515701 13.5879ZM2.83467 10.7461H7.35359V9.90094C7.35451 9.8514 7.33683 9.80331 7.30402 9.76617C7.28014 9.74033 7.247 9.725 7.21185 9.72352H2.97664C2.94147 9.72501 2.90832 9.74034 2.88441 9.76617C2.85165 9.80333 2.83399 9.85141 2.8349 9.90094L2.83467 10.7461ZM9.73549 17.5939V14.5099C8.7746 15.0154 7.74218 15.3713 6.6739 15.5653V16.6375H3.51617V15.567C2.44697 15.3741 1.41373 15.0182 0.452595 14.5116V17.5937C0.452595 18.0038 0.768533 18.3365 1.15619 18.3365H9.03195C9.41955 18.3368 9.73549 18.0038 9.73549 17.5939ZM5.83015 15.7958V13.9277H4.35804V15.7959L5.83015 15.7958ZM13.2755 7.41287L15.3759 5.88111L17.4763 7.41287L16.6686 4.94186L18.7742 3.41842L16.1751 3.42352L15.3759 0.949219L14.5782 3.42375L11.9775 3.41865L14.0847 4.94209L13.2755 7.41287ZM20.2701 6.36949L19.6792 8.17418L21.2144 7.05568L22.7495 8.17418L22.1586 6.36949L23.6973 5.25621L21.7984 5.25961L21.2144 3.45287L20.6303 5.25949L18.7314 5.25586L20.2701 6.36949ZM8.00398 8.17447L9.53744 7.05598L11.0726 8.17447L10.4817 6.36979L12.0203 5.2565L10.1214 5.2599L9.53738 3.45275L8.95508 5.25949L7.05617 5.25586L8.59472 6.36914L8.00398 8.17447Z" fill="#3843C1"/>
</svg>
