<svg width="40" height="40" viewBox="0 0 40 40" fill="none" xmlns="http://www.w3.org/2000/svg">
<path d="M32.562 23.75H31.2183C31.2333 23.9387 31.2495 24.125 31.2495 24.32V37.5C31.2447 37.855 31.1882 38.2075 31.082 38.5462C33.2476 38.0914 35.1911 36.9063 36.587 35.1893C37.9829 33.4723 38.7463 31.3278 38.7495 29.115C38.7495 26.1562 35.9733 23.75 32.562 23.75Z" fill="#3843C1"/>
<path d="M8.75 37.5V24.32C8.75 24.1275 8.76625 23.945 8.78125 23.75H7.4375C4.02625 23.75 1.25 26.1562 1.25 29.115C1.25319 31.3278 2.01668 33.4723 3.41256 35.1893C4.80844 36.9063 6.75194 38.0914 8.9175 38.5462C8.81128 38.2075 8.75486 37.855 8.75 37.5Z" fill="#3843C1"/>
<path d="M22.5625 18.7499H17.4375C15.8799 18.6742 14.3555 19.2172 13.1965 20.2605C12.0375 21.3038 11.3379 22.7629 11.25 24.3199V37.4999C11.25 37.8314 11.3817 38.1494 11.6161 38.3838C11.8505 38.6182 12.1685 38.7499 12.5 38.7499H27.5C27.8315 38.7499 28.1495 38.6182 28.3839 38.3838C28.6183 38.1494 28.75 37.8314 28.75 37.4999V24.3199C28.6621 22.7629 27.9625 21.3038 26.8035 20.2605C25.6445 19.2172 24.1201 18.6742 22.5625 18.7499Z" fill="#3843C1"/>
<path d="M20 16.25C23.4518 16.25 26.25 13.4518 26.25 10C26.25 6.54822 23.4518 3.75 20 3.75C16.5482 3.75 13.75 6.54822 13.75 10C13.75 13.4518 16.5482 16.25 20 16.25Z" fill="#3843C1"/>
<path d="M8.75 21.25C11.5114 21.25 13.75 19.0114 13.75 16.25C13.75 13.4886 11.5114 11.25 8.75 11.25C5.98858 11.25 3.75 13.4886 3.75 16.25C3.75 19.0114 5.98858 21.25 8.75 21.25Z" fill="#3843C1"/>
<path d="M31.25 21.25C34.0114 21.25 36.25 19.0114 36.25 16.25C36.25 13.4886 34.0114 11.25 31.25 11.25C28.4886 11.25 26.25 13.4886 26.25 16.25C26.25 19.0114 28.4886 21.25 31.25 21.25Z" fill="#3843C1"/>
</svg>
