<svg width="35" height="40" viewBox="0 0 35 40" fill="none" xmlns="http://www.w3.org/2000/svg">
<path d="M31.5102 28.2773C31.5151 28.2711 30.7627 27.2427 28.9796 26.5587C28.9796 26.5587 25.1769 25.4053 23.3764 24.1422C23.3764 24.1796 23.3729 24.216 23.3729 24.2547C23.3644 24.7507 23.308 25.3582 23.232 25.984C23.004 27.8538 22.5836 29.9316 22.5836 29.9316C22.0249 29.012 21.5253 28.4076 21.0796 28.0169C20.536 27.5396 20.0813 27.3907 19.7262 27.3907C19.6809 27.3907 19.64 27.3916 19.6022 27.3951C19.1578 27.4413 18.8911 27.7182 18.8133 27.8058C21.0084 25.1267 21.9293 22.8049 22.1449 22.2022C21.736 22.5156 21.2364 22.6996 20.7018 22.6996H19.1138C17.7916 22.6996 16.7156 21.624 16.7156 20.3009C16.7156 18.98 17.7916 17.9053 19.1138 17.9053H20.7018C21.2342 17.9053 21.7413 18.0813 22.1533 18.3951C22.8964 18.2929 23.5996 18.1107 24.2369 17.872C24.58 17.1729 24.7569 16.3445 24.7569 16.3445C25.2898 14.8462 24.9587 14.2649 24.7084 14.0485C25.0942 12.7925 25.9342 9.25557 23.9333 7.00445C23.9333 7.00445 23.1653 5.30623 20.0818 4.69023C20.0818 4.69023 19.0253 4.25112 18.508 3.14623C18.3467 3.12268 18.1858 3.09645 18.0209 3.08179C17.7191 3.21379 17.3564 3.4809 17.3564 4.02312L16.8427 3.81779L16.3667 4.15423L15.8164 3.81779C15.8164 3.81779 15.7773 3.80623 15.6991 3.80623C15.5929 3.80623 15.4129 3.8249 15.1471 3.91912C15.1471 3.91912 11.1342 5.46134 10.1071 8.64801C10.1071 8.64801 9.53689 10.0009 10.2316 13.9391C10.064 14.0076 9.32133 14.4191 10.0076 16.3453C10.0076 16.3453 10.3071 17.7578 10.8867 18.4493C11.2147 19.4605 11.7142 20.4396 12.3236 21.3049C12.3213 21.3027 12.3182 21.3 12.316 21.2965C12.316 21.2965 12.3929 21.6756 12.3231 22.2058C12.4649 22.5942 13.6182 25.5996 15.6413 27.8707C15.5342 27.7627 15.3142 27.5822 14.9853 27.5271C14.9204 27.5156 14.8511 27.5093 14.7778 27.5093C14.4502 27.5093 14.0409 27.636 13.5547 28.0293C13.0822 28.4129 12.5364 29.044 11.924 30.0551C11.924 30.0551 11.4196 27.5742 11.2156 25.5965C11.1662 25.1205 11.1342 24.6733 11.1307 24.3C11.1307 24.2249 11.1307 24.1538 11.1324 24.0858C9.36933 25.3702 5.44044 26.5618 5.44044 26.5618C3.66 27.2493 2.904 28.2782 2.904 28.2782C0.753778 31.4582 0.151556 35.3645 7.69124e-08 36.7031C-0.000888812 38.5245 7.70311 40 17.2053 40C26.7076 40 34.412 38.5245 34.412 36.7036C34.2627 35.364 33.6582 31.4565 31.5102 28.2773Z" fill="#3843C1"/>
<path d="M5.98579 19.3187H6.08668C7.18846 19.3187 8.08223 18.4262 8.08223 17.3244V13.332C8.08223 12.5502 7.62935 11.8724 6.97246 11.5458C7.25601 6.14933 11.7356 1.84311 17.204 1.84311C22.6707 1.84311 27.152 6.14933 27.4356 11.5458C26.7782 11.8724 26.3258 12.5498 26.3258 13.332V17.3244C26.3258 17.5853 26.3773 17.8329 26.4685 18.0631C25.3045 18.896 23.6102 19.4893 21.704 19.6533C21.4889 19.3262 21.1205 19.1067 20.6991 19.1067H19.1111C18.4493 19.1067 17.9147 19.6427 17.9147 20.3009C17.9147 20.9636 18.4493 21.4982 19.1111 21.4982H20.6991C21.1622 21.4982 21.5569 21.2356 21.7565 20.852C23.9689 20.6782 25.896 20.0022 27.2471 19.0036C27.5573 19.2031 27.9249 19.3191 28.3213 19.3191H28.4209C29.5249 19.3191 30.4178 18.4267 30.4178 17.3249V13.3324C30.4178 12.5364 29.9507 11.8538 29.2796 11.5342C28.9867 5.12489 23.6831 0 17.204 0C10.7262 0 5.42135 5.12489 5.12801 11.5333C4.4569 11.8529 3.99023 12.5356 3.99023 13.3316V17.324C3.99023 18.4258 4.88401 19.3187 5.98579 19.3187Z" fill="#3843C1"/>
</svg>
