<svg width="40" height="40" viewBox="0 0 40 40" fill="none" xmlns="http://www.w3.org/2000/svg">
<path fill-rule="evenodd" clip-rule="evenodd" d="M12.2854 38.75L27.7146 38.7499C28.2169 38.7499 28.586 38.2902 28.4775 37.7998C27.6168 33.9105 24.1483 31.0013 20 31.0013C15.8516 31.0013 12.3831 33.9105 11.5224 37.8C11.414 38.2903 11.7833 38.75 12.2854 38.75ZM34.2379 28.3844L33.2541 30.9755C33.2246 31.0534 33.1557 31.1034 33.0725 31.1074L30.3042 31.2423C30.1159 31.2515 30.0389 31.4887 30.1858 31.6068L32.3461 33.3431C32.411 33.3953 32.4373 33.4762 32.4155 33.5566L31.6883 36.2312C31.6389 36.413 31.8406 36.5596 31.9983 36.4564L34.3173 34.9384C34.3869 34.8928 34.472 34.8928 34.5417 34.9384L36.8606 36.4564C37.0183 36.5597 37.2201 36.4131 37.1706 36.2312L36.4435 33.5566C36.4217 33.4762 36.448 33.3953 36.5129 33.3431L38.6732 31.6068C38.8201 31.4887 38.743 31.2516 38.5548 31.2423L35.7864 31.1074C35.7032 31.1034 35.6344 31.0534 35.6048 30.9755L34.621 28.3844C34.5546 28.2091 34.3044 28.2091 34.2379 28.3844ZM31.4067 17.2775L30.423 19.8686C30.3934 19.9465 30.3245 19.9965 30.2413 20.0005L27.473 20.1355C27.2848 20.1446 27.2077 20.3818 27.3546 20.4999L29.5149 22.2362C29.5798 22.2884 29.6062 22.3694 29.5843 22.4498L28.8572 25.1243C28.8077 25.3062 29.0094 25.4527 29.1672 25.3495L31.4861 23.8316C31.5558 23.7859 31.6408 23.7859 31.7106 23.8316L34.0295 25.3495C34.1873 25.4528 34.389 25.3063 34.3395 25.1244L33.6124 22.4498C33.5906 22.3695 33.6169 22.2885 33.6818 22.2363L35.8421 20.5C35.9891 20.382 35.9119 20.1448 35.7237 20.1355L32.9553 20.0006C32.8721 19.9966 32.8033 19.9466 32.7737 19.8687L31.7899 17.2776C31.7234 17.1023 31.4733 17.1023 31.4067 17.2775ZM5.76225 28.3844L6.746 30.9755C6.77553 31.0534 6.84444 31.1034 6.92764 31.1074L9.69592 31.2423C9.8842 31.2515 9.96124 31.4887 9.81436 31.6068L7.65405 33.3431C7.58913 33.3953 7.5628 33.4762 7.58467 33.5566L8.31178 36.2312C8.36124 36.413 8.15952 36.5596 8.00178 36.4564L5.68288 34.9384C5.61319 34.8928 5.52811 34.8928 5.45835 34.9384L3.13944 36.4564C2.9817 36.5597 2.77999 36.4131 2.82944 36.2312L3.55655 33.5566C3.57835 33.4762 3.5521 33.3953 3.48717 33.3431L1.32686 31.6068C1.17991 31.4887 1.25702 31.2516 1.4453 31.2423L4.21358 31.1074C4.29678 31.1034 4.36561 31.0534 4.39522 30.9755L5.37897 28.3844C5.44553 28.2091 5.69577 28.2091 5.76225 28.3844ZM8.59342 17.2775L9.57717 19.8686C9.6067 19.9465 9.67561 19.9965 9.75881 20.0005L12.5271 20.1355C12.7154 20.1446 12.7924 20.3818 12.6455 20.4999L10.4852 22.2362C10.4203 22.2884 10.394 22.3694 10.4158 22.4498L11.143 25.1243C11.1924 25.3062 10.9907 25.4527 10.833 25.3495L8.51405 23.8316C8.44436 23.7859 8.35928 23.7859 8.2896 23.8316L5.97069 25.3495C5.81296 25.4528 5.61124 25.3063 5.66069 25.1244L6.3878 22.4498C6.40967 22.3695 6.38335 22.2885 6.31842 22.2363L4.15811 20.5C4.01116 20.382 4.08827 20.1448 4.27655 20.1355L7.04491 20.0006C7.12811 19.9966 7.19694 19.9466 7.22655 19.8687L8.2103 17.2776C8.27671 17.1023 8.52686 17.1023 8.59342 17.2775ZM27.613 8.55797C27.4213 7.75211 27.1019 6.98234 26.6675 6.27703L27.3254 4.7957L25.579 3.04938L24.0973 3.70742C23.3921 3.2732 22.6226 2.95383 21.8169 2.76203L21.2349 1.25H18.7651L18.1831 2.76211C17.3775 2.95383 16.608 3.27328 15.9028 3.7075L14.421 3.04945L12.6746 4.79586L13.3326 6.2775C12.8983 6.98266 12.579 7.75227 12.3873 8.55797L10.8752 9.14V11.6098L12.387 12.1916C12.5788 12.9974 12.8981 13.7673 13.3326 14.4726L12.6747 15.9539L14.4211 17.7003L15.9029 17.0422C16.608 17.4764 17.3775 17.7958 18.1832 17.9875L18.7652 19.4996H21.235L21.8169 17.9879C22.6227 17.7962 23.3925 17.4767 24.0978 17.0423L25.5791 17.7003L27.3255 15.9539L26.6674 14.4721C27.1016 13.767 27.421 12.9975 27.6127 12.1918L29.1248 11.6098V9.13984L27.613 8.55797ZM20.0001 14.682C17.6211 14.682 15.6928 12.7538 15.6928 10.3748C15.6928 7.9957 17.6211 6.0675 20.0001 6.0675C22.3791 6.0675 24.3073 7.9957 24.3073 10.3748C24.3073 12.7538 22.379 14.682 20.0001 14.682ZM20.0001 21.4398C22.4247 21.4398 24.3902 23.4053 24.3902 25.8299C24.3902 28.2545 22.4247 30.2201 20.0001 30.2201C17.5755 30.2201 15.6099 28.2545 15.6099 25.8299C15.6099 23.4053 17.5755 21.4398 20.0001 21.4398Z" fill="#3843C1"/>
</svg>
