<svg width="38" height="38" viewBox="0 0 38 38" fill="none" xmlns="http://www.w3.org/2000/svg">
<path fill-rule="evenodd" clip-rule="evenodd" d="M23.9464 24.0393L37.6576 37.66H22.089L16.1621 31.7716L23.9464 24.0393Z" fill="#3843C1"/>
<path fill-rule="evenodd" clip-rule="evenodd" d="M22.0892 4.64575H37.6578L13.2559 28.8847V13.4201L22.0892 4.64575Z" fill="#F84923"/>
<path fill-rule="evenodd" clip-rule="evenodd" d="M22.3259 5.21991L13.83 13.6591V27.5051L36.265 5.21991H22.3259ZM22.0892 4.64575L13.2559 13.4201V28.8847L37.6578 4.64575H22.0892Z" fill="#F84923"/>
<path d="M11.1016 0.3396L13.795 4.64582H8.4082L11.1016 0.3396Z" fill="#F84923"/>
<path fill-rule="evenodd" clip-rule="evenodd" d="M11.1016 0.3396L8.4082 4.64582H13.795L11.1016 0.3396ZM11.1016 1.42235L9.44454 4.07166H12.7586L11.1016 1.42235Z" fill="#F84923"/>
<path d="M9.90625 4.64575H12.2986V37.6601H9.90625V4.64575Z" fill="#F84923"/>
<path fill-rule="evenodd" clip-rule="evenodd" d="M11.7244 5.21991H10.4804V37.0859H11.7244V5.21991ZM9.90625 4.64575V37.6601H12.2986V4.64575H9.90625Z" fill="#F84923"/>
<path d="M6.55664 11.3445H8.94898V37.6603H6.55664V11.3445Z" fill="#F84923"/>
<path fill-rule="evenodd" clip-rule="evenodd" d="M8.37482 11.9186H7.1308V37.0861H8.37482V11.9186ZM6.55664 11.3445V37.6603H8.94898V11.3445H6.55664Z" fill="#F84923"/>
<path d="M5.12291 17.3251C5.12291 17.7215 4.80158 18.0428 4.4052 18.0428C4.00883 18.0428 3.6875 17.7215 3.6875 17.3251C3.6875 16.9287 4.00883 16.6074 4.4052 16.6074C4.80158 16.6074 5.12291 16.9287 5.12291 17.3251Z" fill="#F84923"/>
<path fill-rule="evenodd" clip-rule="evenodd" d="M4.4052 17.4687C4.48448 17.4687 4.54874 17.4044 4.54874 17.3251C4.54874 17.2458 4.48448 17.1816 4.4052 17.1816C4.32593 17.1816 4.26166 17.2458 4.26166 17.3251C4.26166 17.4044 4.32593 17.4687 4.4052 17.4687ZM4.4052 18.0428C4.80158 18.0428 5.12291 17.7215 5.12291 17.3251C5.12291 16.9287 4.80158 16.6074 4.4052 16.6074C4.00883 16.6074 3.6875 16.9287 3.6875 17.3251C3.6875 17.7215 4.00883 18.0428 4.4052 18.0428Z" fill="#F84923"/>
<path d="M8.47056 10.6266C8.47056 11.023 8.14924 11.3443 7.75286 11.3443C7.35648 11.3443 7.03516 11.023 7.03516 10.6266C7.03516 10.2303 7.35648 9.90894 7.75286 9.90894C8.14924 9.90894 8.47056 10.2303 8.47056 10.6266Z" fill="#F84923"/>
<path fill-rule="evenodd" clip-rule="evenodd" d="M7.75286 10.7702C7.83213 10.7702 7.8964 10.7059 7.8964 10.6266C7.8964 10.5474 7.83213 10.4831 7.75286 10.4831C7.67358 10.4831 7.60932 10.5474 7.60932 10.6266C7.60932 10.7059 7.67358 10.7702 7.75286 10.7702ZM7.75286 11.3443C8.14924 11.3443 8.47056 11.023 8.47056 10.6266C8.47056 10.2303 8.14924 9.90894 7.75286 9.90894C7.35648 9.90894 7.03516 10.2303 7.03516 10.6266C7.03516 11.023 7.35648 11.3443 7.75286 11.3443Z" fill="#F84923"/>
<path d="M3.20898 18.043H5.60133V37.6602H3.20898V18.043Z" fill="#F84923"/>
<path fill-rule="evenodd" clip-rule="evenodd" d="M5.02716 18.6171H3.78315V37.086H5.02716V18.6171ZM3.20898 18.043V37.6602H5.60133V18.043H3.20898Z" fill="#F84923"/>
<path fill-rule="evenodd" clip-rule="evenodd" d="M11.3627 3.63709L8.01012 10.8212L4.64355 17.5541L0.550937 22.1282L0.123047 21.7453L4.16439 17.2285L7.49474 10.5678L10.8424 3.39429L11.3627 3.63709Z" fill="#F84923"/>
</svg>
